<svg id="Layer_13" data-name="Layer 13" xmlns="http://www.w3.org/2000/svg" viewBox="0 0 415.23 291.43"><defs><style>.cls-1{fill:#3f3d56;}.cls-2{fill:tomato;}.cls-3{fill:#2f2e41;}.cls-4{opacity:0.1;isolation:isolate;}.cls-5{fill:#a0616a;}.cls-6{fill:#d0cde1;}.cls-7{fill:#f2f2f2;}</style></defs><title>hero-banner-5</title><path class="cls-1" d="M344.22,352.11c-2.7,10.26-12.14,16.68-12.14,16.68s-5.07-10.23-2.38-20.49,12.14-16.68,12.14-16.68S346.92,341.84,344.22,352.11Z" transform="translate(-10.77 -81.06)"/><path class="cls-2" d="M340.14,349.94c-7.55,7.46-8.39,18.84-8.39,18.84s11.39-.71,18.94-8.16,8.39-18.84,8.39-18.84S347.69,342.48,340.14,349.94Z" transform="translate(-10.77 -81.06)"/><path class="cls-3" d="M66.62,313.28H80.83l35-13.71s24.88-10.15,22.85,9.14-5.59,45.19-5.59,45.19-11.17-5.08-17.26-3.55-2-31-2-31-49.76,23.86-54.33,20.82-5.59-24.37-5.59-24.37Z" transform="translate(-10.77 -81.06)"/><path class="cls-4" d="M66.62,313.28H80.83l35-13.71s24.88-10.15,22.85,9.14-5.59,45.19-5.59,45.19-11.17-5.08-17.26-3.55-2-31-2-31-49.76,23.86-54.33,20.82-5.59-24.37-5.59-24.37Z" transform="translate(-10.77 -81.06)"/><path class="cls-5" d="M89,268.76l17.2,24.72L146.33,327s37.06,8.63,32,14.72-36-6.09-36-6.09-46.2-33.51-47.73-36-18.28-26.4-18.28-26.4Z" transform="translate(-10.77 -81.06)"/><path class="cls-4" d="M89,268.76l17.2,24.72L146.33,327s37.06,8.63,32,14.72-36-6.09-36-6.09-46.2-33.51-47.73-36-18.28-26.4-18.28-26.4Z" transform="translate(-10.77 -81.06)"/><path class="cls-6" d="M78.8,248.8,90,270.63s-2.54,10.66-6.6,11.68S62,269.11,62,269.11Z" transform="translate(-10.77 -81.06)"/><path class="cls-4" d="M78.8,248.8,90,270.63s-2.54,10.66-6.6,11.68S62,269.11,62,269.11Z" transform="translate(-10.77 -81.06)"/><path class="cls-3" d="M215.07,302l3.3,13.61a.85.85,0,0,1,0,.46l-15,46.77a.85.85,0,0,1-1.65-.16l-2.07-18.22a.85.85,0,0,1,0-.36l13.74-42.16a.85.85,0,0,1,1.63.06Z" transform="translate(-10.77 -81.06)"/><polygon class="cls-7" points="203.09 222.07 206.14 233.75 192.94 276.4 189.89 263.2 203.09 222.07"/><path class="cls-3" d="M147.35,366.59c.51,1.52,52.8-.51,53.31-1a11,11,0,0,0,1.12-2c.48-1,.91-2,.91-2l-2-16.44-51.79-1.84s-1.29,13.93-1.56,20.31A15.23,15.23,0,0,0,147.35,366.59Z" transform="translate(-10.77 -81.06)"/><polygon class="cls-4" points="183.29 266.25 184.31 280.46 161.46 280.46 161.46 266.25 183.29 266.25"/><polygon class="cls-4" points="153.84 270.81 153.98 270.79 153.33 276.91 140.64 276.91 140.64 270.81 153.84 270.81"/><path class="cls-4" d="M147.35,366.59c.51,1.52,52.8-.51,53.31-1a11,11,0,0,0,1.12-2H147.31A15.23,15.23,0,0,0,147.35,366.59Z" transform="translate(-10.77 -81.06)"/><circle class="cls-5" cx="75.65" cy="137.79" r="22.85"/><path class="cls-5" d="M84.9,239.15s-7.62,13.2-9.14,20.31-22.85-14.22-22.85-14.22l-2.79-7.36s20.06-9.39,18.53-17S84.9,239.15,84.9,239.15Z" transform="translate(-10.77 -81.06)"/><path class="cls-5" d="M89,278.76l20.82,27.42,49.76,37.06s36,7.62,27.93,13.2S156,351.36,156,351.36s-50.27-26.91-60.93-38.08-30.46-30-30.46-30Z" transform="translate(-10.77 -81.06)"/><path class="cls-3" d="M61,321.41l6.09,9.65,36.36-11.44a28.59,28.59,0,0,1,23.8,2.87c6.35,4,10.41,10.34,1.27,19.74C110.28,361,98.1,350.85,98.1,350.85s-61.44,28.94-71.59,14.72-10.66-21.32-10.66-21.32S54.94,319.88,61,321.41Z" transform="translate(-10.77 -81.06)"/><path class="cls-6" d="M137.19,354.92s16.25,10.66-3,15.74-33.51-2-33.51-2-16.76,0-16.76-8.63,5.59-9.65,5.59-9.65l17.26,2.54S127.54,347.3,137.19,354.92Z" transform="translate(-10.77 -81.06)"/><path class="cls-3" d="M105.16,213.1a17,17,0,0,0,4.79,1.72,4.37,4.37,0,0,0,4.42-1.89,5.94,5.94,0,0,0,.5-2.69c.06-2.79-.14-5.8-1.91-8-1.12-1.37-2.77-2.24-3.93-3.58a16.91,16.91,0,0,1-2-3.25c-2.26-4.25-5.62-8.34-10.27-9.56a22.28,22.28,0,0,0-6-.46L79,185.59a20.42,20.42,0,0,0-5.64.61c-3.78,1.14-6.52,4.32-9,7.35a46,46,0,0,0-5.19,7.16,25.11,25.11,0,0,0-3,12.3,11.51,11.51,0,0,0,.42,3.26,18.07,18.07,0,0,0,1.28,2.81c2.2,4.32,3.51,9.72,1,13.88,4.3-1.76,8.56-4.06,11.4-7.74,1.27-1.65,2.27-3.57,4-4.78s4.45-1.31,5.54.46a5,5,0,0,1,.56,2.32,10.65,10.65,0,0,0,.64,3.92A2.94,2.94,0,0,0,84.22,229c2.21-.62,2-4,3.7-5.56,1.29-1.17,3.29-.95,4.95-1.48a7.34,7.34,0,0,0,4.22-4.15c.63-1.41.62-5.1,1.81-5.87C100.38,211,103.78,212.48,105.16,213.1Z" transform="translate(-10.77 -81.06)"/><path class="cls-6" d="M48.3,235.48a6,6,0,0,1,3.14,0c3.26.87,10.57,3.19,12.13,6.72,2,4.57,9.14,11.68,9.14,11.68s9.65,9.65,7.62,16.25-9.65,14.22-9.65,14.22,2,31.48-8.12,39.6-14.22,2.54-14.22,10.15-31.48,31.48-37.57,16.75c0,0,3-27.42,2-37.06S13.26,245,48.3,235.48Z" transform="translate(-10.77 -81.06)"/><path class="cls-6" d="M64.59,248.29s31,22.85,25.39,32.49c0,0-18.79,9.14-22.85,8.63s-19.8-18.28-23.86-19.8S37.17,240.68,64.59,248.29Z" transform="translate(-10.77 -81.06)"/><circle class="cls-7" cx="192.19" cy="91.63" r="25.08"/><path class="cls-1" d="M410.13,140.11H269.57V110.7H410.13Zm-139.94-.62H409.51V111.32H270.19Z" transform="translate(-10.77 -81.06)"/><rect class="cls-2" x="249.21" y="35.53" width="139.94" height="28.79"/><circle class="cls-2" cx="160.74" cy="5.88" r="2.17"/><circle class="cls-2" cx="168.17" cy="5.88" r="2.17"/><circle class="cls-2" cx="175.61" cy="5.88" r="2.17"/><path class="cls-1" d="M426,250.71H165.32V81.06H426Zm-260.06-.62H425.38V81.67H165.94Z" transform="translate(-10.77 -81.06)"/><rect class="cls-1" x="154.86" y="9.39" width="260.06" height="0.62"/><path class="cls-1" d="M172.13,88.49A2.48,2.48,0,1,1,174.61,86,2.48,2.48,0,0,1,172.13,88.49Zm0-4.33A1.86,1.86,0,1,0,174,86,1.86,1.86,0,0,0,172.13,84.15Z" transform="translate(-10.77 -81.06)"/><path class="cls-1" d="M179.56,88.49A2.48,2.48,0,1,1,182,86,2.48,2.48,0,0,1,179.56,88.49Zm0-4.33A1.86,1.86,0,1,0,181.42,86,1.86,1.86,0,0,0,179.56,84.15Z" transform="translate(-10.77 -81.06)"/><path class="cls-1" d="M187,88.49A2.48,2.48,0,1,1,189.47,86h0A2.48,2.48,0,0,1,187,88.49Zm0-4.33A1.86,1.86,0,1,0,188.85,86h0A1.86,1.86,0,0,0,187,84.15Z" transform="translate(-10.77 -81.06)"/><rect class="cls-1" x="236.2" y="9.7" width="0.62" height="159.89"/><rect class="cls-7" x="265.77" y="88.31" width="45.51" height="6.19"/><rect class="cls-7" x="337.29" y="88.31" width="45.51" height="6.19"/><path class="cls-1" d="M324.83,172.77H278.7V166h46.13Zm-45.51-.62h44.89v-5.57H279.32Z" transform="translate(-10.77 -81.06)"/><rect class="cls-7" x="265.77" y="136.3" width="45.51" height="6.19"/><path class="cls-1" d="M324.83,220.76H278.7v-6.81h46.13Zm-45.51-.62h44.89v-5.57H279.32Z" transform="translate(-10.77 -81.06)"/><rect class="cls-7" x="265.92" y="111.69" width="117.03" height="6.19"/><path class="cls-1" d="M396.5,196.77H278.86V190H396.5Zm-117-.62H395.89v-5.57H279.48Z" transform="translate(-10.77 -81.06)"/><path class="cls-1" d="M396.35,172.77H350.22V166h46.13Zm-45.51-.62h44.89v-5.57H350.84Z" transform="translate(-10.77 -81.06)"/><path class="cls-1" d="M207.21,191.21a25.47,25.47,0,1,1,25.47-25.47A25.47,25.47,0,0,1,207.21,191.21Zm0-50.16a24.7,24.7,0,1,0,24.7,24.7A24.7,24.7,0,0,0,207.21,141Z" transform="translate(-10.77 -81.06)"/><rect class="cls-1" x="288.66" y="287.27" width="109.2" height="0.77"/></svg>