<svg id="Layer_10" data-name="Layer 10" xmlns="http://www.w3.org/2000/svg" viewBox="0 0 417 292.58"><defs><style>.cls-1{fill:#3f3d56;}.cls-2{fill:tomato;}.cls-3{fill:#a0616a;}.cls-4{fill:#d0cde1;}.cls-5{fill:#2f2e41;}.cls-6{opacity:0.1;isolation:isolate;}.cls-7{fill:#f2f2f2;}.cls-8{fill:#e6e6e6;}</style></defs><title>hero-banner-3</title><ellipse class="cls-1" cx="156.85" cy="280.33" rx="156.85" ry="12.25"/><path class="cls-1" d="M65.87,341.08c-.09-.14-2.13-3.55-2.83-10.62-.65-6.49-.23-17.43,5.44-32.69,10.75-28.91-2.48-52.23-2.61-52.46l.65-.38A57.9,57.9,0,0,1,72,260.41,67.51,67.51,0,0,1,69.19,298c-10.73,28.86-2.75,42.52-2.67,42.65Z" transform="translate(-7 -69.42)"/><circle class="cls-2" cx="54.67" cy="169.29" r="4.9"/><circle class="cls-1" cx="70.13" cy="187.39" r="4.9"/><circle class="cls-2" cx="59.57" cy="199.45" r="4.9"/><circle class="cls-2" cx="72.39" cy="209.63" r="4.9"/><circle class="cls-1" cx="55.8" cy="225.47" r="4.9"/><path class="cls-1" d="M68.83,341.26s-4.9-12.07,9.8-21.11Z" transform="translate(-7 -69.42)"/><path class="cls-1" d="M62.81,341s-2.23-12.83-19.5-12.72Z" transform="translate(-7 -69.42)"/><path class="cls-3" d="M146.5,127.86s.38,9.8-1.89,12.07,11.31,10.18,11.31,10.18l7.92-12.44s-3-5.28-2.26-9.8Z" transform="translate(-7 -69.42)"/><polygon class="cls-3" points="115.18 257.7 115.18 267.13 126.87 267.88 126.12 257.7 115.18 257.7"/><polygon class="cls-3" points="179.28 257.7 179.28 267.13 167.59 267.88 168.35 257.7 179.28 257.7"/><path class="cls-4" d="M128.22,222.69s-6,21.87-2.26,39.21c0,0,0,7.54,1.51,9s1.89,1.51.75,2.26-3.39,2.64-2.26,3.77,1.51,2.64.75,3a1.73,1.73,0,0,0-.75,2.64c.75,1.51-3.77,41.85-3.77,41.85s-4.52,4.9,0,5.28S134.25,332,135,329s6.79-45.62,6.79-45.62.75-1.13,2.26-3,.75-2.64.75-3,7.92-36.2,7.92-36.2,11.69,40.72,12.82,41.47,1.51.75,1.51,1.89-.75,1.89,0,3a19.59,19.59,0,0,1,1.13,1.89s1.89,42.23,5.66,42.23,15.08-.75,14-4.15-2.64-2.64-2.64-2.64,2.64-34.69-3.77-44.87V271.7c0-.75.38-1.13,0-1.89s1.13-45.62-6-48.26S128.22,222.69,128.22,222.69Z" transform="translate(-7 -69.42)"/><path class="cls-5" d="M129.35,333.91s-1.89-3-4.52-3-4.52,3-4.52,3l-6.79,9.43s-9.8,6-6,9.43,14,1.51,14,1.51,8.29-6,9.43-6.41a23.93,23.93,0,0,0,4.52-2.64c.38-.38-.75-14-1.89-13S131.61,336.17,129.35,333.91Z" transform="translate(-7 -69.42)"/><path class="cls-5" d="M179.12,333.91s1.89-3,4.52-3,4.52,3,4.52,3l6.79,9.43s9.8,6,6,9.43-14,1.51-14,1.51-8.29-6-9.43-6.41a23.93,23.93,0,0,1-4.52-2.64c-.38-.38.75-14,1.89-13S176.85,336.17,179.12,333.91Z" transform="translate(-7 -69.42)"/><circle class="cls-3" cx="146.1" cy="50.33" r="13.57"/><path class="cls-1" d="M149.52,141.06s-2.54.14-3.72-3.7l-20,14.63,8.29,22.25s1.13,12.07,0,15.46-1.89,6-1.89,7.54-7.92,26.77-4.9,27.9,49,5.66,50.15-1.89-3.77-57.31-3.77-57.31l7.92-19.23-19.25-12.59S160.45,141.81,149.52,141.06Z" transform="translate(-7 -69.42)"/><path class="cls-3" d="M124.45,175.93l-1.51,11.69a60.11,60.11,0,0,0-4.52,29L118,227.59s-3.77,18.85,3.77,19.61,2.64-20.74,2.64-20.74l4.15-10.18,4.25-22.65L135,177.82Z" transform="translate(-7 -69.42)"/><path class="cls-1" d="M131.23,151.43l-5.47.57s-3.58,26.58-2.45,26.58,14,3,14.33,2.26S131.23,151.43,131.23,151.43Z" transform="translate(-7 -69.42)"/><path class="cls-5" d="M142.63,105.84l-2.45-.89s5.12-5.12,12.23-4.67l-2-2s4.89-1.78,9.34,2.89a39.74,39.74,0,0,1,6.73,8.59h2.62L168,112l3.83,2.19-3.93-.39a11,11,0,0,1-.37,5.66l-.89,2.45s-3.56-7.12-3.56-8v2.22s-2.45-2-2.45-3.34l-1.33,1.56-.67-2.45-8.23,2.45,1.33-2-5.12.67,2-2.45s-5.78,2.89-6,5.34-3.11,5.56-3.11,5.56l-1.33-2.22S136.18,109.18,142.63,105.84Z" transform="translate(-7 -69.42)"/><ellipse class="cls-1" cx="171.27" cy="193.98" rx="25.17" ry="35.82"/><ellipse class="cls-6" cx="171.27" cy="193.98" rx="25.17" ry="35.82"/><ellipse class="cls-1" cx="174.66" cy="193.98" rx="25.17" ry="35.82"/><ellipse class="cls-6" cx="174.66" cy="193.98" rx="21.59" ry="30.72"/><path class="cls-2" d="M181.47,278.2V274.6a8.37,8.37,0,0,1-4.81-1.57l.75-2.39a7.69,7.69,0,0,0,4.53,1.54,3.47,3.47,0,0,0,3.74-3.5c0-2-1.23-3.18-3.55-4.25-3.21-1.43-5.19-3.07-5.19-6.18a5.61,5.61,0,0,1,4.75-5.75v-3.61h1.95v3.46a7.65,7.65,0,0,1,4.09,1.25l-.79,2.36a7,7,0,0,0-4-1.21,3,3,0,0,0-3.33,3.07c0,1.86,1.16,2.78,3.9,4.07,3.24,1.5,4.87,3.36,4.87,6.53a6,6,0,0,1-5,6.07v3.71Z" transform="translate(-7 -69.42)"/><path class="cls-3" d="M187,171.79v15.46s.38,18.85-6,30.54l-3.39,7.54s-6.79,21.87-10.93,15.08,4.52-18.1,4.52-18.1l4.91-28.7-3-19.18Z" transform="translate(-7 -69.42)"/><path class="cls-1" d="M174.21,145.77l7.35.94s8.86,27,6.6,28.09-17,1.89-17,1.89Z" transform="translate(-7 -69.42)"/><rect class="cls-7" x="222.83" y="18.95" width="172.68" height="193.32"/><path class="cls-8" d="M261.5,234.12H257v-.75h4.52Zm-9,0h-4.52v-.75h4.52Zm-9,0h-4.52v-.75h4.52Zm-9,0h-4.52v-.75h4.52Z" transform="translate(-7 -69.42)"/><path class="cls-8" d="M324.84,198.37h-4.52v-.75h4.52Zm-9,0h-4.52v-.75h4.52Zm-9,0h-4.52v-.75h4.52Zm-9,0h-4.52v-.75h4.52Zm-9,0h-4.52v-.75h4.52Zm-9,0h-4.52v-.75h4.52Zm-9,0H266v-.75h4.52Zm-9,0H257v-.75h4.52Zm-9,0h-4.52v-.75h4.52Zm-9,0h-4.52v-.75h4.52Zm-9,0h-4.52v-.75h4.52Z" transform="translate(-7 -69.42)"/><path class="cls-8" d="M415.33,176.12H410.8v-.75h4.52Zm-9,0h-4.52v-.75h4.52Zm-9,0h-4.52v-.75h4.52Zm-9,0h-4.52v-.75h4.52Zm-9,0h-4.52v-.75h4.52Zm-9,0h-4.52v-.75h4.52Zm-9,0h-4.52v-.75H361Zm-9,0h-4.52v-.75H352Zm-9,0h-4.52v-.75h4.52Zm-9,0h-4.52v-.75h4.52Zm-9,0h-4.52v-.75h4.52Zm-9,0h-4.52v-.75h4.52Zm-9,0h-4.52v-.75h4.52Zm-9,0h-4.52v-.75h4.52Zm-9,0h-4.52v-.75h4.52Zm-9,0h-4.52v-.75h4.52Zm-9,0H266v-.75h4.52Zm-9,0H257v-.75h4.52Zm-9,0h-4.52v-.75h4.52Zm-9,0h-4.52v-.75h4.52Zm-9,0h-4.52v-.75h4.52Z" transform="translate(-7 -69.42)"/><path class="cls-8" d="M264.14,241h-.75V236.6h.75Zm0-8.9h-.75V227.7h.75Zm0-8.9h-.75V218.8h.75Zm0-8.9h-.75V209.9h.75Zm0-8.9h-.75V201h.75Zm0-8.9h-.75v-4.45h.75Zm0-8.9h-.75v-4.45h.75Zm0-8.9h-.75v-4.45h.75Zm0-8.9h-.75v-4.45h.75Zm0-8.9h-.75v-4.45h.75Zm0-8.9h-.75v-4.45h.75Zm0-8.9h-.75v-4.45h.75Zm0-8.9h-.75v-4.45h.75Zm0-8.9h-.75v-4.45h.75Zm0-8.9h-.75V112h.75Zm0-8.9h-.75v-4.45h.75Zm0-8.9h-.75V94.22h.75Zm0-8.9h-.75V85.32h.75Zm0-8.9h-.75V76.43h.75Z" transform="translate(-7 -69.42)"/><rect class="cls-8" x="256.38" y="176.08" width="0.75" height="2.26"/><path class="cls-8" d="M329.74,206.7H329V202.2h.75Zm0-9H329v-4.49h.75Zm0-9H329v-4.49h.75Zm0-9H329v-4.49h.75Zm0-9H329v-4.49h.75Zm0-9H329V157.3h.75Zm0-9H329v-4.49h.75Zm0-9H329v-4.49h.75Zm0-9H329v-4.49h.75Zm0-9H329v-4.49h.75Zm0-9H329v-4.49h.75Zm0-9H329v-4.49h.75Zm0-9H329V94.43h.75Zm0-9H329V85.45h.75Zm0-9H329V76.47h.75Z" transform="translate(-7 -69.42)"/><rect class="cls-8" x="321.99" y="141.76" width="0.75" height="2.26"/><polygon class="cls-2" points="222.83 212.27 257.14 177.96 272.78 193.61 322.36 144.03 354.41 176.07 412.1 118.39 412.1 212.27 222.83 212.27"/><path class="cls-1" d="M419.48,282.07h-190V69.42h190Zm-189.27-.75H418.72V70.18H230.2Z" transform="translate(-7 -69.42)"/><circle class="cls-1" cx="256.76" cy="163.63" r="4.9"/><circle class="cls-1" cx="322.36" cy="128.57" r="4.9"/><circle class="cls-1" cx="412.1" cy="106.32" r="4.9"/><path class="cls-1" d="M384.79,99.58a22.77,22.77,0,0,1-7.31,1l2.84,1.89-133.75,99,.45.61,133.75-99,1,3.27A22.79,22.79,0,0,1,384.79,99.58Z" transform="translate(-7 -69.42)"/></svg>