<svg id="Layer_11" data-name="Layer 11" xmlns="http://www.w3.org/2000/svg" viewBox="0 0 410.35 361.53"><defs><style>.cls-1{fill:#efefef;}.cls-2{fill:#3f3d56;}.cls-3{fill:tomato;}.cls-4{fill:#2f2e41;}.cls-5{fill:#a0616a;}.cls-6{fill:#d0cde1;}</style></defs><title>hero-banner-1</title><polygon class="cls-1" points="92.53 94.79 11.68 94.79 11.68 41.6 86 41.6 92.53 94.79"/><circle class="cls-2" cx="61.19" cy="57.96" r="7.35"/><path class="cls-2" d="M90.7,36.57c.7-.79,1.42-1.58,2.15-2.34l.76.73c-.72.75-1.43,1.53-2.12,2.31Z" transform="translate(-9 -10)"/><path class="cls-2" d="M97.51,29.74c1.61-1.43,3.29-2.8,5-4.09l.63.84c-1.69,1.27-3.36,2.63-4.94,4ZM107.85,22c1.82-1.14,3.71-2.22,5.62-3.2l.48.93c-1.88,1-3.75,2-5.54,3.16Zm11.48-5.93c2-.82,4-1.57,6.07-2.24l.32,1c-2,.65-4,1.39-6,2.21Zm12.54-2.95-.24-1c2.09-.49,4.23-.9,6.35-1.22l.16,1C136,12.23,133.93,12.63,131.86,13.12Zm12.6-1.9-.07-1c2.14-.14,4.32-.2,6.46-.16l0,1.05c-2.12,0-4.26,0-6.38.16Zm12.74.2.1-1c2.14.21,4.29.52,6.41.91l-.19,1c-2.09-.38-4.21-.68-6.32-.89ZM196.63,150c1.68-1.29,3.33-2.66,4.9-4.08l.71.78c-1.59,1.44-3.26,2.84-5,4.14ZM169.75,13.74l.28-1c2.07.56,4.15,1.22,6.17,1.95l-.36,1C173.84,14.94,171.8,14.29,169.75,13.74Zm36.32,127.72c1.45-1.55,2.85-3.17,4.16-4.83l.82.65c-1.33,1.68-2.75,3.33-4.22,4.9ZM181.74,18.07l.44-1c2,.89,3.89,1.88,5.76,2.93l-.51.92C185.58,19.93,183.67,19,181.74,18.07ZM214,131.46c1.18-1.76,2.29-3.6,3.32-5.45l.92.51c-1,1.88-2.17,3.74-3.36,5.52ZM192.86,24.31l.59-.87c1.78,1.2,3.53,2.49,5.21,3.83l-.66.82C196.35,26.77,194.62,25.49,192.86,24.31Zm27.3,96c.87-1.93,1.67-3.92,2.38-5.92l1,.35c-.72,2-1.53,4-2.42,6Zm-17.35-88,.72-.76c1.56,1.48,3.08,3,4.51,4.63l-.78.7C205.85,35.27,204.35,33.73,202.81,32.28Zm21.62,76c.54-2.05,1-4.15,1.38-6.23l1,.18c-.38,2.11-.85,4.24-1.4,6.31ZM211.32,41.76l.84-.64c1.3,1.71,2.54,3.5,3.68,5.31L215,47C213.82,45.21,212.6,43.45,211.32,41.76Zm15.36,54c.2-2.11.31-4.25.33-6.37h1.05c0,2.15-.14,4.32-.34,6.46Zm-8.53-43.22.93-.49c1,1.9,1.92,3.87,2.76,5.85l-1,.41c-.83-2-1.74-3.89-2.72-5.77ZM226.81,83c-.15-2.11-.4-4.24-.72-6.34l1-.16c.33,2.13.58,4.29.73,6.42ZM223.1,64.26l1-.33c.67,2,1.27,4.14,1.77,6.22l-1,.25c-.5-2.06-1.08-4.13-1.74-6.14Z" transform="translate(-9 -10)"/><path class="cls-2" d="M188.67,155.36c.9-.52,1.8-1.07,2.67-1.64l.57.89c-.89.57-1.8,1.13-2.71,1.66Z" transform="translate(-9 -10)"/><polygon class="cls-3" points="11.68 78.15 27.79 62.04 42.38 76.63 70.05 48.95 92.75 72.08 92.75 94.79 11.68 94.79 11.68 78.15"/><path class="cls-2" d="M284.44,236.24V340.45h134V236.24ZM401,264.11H390.6V253.72H401Z" transform="translate(-9 -10)"/><rect class="cls-2" x="58.37" y="185.16" width="8.65" height="11.24"/><rect class="cls-2" x="198.83" y="266.07" width="11.24" height="8.65" transform="translate(-140.32 213.76) rotate(-45)"/><rect class="cls-2" x="173.31" y="69.76" width="11.24" height="8.65" transform="translate(-8.98 138.23) rotate(-45)"/><path class="cls-2" d="M294.39,306.83c-.48.94-1,1.88-1.5,2.8l-.92-.51c.51-.91,1-1.84,1.48-2.76Z" transform="translate(-9 -10)"/><path class="cls-2" d="M289.5,315.13c-1.2,1.78-2.49,3.53-3.84,5.2l-.82-.66c1.33-1.65,2.6-3.38,3.79-5.13ZM281.4,325.2c-1.48,1.56-3,3.07-4.65,4.5l-.7-.79c1.58-1.41,3.12-2.9,4.58-4.44Zm-9.65,8.6c-1.71,1.29-3.5,2.52-5.32,3.67l-.56-.89c1.79-1.13,3.56-2.35,5.25-3.62Zm-11.41,6,.49.93c-1.91,1-3.87,1.93-5.84,2.76l-.41-1C256.52,341.66,258.46,340.75,260.34,339.76Zm-11.74,5,.33,1c-2,.67-4.13,1.26-6.22,1.76l-.25-1c2.06-.49,4.12-1.08,6.14-1.74Zm-12.39,3,.16,1c-2.12.33-4.29.56-6.43.71l-.07-1c2.12-.15,4.25-.38,6.34-.7Zm-72.6-124.45c-1.31,1.66-2.56,3.4-3.73,5.17l-.88-.58c1.18-1.79,2.46-3.56,3.78-5.24Zm59.88,125.33v1.05c-2.15,0-4.32-.15-6.46-.36l.1-1C219.23,348.43,221.37,348.55,223.49,348.58Zm-66.9-114.69c-1,1.86-2,3.78-2.83,5.72l-1-.43c.87-2,1.84-3.91,2.87-5.79Zm54.21,113.47-.19,1c-2.11-.38-4.24-.85-6.31-1.41l.27-1c2,.54,4.14,1,6.23,1.39ZM151.4,245.53c-.7,2-1.33,4.05-1.86,6.1l-1-.27c.54-2.08,1.18-4.16,1.88-6.19Zm47.07,98.55-.35,1c-2-.72-4-1.53-6-2.42l.43-1C194.49,342.56,196.48,343.36,198.47,344.07Zm-50.29-86.21c-.36,2.09-.65,4.22-.84,6.32l-1-.1c.19-2.14.48-4.29.85-6.41Zm38.67,81-.51.92c-1.88-1-3.74-2.17-5.52-3.36l.58-.87C183.17,336.69,185,337.8,186.86,338.83ZM147,270.56c0,2.12.05,4.27.21,6.38l-1,.08c-.16-2.14-.23-4.31-.21-6.46Zm29.23,61.19-.65.82c-1.68-1.34-3.32-2.76-4.89-4.23l.72-.77C173,329,174.61,330.44,176.26,331.75ZM148,283.28c.33,2.09.76,4.2,1.26,6.25l-1,.25c-.51-2.09-.94-4.22-1.28-6.34ZM167,323l-.78.7c-1.44-1.59-2.82-3.27-4.12-5l.84-.64C164.2,319.8,165.56,321.46,167,323Zm-16-27.37c.67,2,1.44,4,2.27,6l-1,.42c-.85-2-1.63-4-2.31-6Zm8.24,17.22-.89.57c-1.15-1.81-2.25-3.69-3.26-5.59l.93-.49C157,309.25,158.12,311.1,159.26,312.89Z" transform="translate(-9 -10)"/><path class="cls-2" d="M170,216.09c-.74.73-1.47,1.49-2.18,2.25l-.77-.72c.72-.77,1.46-1.54,2.21-2.28Z" transform="translate(-9 -10)"/><path class="cls-2" d="M398.23,241.65c-.1-.16-2.44-4.07-3.25-12.18-.74-7.44-.27-20,6.24-37.49,12.33-33.15-2.84-59.9-3-60.17l.75-.43a66.4,66.4,0,0,1,6.26,17.75A77.43,77.43,0,0,1,402,192.28c-12.31,33.1-3.16,48.76-3.06,48.92Z" transform="translate(-9 -10)"/><circle class="cls-3" cx="384.41" cy="114.24" r="5.62"/><circle class="cls-2" cx="402.14" cy="135" r="5.62"/><circle class="cls-3" cx="390.03" cy="148.84" r="5.62"/><circle class="cls-3" cx="404.73" cy="160.51" r="5.62"/><circle class="cls-2" cx="385.71" cy="178.67" r="5.62"/><path class="cls-2" d="M401.63,241.86S396,228,412.87,217.64Z" transform="translate(-9 -10)"/><path class="cls-2" d="M394.71,241.61s-2.56-14.71-22.36-14.59Z" transform="translate(-9 -10)"/><path class="cls-4" d="M215.9,329.46a5.19,5.19,0,1,1,5.19-5.19A5.19,5.19,0,0,1,215.9,329.46Zm0-9.51a4.32,4.32,0,1,0,4.32,4.32A4.32,4.32,0,0,0,215.9,319.95Z" transform="translate(-9 -10)"/><path class="cls-2" d="M272.9,51.12h-8.54V42.58h8.54ZM265,50.46h7.22V43.24H265Z" transform="translate(-9 -10)"/><path class="cls-4" d="M40.11,289.41l-5.82-6.24,6.24-5.82,5.82,6.24Zm-4.89-6.21,4.93,5.28,5.28-4.93-4.93-5.28Z" transform="translate(-9 -10)"/><polygon class="cls-1" points="260.35 222.83 105.63 222.83 105.63 160.38 234.33 160.38 260.35 222.83"/><path class="cls-2" d="M270.06,233.31H95.7V156.66H238.44l.12.29Zm-173.41-.95h172L237.81,157.6H96.65Z" transform="translate(-9 -10)"/><rect class="cls-3" x="131.18" y="170.31" width="77.12" height="7.1"/><rect class="cls-3" x="131.18" y="184.98" width="77.12" height="7.1"/><rect class="cls-3" x="131.18" y="199.65" width="77.12" height="7.1"/><path class="cls-2" d="M138.48,115.16H9V36.47H109.62l.1.28ZM9.86,114.3H137.24L109,37.33H9.86Z" transform="translate(-9 -10)"/><path class="cls-2" d="M102,105.22H20.24v-61H102Zm-80.86-.86h80V45.11h-80Z" transform="translate(-9 -10)"/><circle class="cls-3" cx="128.86" cy="104.73" r="7.78"/><circle class="cls-3" cx="259.44" cy="223.21" r="7.78"/><circle class="cls-5" cx="315.26" cy="103.67" r="13.1"/><path class="cls-5" d="M315.25,119.94s4.37,9.82-1.64,13.64,9.82,19.65,9.82,19.65l17.46-18.55s-9.28-6-7.64-15.83Z" transform="translate(-9 -10)"/><path class="cls-5" d="M285.24,161.42l-3.82,21.83s-6.55,13.1-6.55,24.56-1.09,13.64-1.09,13.64-10.91,21.83-3.27,22.92S281.42,222,281.42,222s10.37-25.65,10.37-33.83l7.09-18Z" transform="translate(-9 -10)"/><path class="cls-5" d="M364.37,162.51l1.09,19.1s3.82,9.82,1.09,27.29l-2.18,16.92s4.91,19.1,0,19.65-10.91-12-7.64-19.1v-6s-3.27-25.65-2.18-30l-3.82-20.74Z" transform="translate(-9 -10)"/><polygon class="cls-5" points="284.43 303.67 289.88 317.86 301.89 315.67 294.25 300.39 284.43 303.67"/><polygon class="cls-5" points="336.27 315.13 334.63 335.86 348.27 335.86 347.73 317.86 336.27 315.13"/><path class="cls-4" d="M302.16,200.71l-1.64,8.19s-3.27,2.73-3.27,5.46-1.09,3.82-1.09,3.82-.55,0-1.09,1.09A6.75,6.75,0,0,1,294,220.9s-32.2,32.74-25.1,49.11,20.74,49.66,20.74,49.66,15.83-4.91,15.83-8.73l-15.28-43.11,30.56-31.65,24.56,33.29s-4.91,58.39-1.64,58.94,21.28,4.37,21.83,2.73,3.27-74.22,2.18-76.94-16.92-35.47-16.92-35.47,2.73-3.27,1.09-4.37-4.37-11.46-4.37-11.46S304.89,195.79,302.16,200.71Z" transform="translate(-9 -10)"/><path class="cls-6" d="M325.62,139.59l-11-6.78s-6.46.24-8.1,1.87-11.46,6-11.46,6,2.18,65.48,6.55,63.3,1.09-3.82,4.37-2.18S348,204,348.54,204s1.09-1.09,1.09-1.09l2.18-33.29,7.09-27.83-21-9.66Z" transform="translate(-9 -10)"/><path class="cls-6" d="M299.43,140.13h-4.37s-6,1.64-8.73,10.37-3.82,12.55-2.73,13.64,15.83,9.28,15.83,9.28Z" transform="translate(-9 -10)"/><path class="cls-6" d="M351.27,141.22l7.64.55s9.82,22.92,7.09,24-18.55,9.28-18.55,7.64S351.27,141.22,351.27,141.22Z" transform="translate(-9 -10)"/><path class="cls-4" d="M300,320.76l-4.45-1.64-10.28,13.64s-19.1,13.64-1.64,13.1c0,0,13.64-2.18,14.73-6,0,0,15.83-4.37,15.83-7.09s-3.64-10-4.82-10.19S303.25,324.58,300,320.76Z" transform="translate(-9 -10)"/><path class="cls-4" d="M357.27,339.86s-13.27-.22-13.18.17-3.74,9.11-3.19,12.39,5.46,7.64,4.37,9.82,3.27,8.73,12,9.28,7.64-9.28,7.64-9.28l-4.37-10.37Z" transform="translate(-9 -10)"/><path class="cls-4" d="M316.23,98.51a24.79,24.79,0,0,1-2,1.57,19.48,19.48,0,0,0-2.47,2.45l-.84.95a4.34,4.34,0,0,0-1.45,2.8c0,.4.13.79.18,1.19.19,1.58-.77,3.31,0,4.68.23.4.58.71.84,1.09a2.55,2.55,0,0,1,.4,1.66,2,2,0,0,0,1.82-1.54,15.51,15.51,0,0,0,.36-2.53,2.71,2.71,0,0,1,1.26-2.11c1.63-.8,3.51,1.28,5.26.76,1.22-.36,1.86-1.87,3.11-2.13a4.42,4.42,0,0,1,2.58.72c.83.38,1.95.55,2.53-.15.39-.46.43-1.2.94-1.51s1.39.15,1.86.7,1,1.22,1.7,1.2c1,0,1.69-1.3,2.6-1s.55,2,1.18,2.87,1.63.7,2.53.58a.91.91,0,0,0,.94-1.21l-.38-5a2.42,2.42,0,0,0-.22-1c-.26-.48-.81-.72-1.18-1.12-.78-.84-.74-2.31-1.71-2.92-.5-.32-1.16-.31-1.66-.63s-.85-1.24-1.3-1.86a4,4,0,0,0-2.85-1.4c-1.08-.11-2.18,0-3.27,0-2.22-.07-4.43-.7-6.66-.33C318.36,95.59,317.54,97.24,316.23,98.51Z" transform="translate(-9 -10)"/></svg>