<svg id="Layer_4" data-name="Layer 4" xmlns="http://www.w3.org/2000/svg" viewBox="0 0 432 267.21"><defs><style>.cls-1{fill:#f1f1f1;}.cls-2{fill:#3f3d56;}.cls-3{fill:#2f2e41;}.cls-4{fill:#ffb8b8;}.cls-5{opacity:0.1;isolation:isolate;}.cls-6{fill:#d0cde1;}.cls-7{fill:tomato;}.cls-8{fill:#ff6584;}</style></defs><title>hero-banner-4</title><rect class="cls-1" x="124.66" y="113.64" width="183.31" height="228.18" transform="translate(-64 262.28) rotate(-73.29)"/><ellipse class="cls-2" cx="104.69" cy="256.1" rx="104.69" ry="11.11"/><rect class="cls-3" x="88.99" y="29.3" width="25.41" height="37.04"/><path class="cls-4" d="M93.9,153.51s1,18.28-7.5,19c-5.92.52,11.54,16.73,11.54,16.73l15-20.76s-11.24,1.15-4-11.54Z" transform="translate(0 -107.13)"/><path class="cls-5" d="M112.94,168.51l-4.74,6.56-10.26,14.2s-8.57-8-11.66-12.9c-1.16-1.86-1.56-3.29-.43-3.71h0a1.83,1.83,0,0,1,.5-.11h0a5.37,5.37,0,0,0,1.44-.32c6.91-2.58,6.06-18.71,6.06-18.71l15,3.46c-4.81,8.46-1.4,10.77,1.4,11.37a9.34,9.34,0,0,0,1.87.2C112.64,168.54,112.94,168.51,112.94,168.51Z" transform="translate(0 -107.13)"/><path class="cls-3" d="M117.35,138.5c-2.75,8.13-7,15.54-15.54,15.54s-15.05-7-15.54-15.54C85.66,127.55,93,122.91,101.81,123,112.18,123,120.61,128.85,117.35,138.5Z" transform="translate(0 -107.13)"/><path class="cls-4" d="M80.64,270.6l4,28.26s-3.46,17.3-1.73,29.42L84.68,341h8.08l2.31-13.27s2.31-13.84,2.31-20.19c0,0,6.34-28.84,2.31-34.61Z" transform="translate(0 -107.13)"/><path class="cls-4" d="M129.67,268.87l-4,30s3.46,17.3,1.73,29.42L125.63,341h-8.08l-2.31-13.27s-2.31-13.84-2.31-20.19c0,0-6.34-30.57-2.31-36.34Z" transform="translate(0 -107.13)"/><path class="cls-3" d="M121.59,339.24s4.61-1.73,5.19.58,1.73,14.42,1.73,14.42,3.46,5.19,5.77,5.77,7.5,8.08,1.15,8.65-12.69-1.73-12.69-2.88-2.31-1.73-3.46-1.73-5.19-1.73-4.61-3.46S117,338.66,117,338.66Z" transform="translate(0 -107.13)"/><path class="cls-3" d="M88.71,339.24s-4.61-1.73-5.19.58-1.73,14.42-1.73,14.42S78.33,359.43,76,360s-7.5,8.08-1.15,8.65,12.69-1.73,12.69-2.88S89.87,364,91,364s5.19-1.73,4.61-3.46-2.31-21.92-2.31-21.92Z" transform="translate(0 -107.13)"/><circle class="cls-4" cx="102.56" cy="41.19" r="11.96"/><path class="cls-4" d="M147.55,214.07s-24.22,10.38-26.53-.58a158.4,158.4,0,0,1-2.88-20.76h0c-.34-.21-12.27-7.53-9.92-17.66a15.26,15.26,0,0,1,3-6s.35-.23,1-.55a19.14,19.14,0,0,1,2.18-1c4.07-1.55,10.84-2.43,12.43,7.89a236.9,236.9,0,0,1,2.31,31.15s6.92,4,16.15,0,18.46-1.73,19,3.46S147.55,214.07,147.55,214.07Z" transform="translate(0 -107.13)"/><path class="cls-4" d="M86.4,172.55l-.12,3.83L84.9,219.59l-.23,7.18-20.19,22.5s-4,12.11-12.69,13.84,5.77-16.72,5.77-16.72l19.61-28.84,0-1a109.64,109.64,0,0,0-2-24.1,28.9,28.9,0,0,1-.33-9c.8-6.44,6.1-9.23,9.23-10.32a15.79,15.79,0,0,1,1.76-.52h0l.5-.11Z" transform="translate(0 -107.13)"/><path class="cls-6" d="M118.71,214.07v2.31c-8.41,10.28-27,5.42-33.8,3.2-1.59-.52-2.53-.9-2.53-.9a6,6,0,0,0,.58-2.31v-5.19c0-1.73.57-.58,1.15-1.15s-1.73-4-1.73-4c-5.77-3.46-2.31-13.27-2.31-13.27l4-8.65v-10.9a15.79,15.79,0,0,1,1.76-.52h0a1.83,1.83,0,0,1,.5-.11h0a5.37,5.37,0,0,0,1.44-.32,9.55,9.55,0,0,0,8.37,5.52c5.91.42,11.51-5.95,14.09-9.4a9.34,9.34,0,0,0,1.87.2,19.14,19.14,0,0,1,2.18-1l-2.56,10.77c-2.27,5.67,6.05,14.12,6.34,14.42h0v6.35l-.58,6.92-.58,1.73,1.15,1.73-.58,1.73.58,1.15C118.71,213.5,118.71,212.93,118.71,214.07Z" transform="translate(0 -107.13)"/><path class="cls-3" d="M83.52,218.11l-1.73-.58S61,269.45,74.87,271.76s24.23,6.34,26.53,2.31,1.15-18.46,1.15-18.46l2.31-.58s-4,21.34,4,19.61,30.57-4.61,30.57-6.92-20.76-52.14-20.76-52.14S110.05,221,83.52,218.11Z" transform="translate(0 -107.13)"/><circle class="cls-3" cx="101.81" cy="12.97" r="6.13"/><path class="cls-3" d="M94.45,116.83a6.13,6.13,0,0,1,5.52-6.1c-.2,0-.41,0-.61,0a6.13,6.13,0,0,0,0,12.27c.21,0,.41,0,.61,0A6.13,6.13,0,0,1,94.45,116.83Z" transform="translate(0 -107.13)"/><path class="cls-3" d="M96.87,132.92s-.13-.71-5.14,1.17-8,15.74-5.51,23.88a7.46,7.46,0,0,1-1.15,7.3A12.06,12.06,0,0,0,89.35,184l.63.27,3.13,1.88a14.32,14.32,0,0,1-2-12,34.44,34.44,0,0,0,.62-17.63c-.23-1-.49-2-.78-3-2.5-8.76-1.29-7.75,7.48-16.52a55.71,55.71,0,0,0,9.39,5.63c4.38,1.88,8.14,3.76,5,10s-10.64,11.89-5.63,20,5.63,5,5,8.14h0l-.63,3.13,3.76-3.76-2.5,5s8.14,0,10.64-6.26l1.25,1.25s5-8.76-4.38-16.9c0,0-3.13-1.88,1.25-8.14s1-19.72-4.62-22.22S96.87,132.92,96.87,132.92Z" transform="translate(0 -107.13)"/><path class="cls-7" d="M161.92,230.33l16.84-5.28A61.73,61.73,0,0,0,172.47,205l-16.84,5.28A37.86,37.86,0,0,1,161.92,230.33Z" transform="translate(0 -107.13)"/><rect class="cls-2" x="195.28" y="1.43" width="236.72" height="96.57"/><path class="cls-8" d="M229.3,144.51H211.65a61.73,61.73,0,0,1,0-21H229.3A37.86,37.86,0,0,0,229.3,144.51Z" transform="translate(0 -107.13)"/><path class="cls-7" d="M244.58,153.47h17.65a61.73,61.73,0,0,0,0-21H244.58A37.86,37.86,0,0,1,244.58,153.47Z" transform="translate(0 -107.13)"/><path class="cls-1" d="M283.82,122.6A158.44,158.44,0,0,1,286.27,167q-.5,5.79-1.43,11.54c-.28,1.74-.61,3.47-.94,5.21-.19,1-.59,2.23,0,3.16,1.22,1.82,5.38,1.35,7.22,1.4,3.82.12,7.65.14,11.47.21l11.5.2,5.54.1a41.32,41.32,0,0,0,5.82.08c2.46-.32,1.86-2.9,1.83-4.81q-.11-5.68-.3-11.36-.76-22.51-2.81-44.95a35.63,35.63,0,0,0-.58-6c-.21-.75-.41-1-1.22-1.1a36.89,36.89,0,0,0-5.95,0l-6.28,0-25.53.18a.64.64,0,0,0,0,1.28l20.93-.15,9.21-.06,5,0c1,0,2-.32,2.64.82.41.72.24,2.52.32,3.35q1.88,20.12,2.72,40.32.21,5,.36,10.1.06,2.1.11,4.21,0,1.26.06,2.53c0,.87.38,2.57.06,3.37-.67,1.7-3.67,1-5.13.94l-5.11-.09-10.22-.18-10.22-.18c-1.69,0-3.38,0-5.07-.11l-1.68-.09c-1.67-.12-3.46.28-3.66-2-.12-1.42.65-3.38.9-4.8q.41-2.41.75-4.83.63-4.52,1-9.07a159.78,159.78,0,0,0-2.57-43.91c-.16-.81-1.4-.47-1.24.34Z" transform="translate(0 -107.13)"/><path class="cls-1" d="M368,122.6A158.44,158.44,0,0,1,370.45,167q-.5,5.79-1.43,11.54c-.28,1.74-.61,3.47-.94,5.21-.19,1-.59,2.23,0,3.16,1.22,1.82,5.38,1.35,7.22,1.4,3.82.12,7.65.14,11.47.21l11.5.2,5.54.1a41.32,41.32,0,0,0,5.82.08c2.46-.32,1.86-2.9,1.83-4.81q-.11-5.68-.3-11.36-.76-22.51-2.81-44.95a35.63,35.63,0,0,0-.58-6c-.21-.75-.41-1-1.22-1.1a36.89,36.89,0,0,0-5.95,0l-6.28,0-25.53.18a.64.64,0,0,0,0,1.28l20.93-.15,9.21-.06,5,0c1,0,2-.32,2.64.82.41.72.24,2.52.32,3.35q1.88,20.12,2.72,40.32.21,5,.36,10.1.06,2.1.11,4.21,0,1.26.06,2.53c0,.87.38,2.57.06,3.37-.67,1.7-3.67,1-5.13.94l-5.11-.09-10.22-.18-10.22-.18c-1.69,0-3.38,0-5.07-.11l-1.68-.09c-1.67-.12-3.46.28-3.66-2-.12-1.42.65-3.38.9-4.8q.41-2.41.75-4.83.63-4.52,1-9.07a159.78,159.78,0,0,0-2.57-43.91c-.16-.81-1.4-.47-1.24.34Z" transform="translate(0 -107.13)"/><path class="cls-1" d="M289.71,125.9h8.48a.64.64,0,0,0,0-1.28h-8.48a.64.64,0,0,0,0,1.28Z" transform="translate(0 -107.13)"/><path class="cls-1" d="M289.71,128.79l8-.3c.82,0,.83-1.31,0-1.28l-8,.3C288.89,127.54,288.89,128.82,289.71,128.79Z" transform="translate(0 -107.13)"/><path class="cls-1" d="M289.71,131.23h7.75a.64.64,0,0,0,0-1.28h-7.75a.64.64,0,0,0,0,1.28Z" transform="translate(0 -107.13)"/><path class="cls-1" d="M315.4,125.3c-1.74-.91-3.32.59-3.56,2.29a3.82,3.82,0,0,0,.39,2.68,3.36,3.36,0,0,0,2.45,1.08,3.6,3.6,0,0,0,3.82-2.52,3.14,3.14,0,0,0-2-3.72c-.78-.27-1.12,1-.34,1.24a1.8,1.8,0,0,1,1.1,1.86,2.06,2.06,0,0,1-1.71,1.8c-1.06.24-2.3,0-2.5-1.21-.15-.89.33-3.09,1.67-2.39.73.38,1.38-.72.65-1.11Z" transform="translate(0 -107.13)"/><path class="cls-1" d="M373.89,125.9h8.48a.64.64,0,0,0,0-1.28h-8.48a.64.64,0,0,0,0,1.28Z" transform="translate(0 -107.13)"/><path class="cls-1" d="M373.89,128.79l8-.3c.82,0,.83-1.31,0-1.28l-8,.3C373.07,127.54,373.06,128.82,373.89,128.79Z" transform="translate(0 -107.13)"/><path class="cls-1" d="M373.89,131.23h7.75a.64.64,0,0,0,0-1.28h-7.75a.64.64,0,0,0,0,1.28Z" transform="translate(0 -107.13)"/><path class="cls-1" d="M399.58,125.3c-1.74-.91-3.32.59-3.56,2.29a3.82,3.82,0,0,0,.39,2.68,3.36,3.36,0,0,0,2.45,1.08,3.6,3.6,0,0,0,3.82-2.52,3.14,3.14,0,0,0-2-3.72c-.78-.27-1.12,1-.34,1.24a1.8,1.8,0,0,1,1.1,1.86,2.06,2.06,0,0,1-1.71,1.8c-1.06.24-2.3,0-2.5-1.21-.15-.89.33-3.09,1.67-2.39.73.38,1.38-.72.65-1.11Z" transform="translate(0 -107.13)"/><path class="cls-1" d="M291.41,138.26q14,.15,27.95-.86l-.62-.81c-1.52,3.86-1.48,7.93-1.28,12a15.19,15.19,0,0,1,.16,3.42c-.26,1.27-1.41,1-2.54,1q-3.76.12-7.52.17-3.55.05-7.1,0l-3.34,0c-1.31,0-2.8.37-3.13-1.15a16.22,16.22,0,0,1,0-3.25v-11a.64.64,0,0,0-1.28,0v13a7.2,7.2,0,0,0,.13,2.54c.69,1.76,3.68,1.1,5.12,1.11q4.39,0,8.78,0t8.77-.2c1.26,0,3,.24,3.38-1.31a13.55,13.55,0,0,0-.1-3.62c-.07-1.27-.14-2.54-.15-3.81a22.29,22.29,0,0,1,1.35-8.63.64.64,0,0,0-.45-.79l-.16,0q-14,1-27.95.86a.64.64,0,0,0,0,1.28Z" transform="translate(0 -107.13)"/><path class="cls-1" d="M294.07,139a94.06,94.06,0,0,1,11.65,5c3.38,1.75,7.8,3.65,10.13,6.77.49.65,1.6,0,1.11-.65-2.37-3.19-6.46-5.06-9.89-6.87a96.32,96.32,0,0,0-12.65-5.52c-.78-.28-1.11,1-.34,1.24Z" transform="translate(0 -107.13)"/><path class="cls-1" d="M319.14,136.67c-4.24,1.81-7.82,5.3-11.61,7.89q-6.15,4.2-12.66,7.82c-.72.4-.07,1.51.65,1.11q6.5-3.63,12.66-7.82c3.78-2.59,7.38-6.08,11.61-7.89.76-.32.1-1.43-.65-1.11Z" transform="translate(0 -107.13)"/><path class="cls-1" d="M375.59,138.26q14,.15,27.95-.86l-.62-.81c-1.52,3.86-1.48,7.93-1.28,12a15.19,15.19,0,0,1,.16,3.42c-.26,1.27-1.41,1-2.54,1q-3.76.12-7.52.17-3.55.05-7.1,0l-3.34,0c-1.31,0-2.8.37-3.13-1.15a16.22,16.22,0,0,1,0-3.25v-11a.64.64,0,0,0-1.28,0v13a7.2,7.2,0,0,0,.13,2.54c.69,1.76,3.68,1.1,5.12,1.11q4.39,0,8.78,0t8.77-.2c1.26,0,3,.24,3.38-1.31a13.55,13.55,0,0,0-.1-3.62c-.07-1.27-.14-2.54-.15-3.81a22.29,22.29,0,0,1,1.35-8.63.64.64,0,0,0-.45-.79l-.16,0q-14,1-27.95.86a.64.64,0,0,0,0,1.28Z" transform="translate(0 -107.13)"/><path class="cls-1" d="M378.24,139a94.06,94.06,0,0,1,11.65,5c3.38,1.75,7.8,3.65,10.13,6.77.49.65,1.6,0,1.11-.65-2.37-3.19-6.46-5.06-9.89-6.87a96.32,96.32,0,0,0-12.65-5.52c-.78-.28-1.11,1-.34,1.24Z" transform="translate(0 -107.13)"/><path class="cls-1" d="M403.32,136.67c-4.24,1.81-7.82,5.3-11.61,7.89q-6.15,4.2-12.66,7.82c-.72.4-.07,1.51.65,1.11q6.5-3.63,12.66-7.82c3.78-2.59,7.38-6.08,11.61-7.89.76-.32.1-1.43-.65-1.11Z" transform="translate(0 -107.13)"/><path class="cls-1" d="M375.59,163.9q14,.15,27.95-.86l-.62-.81c-1.52,3.86-1.48,7.93-1.28,12a15.19,15.19,0,0,1,.16,3.42c-.26,1.27-1.41,1-2.54,1q-3.76.12-7.52.17-3.55.05-7.1,0l-3.34,0c-1.31,0-2.8.37-3.13-1.15a16.22,16.22,0,0,1,0-3.25v-11a.64.64,0,0,0-1.28,0v13A7.2,7.2,0,0,0,377,179c.69,1.76,3.68,1.1,5.12,1.11q4.39,0,8.78,0t8.77-.2c1.26,0,3,.24,3.38-1.31A13.55,13.55,0,0,0,403,175c-.07-1.27-.14-2.54-.15-3.81a22.29,22.29,0,0,1,1.35-8.63.64.64,0,0,0-.45-.79l-.16,0q-14,1-27.95.86a.64.64,0,0,0,0,1.28Z" transform="translate(0 -107.13)"/><path class="cls-1" d="M378.24,164.59a94.06,94.06,0,0,1,11.65,5c3.38,1.75,7.8,3.65,10.13,6.77.49.65,1.6,0,1.11-.65-2.37-3.19-6.46-5.06-9.89-6.87a96.32,96.32,0,0,0-12.65-5.52C377.81,163.08,377.47,164.32,378.24,164.59Z" transform="translate(0 -107.13)"/><path class="cls-1" d="M403.32,162.31c-4.24,1.81-7.82,5.3-11.61,7.89Q385.56,174.4,379,178c-.72.4-.07,1.51.65,1.11q6.5-3.63,12.66-7.82c3.78-2.59,7.38-6.08,11.61-7.89C404.72,163.09,404.07,162,403.32,162.31Z" transform="translate(0 -107.13)"/><path class="cls-1" d="M293.83,162.93q13,.2,25.92-.1a.64.64,0,0,0,0-1.28q-13,.3-25.92.1a.64.64,0,0,0,0,1.28Z" transform="translate(0 -107.13)"/><path class="cls-1" d="M294.56,168.74q13.32.21,26.65-.11a.64.64,0,0,0,0-1.28q-13.32.33-26.65.11A.64.64,0,0,0,294.56,168.74Z" transform="translate(0 -107.13)"/><path class="cls-1" d="M293.59,175l25.2-1.17c.82,0,.83-1.32,0-1.28l-25.2,1.17C292.76,173.77,292.76,175.06,293.59,175Z" transform="translate(0 -107.13)"/><path class="cls-1" d="M332.83,156.91h24a.64.64,0,0,0,0-1.28h-24a.64.64,0,0,0,0,1.28Z" transform="translate(0 -107.13)"/><path class="cls-1" d="M355.76,149.58l3.75,3.42a10.86,10.86,0,0,1,1.87,1.71c.55,1.06,0,.82-1,1.18a21.09,21.09,0,0,0-6.31,3.92c-.62.55.29,1.45.91.91a19.58,19.58,0,0,1,5.74-3.59c.76-.3,2.19-.47,2.55-1.37.44-1.1-1-1.92-1.62-2.52l-5-4.56c-.61-.56-1.52.35-.91.91Z" transform="translate(0 -107.13)"/><path class="cls-7" d="M297.56,199.62h17.65a61.73,61.73,0,0,0,0-21H297.56A37.86,37.86,0,0,1,297.56,199.62Z" transform="translate(0 -107.13)"/><path class="cls-7" d="M224.07,183.81h17.65a61.73,61.73,0,0,0,0-21H224.07A37.86,37.86,0,0,1,224.07,183.81Z" transform="translate(0 -107.13)"/><path class="cls-7" d="M335.59,137.66h17.65a61.73,61.73,0,0,0,0-21H335.59A37.86,37.86,0,0,1,335.59,137.66Z" transform="translate(0 -107.13)"/></svg>