<svg id="Layer_12" data-name="Layer 12" xmlns="http://www.w3.org/2000/svg" viewBox="0 0 428.44 343.26"><defs><style>.cls-1{fill:#f0f0f0;}.cls-2{fill:#2f2e41;}.cls-3{fill:#a0616a;}.cls-4{fill:#575a89;}.cls-5{opacity:0.1;}.cls-11,.cls-12,.cls-5{isolation:isolate;}.cls-6{fill:#f2f2f2;}.cls-12,.cls-7{fill:none;stroke-miterlimit:10;stroke-width:2px;}.cls-7{stroke:#3f3d56;}.cls-8{fill:#3f3d56;}.cls-9{fill:#e6e8ec;}.cls-10{fill:#fff;}.cls-11{fill:#ccc;}.cls-11,.cls-12{opacity:0.3;}.cls-12{stroke:tomato;}.cls-13{fill:tomato;}</style></defs><title>hero-banner-2</title><polygon class="cls-1" points="114.67 261.41 146.75 210.96 74.91 165.28 37.81 223.62 97.23 261.41 114.67 261.41"/><path class="cls-2" d="M351.67,101.79a1,1,0,0,1-1.15-.48c-.92-1.46.78-3.34.41-5-.3-1.35-1.83-2.15-2.14-3.5s.63-2.78,0-4a2.63,2.63,0,0,0-2.78-1c-1,.16-2,.62-3.08.68a15.09,15.09,0,0,1-4.1-.84c-1.37-.31-3-.19-3.84,1-1,1.47,0,3.53-.35,5.29-.29,1.4-1.46,2.56-1.48,4,0,.51,1.33.1,1.26.6s.56.06.06,0a1,1,0,0,1-.76-.9c-.06-.42-.85-.56-.84-1,0-1-1.77-.32-2.07-1.27a9.61,9.61,0,0,1,.39-6.7,13.42,13.42,0,0,0,1.14-2.73c.26-1.32-.15-2.73.28-4,.59-1.71,2.52-2.58,4.32-2.76s3.63.14,5.42-.12c1.6-.23,3.15-.93,4.77-.83a7.93,7.93,0,0,1,5,2.77,41.77,41.77,0,0,0,4,4.22,7.87,7.87,0,0,1,1.29,1.11,4.32,4.32,0,0,1,.64,3.5c-.22,1.21-.69,2.36-.89,3.57s-.13,2.3-.21,3.45a6.06,6.06,0,0,1-1,3.25,3.07,3.07,0,0,1-2.39,1.25c-.32,0-.6-.28-.92-.21S352,101.63,351.67,101.79Z" transform="translate(3 -28)"/><polygon class="cls-3" points="368.51 157.31 367.31 164.68 364.91 161.42 366.28 156.45 368.51 157.31"/><path class="cls-4" d="M364,129.62l1.89,5s1.88,25.35,1.88,27.24-1.37,26-1.88,27.07c0,0-2.23-3.26-5.14-2.74S359,177.6,359,177.6l-2.74-22.45.51-11.31Z" transform="translate(3 -28)"/><path class="cls-5" d="M364,129.62l1.89,5s1.88,25.35,1.88,27.24-1.37,26-1.88,27.07c0,0-2.23-3.26-5.14-2.74S359,177.6,359,177.6l-2.74-22.45.51-11.31Z" transform="translate(3 -28)"/><path class="cls-3" d="M352.31,102.2s-5.65,14.39-2.4,17.14-18.16-4.63-18.16-4.63l.51-1.88s7-2.74,3.6-10.62S352.31,102.2,352.31,102.2Z" transform="translate(3 -28)"/><path class="cls-5" d="M352.31,102.2s-5.65,14.39-2.4,17.14-18.16-4.63-18.16-4.63l.51-1.88s7-2.74,3.6-10.62S352.31,102.2,352.31,102.2Z" transform="translate(3 -28)"/><path class="cls-4" d="M361.23,294.46s2.4-.69,3.77,1a76.17,76.17,0,0,0,6.51,6s9.94-1,11.31,3.94-15.59,5-19.71,3.77-5,0-5,0-12.68,1-12.68-1,1.2-9.08,1.2-9.08Z" transform="translate(3 -28)"/><path class="cls-4" d="M321,305.94l2.23,6.85s6.68,9.25,2.91,11.14S309,327.7,309,322.74v-9.42s1.37-6.68,2.74-7.37S321,305.94,321,305.94Z" transform="translate(3 -28)"/><path class="cls-2" d="M358.8,182.8s7.22,6.28,7.05,7.13-3.6,55.86-3.6,55.86l-1.88,35.64s2.4,8.4,1.2,10.28,1.71,2.4,1.71,2.4-12.34,11.14-17.48,6.34l-4.8-62.2-13.19,45.24s-2.23,24-4.8,24-13,.51-12.85-.86-.51-11.82.69-18,9.25-55,9.25-55,.69-41.87-1.11-45.78.94-8,.94-8l12-4.63,14.39,1.71Z" transform="translate(3 -28)"/><circle class="cls-3" cx="347.26" cy="68.03" r="11.99"/><path class="cls-4" d="M315.13,121.91a10.76,10.76,0,0,1,7.54-6.85,66.46,66.46,0,0,0,10.11-3.43s12.17,5.83,14.57,5.83,2.4-1.54,2.4-1.54,6.17,6.51,9.42,7.2,8.05,8.74,6.34,13.19a24.86,24.86,0,0,1-5,7.71s.69,24-1.54,28.44c0,0,5.48,10.45.34,11.14s-24.85-1.71-28.27.69-9.77-.51-10.62,2.74S317.7,191,317.7,191s-2.91-4.63-1.2-7.37S315.13,121.91,315.13,121.91Z" transform="translate(3 -28)"/><path class="cls-3" d="M327.81,186.34l2.74,1.71s-2.91,10.11-4.11,10.45-4-8.64-4-8.64Z" transform="translate(3 -28)"/><path class="cls-2" d="M353.72,100.59a1,1,0,0,1-1.15-.48c-.92-1.46.78-3.34.41-5-.3-1.35-1.83-2.15-2.14-3.5s.63-2.78,0-4a2.63,2.63,0,0,0-2.78-1c-1,.16-2,.62-3.08.68a15.09,15.09,0,0,1-4.1-.84c-1.37-.31-3-.19-3.84,1-1,1.47,0,3.53-.35,5.29-.29,1.4-3.54,2.38-3.84,1.44a9.61,9.61,0,0,1,.39-6.7,13.42,13.42,0,0,0,1.14-2.73c.26-1.32-.15-2.73.28-4C335.26,79,337.2,78.16,339,78s3.63.14,5.42-.12c1.6-.23,3.15-.93,4.77-.83a7.93,7.93,0,0,1,5,2.77,41.77,41.77,0,0,0,4,4.22,7.87,7.87,0,0,1,1.29,1.11,4.32,4.32,0,0,1,.64,3.5c-.22,1.21-.69,2.36-.89,3.57s-.13,2.3-.21,3.45a6.06,6.06,0,0,1-1,3.25,3.07,3.07,0,0,1-2.39,1.25c-.32,0-.6-.28-.92-.21S354.09,100.43,353.72,100.59Z" transform="translate(3 -28)"/><path class="cls-5" d="M321.9,124.91l-5.57-3S302.79,154.12,306,163s15.76,27.25,15.76,27.25,9.94-2.06,8.91-4.11-7.71-15.25-8.23-17-3.94-12.85-2.4-14.05,4.54-29,4.54-29Z" transform="translate(3 -28)"/><path class="cls-4" d="M322,120l-6.85,1.88S301.59,154.12,304.85,163s15.76,27.25,15.76,27.25,9.94-2.06,8.91-4.11-7.71-15.25-8.23-17-3.94-12.85-2.4-14.05,8.91-30.84,8.91-30.84Z" transform="translate(3 -28)"/><rect class="cls-1" x="263.03" y="94.27" width="26.83" height="26.83" transform="translate(31.61 242.77) rotate(-54.63)"/><ellipse class="cls-6" cx="105.25" cy="337.06" rx="94.23" ry="6.2"/><ellipse class="cls-6" cx="334.21" cy="311.48" rx="94.23" ry="6.2"/><line class="cls-7" x1="11.01" y1="299.07" x2="332.93" y2="299.11"/><circle class="cls-7" cx="296.35" cy="115.9" r="5.68"/><rect class="cls-7" x="67.77" y="34.38" width="12.38" height="12.38"/><rect class="cls-7" x="83.77" y="207.23" width="12.38" height="12.38"/><line class="cls-7" x1="16.68" y1="300.05" x2="16.68" y2="261.65"/><circle class="cls-8" cx="16.68" cy="261.65" r="5.43"/><path class="cls-8" d="M13.68,313.31S12.9,296.63-3,298.57" transform="translate(3 -28)"/><rect class="cls-8" x="260.65" y="67.84" width="4.4" height="36.25" rx="1.18" ry="1.18"/><rect class="cls-8" x="114.48" y="39.44" width="2.47" height="11.93" rx="0.78" ry="0.78"/><rect class="cls-8" x="114.39" y="61.29" width="2.78" height="20.77" rx="0.87" ry="0.87"/><rect class="cls-8" x="114.43" y="89.33" width="2.65" height="20.95" rx="0.83" ry="0.83"/><rect class="cls-8" x="115.87" width="147.15" height="299.05" rx="18.42" ry="18.42"/><rect class="cls-9" x="175.25" y="8.93" width="20.55" height="4.17" rx="1.31" ry="1.31"/><circle class="cls-9" cx="201.27" cy="11.02" r="2.37"/><path class="cls-10" d="M250.93,47.48v260.1a11.69,11.69,0,0,1-11.69,11.68H133.65A11.69,11.69,0,0,1,122,307.58V47.48a11.69,11.69,0,0,1,11.69-11.69h15.8v2a9.63,9.63,0,0,0,9.62,9.62h53.7a9.62,9.62,0,0,0,9.62-9.62v-2h16.85a11.69,11.69,0,0,1,11.69,11.69Z" transform="translate(3 -28)"/><rect class="cls-11" x="124.86" y="51.39" width="129.19" height="88.69"/><rect class="cls-11" x="124.86" y="169.07" width="129.19" height="88.69"/><line class="cls-12" x1="124.86" y1="51.39" x2="254.05" y2="140.08"/><line class="cls-12" x1="254.05" y1="51.39" x2="124.86" y2="140.08"/><line class="cls-12" x1="124.86" y1="169.07" x2="254.05" y2="257.76"/><line class="cls-12" x1="254.05" y1="169.07" x2="124.86" y2="257.76"/><rect class="cls-13" x="274.52" y="222.79" width="129.19" height="88.69"/><polygon class="cls-8" points="403.71 311.48 376.33 257.99 367.04 283.34 334.21 235.16 312.47 265 301.89 252.27 274.52 286.12 274.52 311.48 403.71 311.48"/><circle class="cls-8" cx="387.94" cy="243.26" r="9.38"/><rect class="cls-13" x="37.88" y="247.52" width="129.19" height="88.69"/><rect class="cls-8" x="48.32" y="267.14" width="108.3" height="5.12"/><rect class="cls-8" x="48.32" y="278.22" width="108.3" height="5.12"/><rect class="cls-8" x="48.32" y="289.31" width="108.3" height="5.12"/><rect class="cls-8" x="48.32" y="300.39" width="108.3" height="5.12"/><rect class="cls-8" x="48.32" y="311.48" width="108.3" height="5.12"/></svg>