<svg id="Layer_1" data-name="Layer 1" xmlns="http://www.w3.org/2000/svg" viewBox="0 0 4239 534.76">
  <defs>
    <style>
      .cls-1 {
        font-size: 303.79px;
        font-family: Neuropa-Bold, Neuropa;
        font-weight: 700;
      }

      .cls-2 {
        letter-spacing: -0.01em;
      }

      .cls-3 {
        fill: #f15a24;
      }
    </style>
  </defs>
  <title>logo-dark</title>
  <g>
    <text class="cls-1" transform="translate(901.67 429.35)">Jubila<tspan class="cls-2" x="1099.38" y="0">n</tspan><tspan x="1332.99" y="0">t Solutions</tspan></text>
    <circle class="cls-3" cx="450.32" cy="56.96" r="56.96"/>
    <g>
      <path class="cls-3" d="M466.37,287.31a62.92,62.92,0,1,0-64.86,88.91c-10.57,1.33-21.88-.28-47-13.91C315.35,341,339,261.48,339,261.48S290,237,195.93,260.66,31.6,253.3,37.33,256.57,88.83,360.41,155.06,399.65,285.87,416,285.87,416s-47.42,36-121,32.71c0,0,63.77,75.21,181.5,45,0,0-1.63,24.53-47.42,48.23,0,0,78.49,40.88,142.26-33.52,46.28-54,44.69-189.68,25.16-221.09Z" transform="translate(-37 -125.78)"/>
      <path class="cls-3" d="M779.07,260.67C685,237,636,261.49,636,261.49S659.65,341,620.45,362.32c-25.07,13.63-36.38,15.24-47,13.91a62.93,62.93,0,1,0-64.86-88.91h0C489.1,318.72,487.51,454.4,533.79,508.4c63.77,74.4,142.26,33.52,142.26,33.52-45.78-23.71-47.42-48.23-47.42-48.23,117.73,30.25,181.5-45,181.5-45-73.58,3.27-121-32.71-121-32.71s64.59,22.9,130.82-16.35,112-139.81,117.73-143.08S873.09,284.38,779.07,260.67Z" transform="translate(-37 -125.78)"/>
    </g>
  </g>
</svg>
