<?xml version="1.0" encoding="utf-8"?>
<!-- Generator: Adobe Illustrator 16.0.0, SVG Export Plug-In . SVG Version: 6.00 Build 0)  -->
<!DOCTYPE svg PUBLIC "-//W3C//DTD SVG 1.1//EN" "http://www.w3.org/Graphics/SVG/1.1/DTD/svg11.dtd">
<svg version="1.1" id="Layer_1" xmlns="http://www.w3.org/2000/svg" xmlns:xlink="http://www.w3.org/1999/xlink" x="0px" y="0px"
	 width="72px" height="72px" viewBox="0 0 72 72" style="enable-background:new 0 0 72 72;" xml:space="preserve">
<style type="text/css">
<![CDATA[
	.st0{fill:url(#SVGID_1_);}
]]>
</style>
<g>
	<linearGradient id="SVGID_1_" gradientUnits="userSpaceOnUse" x1="37.835" y1="49.5273" x2="55.5732" y2="24.5555">
		<stop  offset="0" style="stop-color:#1988C5"/>
		<stop  offset="1" style="stop-color:#32E37F"/>
	</linearGradient>
	<path class="st0" d="M58.6,51.8l-10.1-3c-0.1-0.1-0.2-0.1-0.3-0.2l-2.8-5.4c-0.1-0.2-0.3-0.4-0.6-0.5c-0.1,0-0.2,0-0.3,0v-4.2
		c0.7-0.7,1.4-1.4,2.1-2.3c1.1-1.4,1.9-2.9,2.5-4.5c0.9-0.6,1.8-1.3,2.6-2.1l-0.2-0.2c2.2-0.2,4.2-1.4,4.2-3.6v-2.4
		c0-1.7-1.3-2.9-3.3-3.2c0.1-0.1,0.1-0.3,0.1-0.5C52.5,11.6,46,5,37.9,5h-2c-8.1,0-14.7,6.6-14.7,14.7c0,0.2,0.1,0.3,0.2,0.5
		c-2,0.4-3.2,1.5-3.2,3.2v2.4c0,2.4,2.3,3.7,4.6,3.7h0.1c0.5,0,0.9-0.4,0.9-0.9v-1.7c0,4.1,2.5,8.8,5.6,11.6c0,0.1,0,0.2,0,0.2
		c0,0.1,0,0.1,0,0.2c0,0,0,0.1,0,0.1v3.7c-0.2,0-0.3-0.1-0.5,0c-0.3,0.1-0.5,0.2-0.6,0.5l-3,5.5l-11,3.1C7.5,53.8,5,56.9,5,63.3v2.7
		C5,66.6,5.4,67,5.9,67h60.1c0.5,0,0.9-0.4,0.9-0.9v-2.7C67,56.4,65,53.6,58.6,51.8z M50.1,26.8v1.6c0,0,0,0.1,0,0.1c0,0,0,0,0,0
		c-0.1,0.1-0.1,0.1-0.2,0.2C50,28,50.1,27.4,50.1,26.8z M53.8,23.4v2.4c0,1-0.9,1.5-1.9,1.7V22C52.8,22.1,53.8,22.4,53.8,23.4z
		 M21.9,27.5C21,27.3,20,26.8,20,25.8v-2.4c0-1,1-1.3,1.9-1.4V27.5z M23.8,21c0-0.4-0.4-0.8-0.8-0.9c0.1-0.1,0.1-0.3,0.1-0.4
		c0-7.1,5.7-12.8,12.8-12.8h2c7.1,0,12.8,5.7,12.8,12.8c0,0.1,0,0.3,0.1,0.4c-0.4,0.1-0.7,0.4-0.7,0.9v-0.1c0-6.7-5.4-12-12.3-12
		c0,0-0.1,0-0.1,0h0h-1.6c-5.3,0-9.6,3-11.4,7.4c-0.5,1.1-0.9,2.3-1,3.6c0,0.2,0,0.4,0.1,0.6c0,0.2,0,0.3,0,0.5V21L23.8,21z
		 M25.7,26.8v-6c0-0.1,0-0.2,0-0.3c2.1-0.7,3.9-1.6,5.5-2.9c3.3,2.7,7.5,4.3,11.7,4.3h1.6c0.5,0,0.9-0.4,0.9-0.9
		c0-0.5-0.4-0.9-0.9-0.9h-1.6c-3.9,0-7.9-1.6-11-4.3c-0.4-0.3-0.9-0.3-1.3,0c-1.3,1.1-2.8,2.1-4.6,2.7c0.1-0.6,0.4-1.3,0.6-1.9
		c1.5-3,4.3-5.1,7.6-5.7c0.6-0.1,1.2-0.2,1.9-0.2h1.6c0,0,0,0,0.1,0c5.2,0,9.6,4.2,10.2,9.7c0,0.2,0.1,0.4,0.2,0.5v5.9
		c0,1.1-0.3,2.4-0.7,3.6c-1.6,0.9-3.4,1.4-5.3,1.6c-0.5-0.8-1.4-1.4-2.4-1.4h-1.9c-1.6,0-2.8,1.3-2.8,2.8c0,1.6,1.3,2.8,2.8,2.8h1.9
		c1.4,0,2.5-1,2.8-2.4c1.3-0.1,2.6-0.4,3.8-0.8c-0.4,0.7-0.8,1.4-1.3,2c-1.9,2.5-4.2,4.1-6,4.1c-0.4,0-0.7-0.1-1-0.2
		c-0.1,0-0.2-0.1-0.4-0.1h-1.6c-0.1,0-0.2,0-0.4,0.1c-0.3,0.1-0.7,0.2-1,0.2C30.8,39.1,25.7,32.1,25.7,26.8z M40.7,33.4
		c0,0.5-0.4,0.9-0.9,0.9h-1.9c-0.5,0-0.9-0.4-0.9-0.9s0.4-0.9,0.9-0.9h1.9C40.3,32.4,40.7,32.9,40.7,33.4z M34.7,41
		c0.5,0,1.1-0.1,1.6-0.3h1.3c0.5,0.2,1,0.3,1.6,0.3c0,0,0,0,0,0c1.1,0,2.3-0.4,3.5-1.1v3.7c-1.9,0.8-4.4,1.3-5.6,1.4
		c-1.4-0.1-3.7-0.6-5.6-1.3v-3.8C32.4,40.5,33.6,41,34.7,41z M29.5,44.9C29.5,44.9,29.5,44.9,29.5,44.9c0.2,0.3,0.5,0.5,0.8,0.5
		c0.1,0,0.1,0,0.2,0c2.2,0.9,4.9,1.3,6.4,1.5c1.4-0.1,4-0.6,6.3-1.5c0.1,0,0.2,0.1,0.3,0.1c0.3,0,0.5-0.1,0.7-0.3l2.3,4.4l-4.3,3.7
		l-4.6-5.4c-0.2-0.2-0.4-0.3-0.7-0.3c-0.3,0-0.5,0.1-0.7,0.3l-4.6,5.4l-4.4-3.9L29.5,44.9z M35.9,57.6h2l1,7.5h-4.1L35.9,57.6z
		 M39.1,52.8l-1,2.9h-2.3l-1-2.9c0-0.1-0.1-0.2-0.2-0.3l2.3-2.8l2.3,2.8C39.2,52.6,39.1,52.7,39.1,52.8z M6.9,63.3
		c0-5.6,1.9-8,8-9.8l10.9-3.1l5.4,4.7c0.2,0.2,0.4,0.2,0.6,0.2c0,0,0,0,0.1,0c0.3,0,0.5-0.1,0.6-0.3l0.8-1l0.9,2.6L33,65.1H6.9V63.3
		z M65.1,65.1H40.8l-1.2-8.4l0.9-2.6l0.8,1c0.2,0.2,0.4,0.3,0.6,0.3c0.3,0,0.5-0.1,0.7-0.2l5.3-4.6l10,3c5.6,1.6,7.1,3.7,7.1,9.8
		V65.1z"/>
</g>
</svg>
