<?xml version="1.0" encoding="utf-8"?>
<!-- Generator: Adobe Illustrator 16.0.0, SVG Export Plug-In . SVG Version: 6.00 Build 0)  -->
<!DOCTYPE svg PUBLIC "-//W3C//DTD SVG 1.1//EN" "http://www.w3.org/Graphics/SVG/1.1/DTD/svg11.dtd">
<svg version="1.1" id="Layer_1" xmlns="http://www.w3.org/2000/svg" xmlns:xlink="http://www.w3.org/1999/xlink" x="0px" y="0px"
	 width="72px" height="72px" viewBox="220 220 72 72" enable-background="new 220 220 72 72" xml:space="preserve">
<g>
	<linearGradient id="SVGID_1_" gradientUnits="userSpaceOnUse" x1="248.8496" y1="263.041" x2="258.0996" y2="228.041">
		<stop  offset="0" style="stop-color:#1988C5"/>
		<stop  offset="1" style="stop-color:#32E37F"/>
	</linearGradient>
	<circle fill="url(#SVGID_1_)" cx="257.191" cy="231.476" r="0.715"/>
	<linearGradient id="SVGID_2_" gradientUnits="userSpaceOnUse" x1="260.4697" y1="266.1113" x2="269.7197" y2="231.1113">
		<stop  offset="0" style="stop-color:#1988C5"/>
		<stop  offset="1" style="stop-color:#32E37F"/>
	</linearGradient>
	<path fill="url(#SVGID_2_)" d="M276.238,226h-26.19c-3.02,0-5.477,2.457-5.477,5.476v49.048c0,3.019,2.457,5.476,5.477,5.476h26.19
		c3.02,0,5.476-2.457,5.476-5.476v-49.048C281.714,228.457,279.258,226,276.238,226z M280.054,281.873
		c-0.572,1.614-2.106,2.698-3.815,2.698h-26.19c-1.71,0-3.243-1.084-3.816-2.698l-0.226-0.635h0.674h32.924h0.674L280.054,281.873z
		 M280.285,237.429v41.905v0.476h-0.476h-33.333H246v-0.476v-41.905v-0.476h0.476h33.333h0.476V237.429z M280.285,235.048v0.476
		h-0.476h-33.333H246v-0.476v-3.572c0-2.231,1.816-4.048,4.048-4.048h26.19c2.231,0,4.047,1.816,4.047,4.048V235.048z"/>
	<linearGradient id="SVGID_3_" gradientUnits="userSpaceOnUse" x1="256.6387" y1="265.0996" x2="265.8887" y2="230.0996">
		<stop  offset="0" style="stop-color:#1988C5"/>
		<stop  offset="1" style="stop-color:#32E37F"/>
	</linearGradient>
	<path fill="url(#SVGID_3_)" d="M261.952,230.762c-0.394,0-0.714,0.32-0.714,0.714s0.32,0.714,0.714,0.714h7.143
		c0.395,0,0.715-0.32,0.715-0.714s-0.32-0.714-0.715-0.714H261.952z"/>
	<linearGradient id="SVGID_4_" gradientUnits="userSpaceOnUse" x1="234.0977" y1="259.1426" x2="243.3477" y2="224.1426">
		<stop  offset="0" style="stop-color:#1988C5"/>
		<stop  offset="1" style="stop-color:#32E37F"/>
	</linearGradient>
	<path fill="url(#SVGID_4_)" d="M238.857,233.857c0-0.11-0.026-0.221-0.075-0.319l-3.571-7.143
		c-0.122-0.243-0.367-0.395-0.639-0.395s-0.517,0.151-0.639,0.395l-3.571,7.143c-0.049,0.099-0.075,0.21-0.075,0.319v46.667
		c0,1.706,1.389,3.095,3.096,3.095h0.476v0.476v1.191c0,0.394,0.321,0.714,0.714,0.714c0.394,0,0.714-0.32,0.714-0.714v-1.191
		v-0.476h0.476c1.707,0,3.095-1.389,3.095-3.095V233.857z M237.429,276.952v3.572c0,0.919-0.748,1.666-1.667,1.666h-2.38
		c-0.919,0-1.667-0.747-1.667-1.666v-3.572v-0.477h0.476h4.762h0.476V276.952z M237.429,237.429v37.143v0.477h-0.476h-4.762h-0.476
		v-0.477v-37.143v-0.476h0.476h4.762h0.476V237.429z M237.429,234.138v0.91v0.476h-0.476h-4.762h-0.476v-0.476v-0.91v-0.112
		l0.05-0.101l2.381-4.762l0.426-0.852l0.426,0.852l2.381,4.762l0.05,0.101V234.138z"/>
	<linearGradient id="SVGID_5_" gradientUnits="userSpaceOnUse" x1="262.082" y1="266.5381" x2="271.332" y2="231.5381">
		<stop  offset="0" style="stop-color:#1988C5"/>
		<stop  offset="1" style="stop-color:#32E37F"/>
	</linearGradient>
	<path fill="url(#SVGID_5_)" d="M259.571,273.381c2.531,0,4.963-0.936,6.847-2.633c1.87-1.686,3.052-3.982,3.328-6.467l0.047-0.424
		h0.426h6.02c0.394,0,0.714-0.32,0.714-0.715v-16.667c0-0.394-0.32-0.714-0.714-0.714h-16.667c-0.394,0-0.715,0.32-0.715,0.714
		v6.019v0.426l-0.423,0.047c-2.485,0.276-4.782,1.458-6.467,3.328c-1.698,1.883-2.633,4.315-2.633,6.846
		C249.333,268.788,253.926,273.381,259.571,273.381z M260.286,252.495v-4.829v-0.476h0.476h14.286h0.476v0.476v14.286v0.477h-0.476
		h-4.829h-0.426l-0.047-0.424c-0.255-2.291-1.298-4.456-2.938-6.097c-1.642-1.641-3.808-2.685-6.099-2.939l-0.423-0.047V252.495z
		 M260.286,261.952v-7.056v-0.55l0.544,0.079c3.84,0.552,6.908,3.619,7.46,7.46l0.077,0.544h-0.549h-7.057h-0.476V261.952z
		 M258.313,254.425l0.543-0.079v0.55v8.247c0,0.395,0.321,0.715,0.715,0.715h8.247h0.549l-0.077,0.544
		c-0.619,4.305-4.367,7.551-8.719,7.551c-4.857,0-8.81-3.951-8.81-8.81C250.762,258.791,254.008,255.043,258.313,254.425z"/>
</g>
</svg>
