<?xml version="1.0" encoding="utf-8"?>
<!-- Generator: Adobe Illustrator 16.0.0, SVG Export Plug-In . SVG Version: 6.00 Build 0)  -->
<!DOCTYPE svg PUBLIC "-//W3C//DTD SVG 1.1//EN" "http://www.w3.org/Graphics/SVG/1.1/DTD/svg11.dtd">
<svg version="1.1" id="Layer_1" xmlns="http://www.w3.org/2000/svg" xmlns:xlink="http://www.w3.org/1999/xlink" x="0px" y="0px"
	 width="72px" height="72px" viewBox="0 0 72 72" enable-background="new 0 0 72 72" xml:space="preserve">
<g>
	<linearGradient id="SVGID_1_" gradientUnits="userSpaceOnUse" x1="12.5464" y1="54.1729" x2="21.7964" y2="10.4229">
		<stop  offset="0" style="stop-color:#1988C5"/>
		<stop  offset="1" style="stop-color:#32E37F"/>
	</linearGradient>
	<path fill="url(#SVGID_1_)" d="M16.853,43.233c0-0.533-0.208-1.034-0.584-1.409c-0.753-0.754-2.066-0.754-2.82,0
		c-0.776,0.776-0.778,2.041,0,2.82c0.378,0.376,0.879,0.583,1.411,0.583c0.533,0,1.033-0.207,1.411-0.583
		C16.646,44.268,16.853,43.767,16.853,43.233z M15.74,44.115c-0.471,0.473-1.293,0.471-1.764,0c-0.486-0.485-0.486-1.276,0-1.762
		c0.236-0.236,0.549-0.365,0.882-0.365c0.332,0,0.645,0.129,0.88,0.365c0.236,0.234,0.366,0.549,0.366,0.882
		C16.105,43.566,15.976,43.881,15.74,44.115z"/>
	<linearGradient id="SVGID_2_" gradientUnits="userSpaceOnUse" x1="21.8892" y1="56.1484" x2="31.1392" y2="12.3984">
		<stop  offset="0" style="stop-color:#1988C5"/>
		<stop  offset="1" style="stop-color:#32E37F"/>
	</linearGradient>
	<path fill="url(#SVGID_2_)" d="M27.996,52.87l10.509-10.51c0.219-0.219,0.219-0.574,0-0.793l-4.715-4.716
		c-0.21-0.209-0.583-0.209-0.793,0L22.785,47.065l-1.187-1.323c-0.003-0.004-0.009-0.005-0.013-0.009s-0.004-0.011-0.008-0.013
		l-2.372-2.372c0.004-1.095-0.409-2.189-1.241-3.021c-1.524-1.525-7.354-2.537-8.013-2.647c-0.179-0.034-0.361,0.029-0.49,0.157
		c-0.127,0.128-0.187,0.31-0.156,0.488c0.11,0.66,1.124,6.488,2.648,8.013c0.803,0.804,1.87,1.245,3.005,1.245
		c0.005,0,0.011-0.001,0.017-0.001l2.371,2.369c0.003,0.004,0.01,0.005,0.014,0.009c0.003,0.004,0.005,0.009,0.009,0.012
		l1.324,1.189l-4.951,4.949H13.74c0,0,0,0.001,0,0.001l-1.469,1.47h0l0,0L9.331,60.52c-0.218,0.221-0.218,0.576,0,0.794l3.394,3.396
		c0,0,0,0,0.001,0l1.32,1.321c0.105,0.104,0.249,0.164,0.396,0.164c0.148,0,0.292-0.06,0.396-0.164l9.657-9.659l9.685,8.695
		c0.107,0.097,0.241,0.144,0.375,0.144c0.144,0,0.288-0.055,0.396-0.165l1.72-1.721c0.211-0.21,0.22-0.548,0.021-0.771L27.996,52.87
		z M24.424,47.013l1.179,1.179c0.11,0.109,0.253,0.165,0.397,0.165c0.144,0,0.287-0.055,0.396-0.165
		c0.218-0.218,0.218-0.573,0-0.794l-1.179-1.179l0.676-0.676l1.179,1.178c0.109,0.11,0.253,0.165,0.397,0.165
		c0.143,0,0.287-0.054,0.396-0.165c0.219-0.218,0.219-0.573,0-0.792l-1.179-1.18l0.676-0.676l2.997,2.997
		c0.109,0.109,0.253,0.165,0.396,0.165s0.287-0.056,0.396-0.165c0.219-0.221,0.219-0.575,0-0.793l-2.997-2.997l0.677-0.678
		l1.18,1.18c0.109,0.108,0.253,0.164,0.396,0.164s0.287-0.054,0.396-0.164c0.219-0.219,0.219-0.574,0-0.793l-1.181-1.18l0.677-0.676
		l1.179,1.179c0.109,0.109,0.253,0.165,0.396,0.165c0.144,0,0.287-0.055,0.397-0.165c0.219-0.218,0.219-0.574,0-0.792l-1.18-1.181
		l0.677-0.676l1.18,1.179c0.11,0.109,0.253,0.164,0.397,0.164c0.143,0,0.287-0.055,0.396-0.164c0.219-0.219,0.219-0.574,0-0.793
		l-1.18-1.18l0.828-0.828l3.921,3.922L27.245,52.033l-3.71-4.132L24.424,47.013z M10.554,38.93c2.042,0.394,5.678,1.252,6.616,2.191
		c1.22,1.22,1.22,3.205,0,4.426c-0.591,0.591-1.377,0.915-2.212,0.915c-0.835,0-1.621-0.324-2.212-0.915
		C11.807,44.607,10.947,40.971,10.554,38.93z M17.963,46.338c0.477-0.476,0.8-1.042,1.002-1.642l1.421,1.421l-2.646,2.645
		l-1.421-1.42C16.93,47.137,17.494,46.807,17.963,46.338z M14.44,64.839l-3.921-3.921l0.677-0.677l1.18,1.179
		c0.109,0.109,0.252,0.165,0.396,0.165s0.288-0.056,0.396-0.165c0.219-0.22,0.219-0.575,0-0.794l-1.18-1.179l0.676-0.677
		l1.179,1.179c0.109,0.11,0.253,0.165,0.396,0.165s0.288-0.054,0.396-0.165c0.219-0.218,0.219-0.573,0-0.792l-1.179-1.181
		l0.676-0.676l1.179,1.179c0.11,0.109,0.253,0.165,0.397,0.165c0.143,0,0.287-0.055,0.396-0.165c0.219-0.219,0.219-0.574,0-0.792
		l-1.179-1.181l0.677-0.676l2.557,2.557c-0.22-0.183-0.543-0.177-0.75,0.028l-2.578,2.578c-0.219,0.219-0.219,0.574,0,0.794
		c0.109,0.108,0.253,0.164,0.396,0.164s0.287-0.056,0.396-0.164l2.578-2.578c0.206-0.206,0.21-0.528,0.029-0.749l0.367,0.367
		c0.109,0.109,0.253,0.164,0.396,0.164c0.144,0,0.287-0.055,0.396-0.164c0.22-0.22,0.22-0.575,0-0.793l-2.997-2.997l0.677-0.678
		l1.178,1.18c0.109,0.108,0.253,0.165,0.396,0.165s0.287-0.055,0.396-0.165c0.219-0.219,0.219-0.573,0-0.794l-1.179-1.179
		l0.677-0.676l1.179,1.179c0.109,0.109,0.253,0.164,0.397,0.164c0.143,0,0.286-0.054,0.396-0.164c0.219-0.22,0.219-0.574,0-0.794
		l-1.18-1.179l0.188-0.188l4.133,3.71L14.44,64.839z M34.532,63.874l-15.976-14.34l2.602-2.602L35.5,62.908L34.532,63.874z"/>
	<linearGradient id="SVGID_3_" gradientUnits="userSpaceOnUse" x1="40.3604" y1="60.0537" x2="49.6104" y2="16.3037">
		<stop  offset="0" style="stop-color:#1988C5"/>
		<stop  offset="1" style="stop-color:#32E37F"/>
	</linearGradient>
	<path fill="url(#SVGID_3_)" d="M44.834,15.485c-0.18-0.109-0.405-0.109-0.585,0L24.291,27.731c-0.008,0.003-0.01,0.013-0.017,0.018
		c-0.07,0.045-0.132,0.104-0.176,0.181c0,0.001,0,0.002-0.001,0.004c-0.002,0.004-0.001,0.01-0.005,0.014
		c-0.039,0.076-0.058,0.154-0.062,0.235c0,0.009-0.006,0.016-0.006,0.025V40.36c0,0.309,0.251,0.562,0.561,0.562
		c0.31,0,0.561-0.253,0.561-0.562V29.177l19.119,10.924c0.086,0.048,0.183,0.073,0.277,0.073c0.098,0,0.195-0.025,0.283-0.076
		l7.534-4.388v22.629l-7.817,4.283l-9.373-5.135c-0.271-0.152-0.612-0.051-0.761,0.222c-0.148,0.271-0.049,0.612,0.222,0.762
		l9.642,5.283c0.084,0.047,0.176,0.07,0.269,0.07c0.094,0,0.186-0.023,0.269-0.07l19.959-10.938c0.18-0.098,0.291-0.286,0.291-0.49
		V28.209c0-0.195-0.1-0.375-0.267-0.478L44.834,15.485z M44.541,16.623l18.682,11.462l-6.669,3.883l-18.33-11.47L44.541,16.623z
		 M52.93,34.079L34.69,22.666l2.466-1.512L55.46,32.606L52.93,34.079z M44.538,38.966L25.685,28.193l7.937-4.871l18.213,11.395
		L44.538,38.966z M53.48,35.057l2.622-1.526v22.758l-2.622,1.437V35.057z M57.224,55.673V32.877l6.714-3.91v23.025L57.224,55.673z"
		/>
	<linearGradient id="SVGID_4_" gradientUnits="userSpaceOnUse" x1="55.3018" y1="63.2129" x2="64.5518" y2="19.4629">
		<stop  offset="0" style="stop-color:#1988C5"/>
		<stop  offset="1" style="stop-color:#32E37F"/>
	</linearGradient>
	<path fill="url(#SVGID_4_)" d="M65.916,21.337c-0.164-0.264-0.51-0.343-0.773-0.181l-3.099,1.922
		c-0.263,0.164-0.344,0.51-0.18,0.772c0.106,0.171,0.289,0.265,0.477,0.265c0.102,0,0.202-0.026,0.295-0.083l3.099-1.922
		C65.998,21.946,66.078,21.6,65.916,21.337z"/>
	<linearGradient id="SVGID_5_" gradientUnits="userSpaceOnUse" x1="46.9961" y1="61.4561" x2="56.2461" y2="17.7061">
		<stop  offset="0" style="stop-color:#1988C5"/>
		<stop  offset="1" style="stop-color:#32E37F"/>
	</linearGradient>
	<path fill="url(#SVGID_5_)" d="M55.743,16.723c0.164,0,0.329-0.074,0.439-0.213l2.263-2.858c0.193-0.243,0.152-0.596-0.091-0.789
		c-0.243-0.192-0.596-0.151-0.789,0.091l-2.263,2.859c-0.191,0.242-0.15,0.596,0.092,0.788
		C55.498,16.684,55.621,16.723,55.743,16.723z"/>
	<linearGradient id="SVGID_6_" gradientUnits="userSpaceOnUse" x1="37.3984" y1="59.4268" x2="46.6484" y2="15.6768">
		<stop  offset="0" style="stop-color:#1988C5"/>
		<stop  offset="1" style="stop-color:#32E37F"/>
	</linearGradient>
	<path fill="url(#SVGID_6_)" d="M47.114,12.08c0.061,0.02,0.121,0.029,0.183,0.029c0.232,0,0.449-0.146,0.529-0.379l1.18-3.447
		c0.101-0.294-0.057-0.612-0.349-0.712c-0.295-0.1-0.612,0.056-0.712,0.349l-1.182,3.448C46.665,11.66,46.821,11.979,47.114,12.08z"
		/>
	<linearGradient id="SVGID_7_" gradientUnits="userSpaceOnUse" x1="27.6274" y1="57.3613" x2="36.8774" y2="13.6113">
		<stop  offset="0" style="stop-color:#1988C5"/>
		<stop  offset="1" style="stop-color:#32E37F"/>
	</linearGradient>
	<path fill="url(#SVGID_7_)" d="M38.023,10.572c0.311,0,0.562-0.252,0.562-0.562V6.366c0-0.309-0.251-0.561-0.562-0.561
		c-0.31,0-0.561,0.251-0.561,0.561v3.645C37.463,10.32,37.714,10.572,38.023,10.572z"/>
	<linearGradient id="SVGID_8_" gradientUnits="userSpaceOnUse" x1="18.52" y1="55.4355" x2="27.77" y2="11.6855">
		<stop  offset="0" style="stop-color:#1988C5"/>
		<stop  offset="1" style="stop-color:#32E37F"/>
	</linearGradient>
	<path fill="url(#SVGID_8_)" d="M28.222,11.73c0.08,0.233,0.297,0.38,0.53,0.38c0.06,0,0.121-0.01,0.182-0.03
		c0.293-0.101,0.449-0.42,0.349-0.711l-1.179-3.45c-0.1-0.293-0.418-0.452-0.712-0.35c-0.293,0.102-0.449,0.42-0.349,0.711
		L28.222,11.73z"/>
	<linearGradient id="SVGID_9_" gradientUnits="userSpaceOnUse" x1="10.9067" y1="53.8262" x2="20.1567" y2="10.0762">
		<stop  offset="0" style="stop-color:#1988C5"/>
		<stop  offset="1" style="stop-color:#32E37F"/>
	</linearGradient>
	<path fill="url(#SVGID_9_)" d="M19.865,16.51c0.11,0.139,0.274,0.211,0.439,0.211c0.123,0,0.246-0.039,0.348-0.12
		c0.243-0.193,0.283-0.545,0.091-0.789l-2.264-2.858c-0.192-0.242-0.546-0.284-0.788-0.091c-0.243,0.193-0.283,0.545-0.091,0.789
		L19.865,16.51z"/>
	<linearGradient id="SVGID_10_" gradientUnits="userSpaceOnUse" x1="5.7837" y1="52.7432" x2="15.0337" y2="8.9932">
		<stop  offset="0" style="stop-color:#1988C5"/>
		<stop  offset="1" style="stop-color:#32E37F"/>
	</linearGradient>
	<path fill="url(#SVGID_10_)" d="M10.313,22.11l3.1,1.92c0.092,0.057,0.193,0.084,0.295,0.084c0.186,0,0.371-0.094,0.477-0.264
		c0.163-0.265,0.083-0.61-0.181-0.773l-3.1-1.922c-0.262-0.162-0.608-0.081-0.771,0.182C9.968,21.6,10.05,21.946,10.313,22.11z"/>
	<linearGradient id="SVGID_11_" gradientUnits="userSpaceOnUse" x1="4.0269" y1="52.3711" x2="13.2769" y2="8.6211">
		<stop  offset="0" style="stop-color:#1988C5"/>
		<stop  offset="1" style="stop-color:#32E37F"/>
	</linearGradient>
	<path fill="url(#SVGID_11_)" d="M10.121,32.927c0.257,0,0.489-0.176,0.546-0.438c0.067-0.302-0.124-0.603-0.425-0.669l-3.559-0.792
		c-0.3-0.062-0.602,0.125-0.669,0.425c-0.067,0.303,0.124,0.604,0.426,0.671l3.559,0.791C10.039,32.923,10.08,32.927,10.121,32.927z
		"/>
</g>
</svg>
