<svg xmlns="http://www.w3.org/2000/svg" xmlns:xlink="http://www.w3.org/1999/xlink" version="1.1" x="0px" y="0px" viewBox="0 0 100 125" enable-background="new 0 0 100 100" xml:space="preserve" fill="#3877E4" height="20" width="20"><g><circle cx="67.679" cy="50" r="6.429"/><path d="M54.821,69.286c0,3.55-2.878,6.428-6.428,6.428c-3.547,0-6.429-2.878-6.429-6.428c0-3.551,2.881-6.429,6.429-6.429   C51.943,62.857,54.821,65.735,54.821,69.286z"/><path d="M54.821,30.714c0,3.55-2.878,6.429-6.428,6.429c-3.547,0-6.429-2.878-6.429-6.429s2.881-6.429,6.429-6.429   C51.943,24.286,54.821,27.164,54.821,30.714z"/><path d="M35.536,88.571c0,3.55-2.878,6.429-6.429,6.429c-3.547,0-6.428-2.879-6.428-6.429s2.881-6.429,6.428-6.429   C32.657,82.143,35.536,85.021,35.536,88.571z"/><path d="M35.536,11.429c0,3.55-2.878,6.428-6.429,6.428c-3.547,0-6.428-2.878-6.428-6.428C22.679,7.878,25.56,5,29.107,5   C32.657,5,35.536,7.878,35.536,11.429z"/><circle cx="51.607" cy="50" r="6.429"/><path d="M38.75,69.286c0,3.55-2.878,6.428-6.429,6.428c-3.547,0-6.428-2.878-6.428-6.428c0-3.551,2.881-6.429,6.428-6.429   C35.872,62.857,38.75,65.735,38.75,69.286z"/><path d="M38.75,30.714c0,3.55-2.878,6.429-6.429,6.429c-3.547,0-6.428-2.878-6.428-6.429s2.881-6.429,6.428-6.429   C35.872,24.286,38.75,27.164,38.75,30.714z"/><path d="M19.464,88.571c0,3.55-2.878,6.429-6.429,6.429c-3.547,0-6.429-2.879-6.429-6.429s2.882-6.429,6.429-6.429   C16.586,82.143,19.464,85.021,19.464,88.571z"/><path d="M19.464,11.429c0,3.55-2.878,6.428-6.429,6.428c-3.547,0-6.429-2.878-6.429-6.428C6.607,7.878,9.489,5,13.036,5   C16.586,5,19.464,7.878,19.464,11.429z"/><circle cx="86.964" cy="50" r="6.428"/><path d="M74.107,69.286c0,3.55-2.879,6.428-6.429,6.428c-3.547,0-6.429-2.878-6.429-6.428c0-3.551,2.882-6.429,6.429-6.429   C71.229,62.857,74.107,65.735,74.107,69.286z"/><path d="M74.107,30.714c0,3.55-2.879,6.429-6.429,6.429c-3.547,0-6.429-2.878-6.429-6.429s2.882-6.429,6.429-6.429   C71.229,24.286,74.107,27.164,74.107,30.714z"/><path d="M54.821,88.571c0,3.55-2.878,6.429-6.428,6.429c-3.547,0-6.429-2.879-6.429-6.429s2.881-6.429,6.429-6.429   C51.943,82.143,54.821,85.021,54.821,88.571z"/><path d="M54.821,11.429c0,3.55-2.878,6.428-6.428,6.428c-3.547,0-6.429-2.878-6.429-6.428c0-3.55,2.881-6.429,6.429-6.429   C51.943,5,54.821,7.878,54.821,11.429z"/></g></svg>