<?xml version="1.0" encoding="utf-8"?>
<!-- Generator: Adobe Illustrator 16.0.0, SVG Export Plug-In . SVG Version: 6.00 Build 0)  -->
<!DOCTYPE svg PUBLIC "-//W3C//DTD SVG 1.1//EN" "http://www.w3.org/Graphics/SVG/1.1/DTD/svg11.dtd">
<svg version="1.1" id="Layer_1" xmlns="http://www.w3.org/2000/svg" xmlns:xlink="http://www.w3.org/1999/xlink" x="0px" y="0px"
	 width="430px" height="375.5px" viewBox="0 0 430 375.5" enable-background="new 0 0 430 375.5" xml:space="preserve">
<g>
	<g id="XMLID_397_">
		<ellipse fill="#FFFFFF" cx="215.1" cy="355.1" rx="195.8" ry="19.4"/>
		<ellipse opacity="0.1" fill="#1C88C4" enable-background="new    " cx="215.1" cy="355.1" rx="195.8" ry="19.4"/>
	</g>
	<g>
		<path id="XMLID_453_" fill="#0F103A" d="M243.3,28.8c0,0,2.7-11.8,22.4-8c18.8,3.6,17.6,29.8,19.8,37c1.7,5.6,5.3,13.5,6.7,16.8
			c0.399,0.8,0,1.7-0.8,2c-6.9,2.3-36.4,11-56.5-1.1c-1.801-1.1-3.2-2.6-4-4.5c-0.301-0.9-0.601-1.8-0.5-2.8
			c0.1-3.1,1.899-7,0.5-16.1C229.5,42.7,231.2,28.5,243.3,28.8z"/>
		<path id="XMLID_458_" fill="#E0BA98" d="M237.5,54.1c0,0-2.5,3.1-1.6,8.3c0.899,5.2,5.5,5,5.5,5l0.6-5.2l-1.4-9.1L237.5,54.1z"/>
		<path id="XMLID_459_" fill="#E0BA98" d="M281.5,54.1c0,0,2.5,3.1,1.6,8.3c-0.899,5.2-5.5,5-5.5,5l-0.6-5.2l1.4-9.1L281.5,54.1z"/>
		<path id="XMLID_488_" fill="#E0BA98" d="M286,344.4c0.1,0.8,0.1,1.3,0.1,3.1c-3.699,1.7-9,1.9-11.699,1.1
			c-1.601-0.5-2.9-1-3.601-2.1c0.601-3,1.4-6.5,1.7-8s0.5-2.4,0.4-3.2C272,327.4,269,312.8,267.8,304c-1.2-8.9-4-31-4.2-34.1
			c-0.1-1.7-1.1-4.5-0.899-9c0.399-12,2.3-31.5,2.3-31.5s23.3-2.4,23.8,3.8s-6.7,28-6.7,28s-0.6,5.5-1.8,12.8c0,5.1,1.2,19,1.5,27.7
			c0.2,8.6-0.3,25.8,0.2,30.6c0.2,2.2,1.1,4.3,1.9,6.3C284.9,340.9,285.6,341.8,286,344.4z"/>
		<path id="XMLID_469_" fill="#E0BA98" d="M241.7,259.7c0.6,5.8,1.2,7,1.6,13.1c1.2,20,8.5,48.2,9.3,55c0.4,3,0.5,5.4,0.301,7.5
			c-0.301,4.5-3.4,9.2-7.2,11.9c-4.4,3.1-8.7,5.399-7.4,6.399l8.5-2c2.5-0.6,5-1.6,7.2-2.899c3.1-1.8,8.7-1.7,10.8-3.9
			c0.2-7.7-2.399-7.5-2.7-12.399c-0.3-4.9-1.399-49.301-2.5-56.301c-0.399-2.6-0.3-2.199-0.8-4.899c0-0.101,0-0.3,0-0.4
			c0.2-6.399,2-8.8,2.3-13.7C261.4,252.2,244.1,257.3,241.7,259.7z"/>
		<path id="XMLID_529_" fill="#191A46" d="M290,285.686c-1.3,8.209-8.22,40.455-8.22,40.455s-0.58,0.223-2.88,0.953
			c-4.2,1.275-11,3.1-16.7,3.1c-9.4,0-14.062-2.345-14.062-2.345s-5.771-20.104-6.972-27.765
			c-1.2-7.662-10.067-41.213-10.167-59.636c-0.1-14.776,2.3-42.139,3.3-52.536c0.2-2.553,0.4-4.012,0.4-4.012h54.5
			c0,0,4.3,22.983,5.399,47.244C295.4,246.284,293.6,262.154,290,285.686z"/>
		<path id="XMLID_526_" fill="#33305B" d="M289,239.7c-1.3,4.5-7.3,22-7.3,22s-1.5,0.3-3.8,0.7c1-7.2,3.8-28.601,3.899-43.101
			c0.101-17.8-4.899-28.2-4.899-28.2c-28.101,1.301-39.9-3.199-43.5-5c0.199-1.399,0.399-2.199,0.399-2.199h54.5
			c0,0,4.3,12.6,5.4,25.899C294.4,218.1,292.6,226.8,289,239.7z"/>
		<path id="XMLID_530_" fill="#CAEAF6" d="M284.7,154.4c-0.3,5.3-0.3,7.6,0.3,14.1c0.6,6,4,15.6,4,15.6s-4.8,1.9-12.4,3.301
			c-10.6,2-26.6,3.199-43.5-2.601c0,0,2.601-9.399,2.7-21.899c0-1.7,0-3.5-0.1-5.3c-0.101-2.3-0.9-6.5-1.8-11.5
			c-0.2-1-0.301-1.9-0.5-3c-0.601-3.7-1.301-7.7-1.7-11.8c-0.4-4.1-0.7-8.3-0.601-12.3c-1.5-11,1.801-21.8,1.801-21.8
			s13.899-5.8,19.8-6.6c0,0,10.399-2.4,17.7,0c9.6,3.2,14.8,5,19.1,7.4c0.5,0.3,3.2,8.4,2,15.6c-1.8,10.5-4.4,25-5.9,33.6
			C285.1,150.8,284.7,153.4,284.7,154.4z"/>
		<path id="XMLID_524_" fill="#CAEAF6" d="M289.1,184.1c0,0-4.8,1.9-12.399,3.301c-2.9-7.601-3.5-22.7-3.5-22.7
			c-8.2-1.4-20.7-6.3-20.7-6.3c-3.3,1.6-13.4,3.8-16.6,4.5c0-1.7,0-3.5-0.101-5.3c-0.1-2.3-0.899-6.5-1.8-11.5
			c3.8-2.7,11,3.2,11,3.2l36-5.7c0,0,2.6,1.5,4.8,3.6c-0.6,3.5-0.899,6-1,7c-0.3,5.3-0.3,7.6,0.3,14.1
			C285.6,174.5,289.1,184.1,289.1,184.1z"/>
		<path id="XMLID_531_" fill="#E0BA98" d="M279.9,48.2c0,5.3-1.101,17.6-4.4,25.7c-2.1,5.2-5.6,8.9-9.3,11.1
			c0,2.1-0.101,4.9,1.399,5.1c0.4,0.9,1,1.2,0.7,2.7c-1,5.2-7.1,11.1-8.6,12.5c-1.5,1.5-2.4,0-2.4,0c-1.7-1.9-3.3-4.4-4.5-6.6
			c-0.8-1.4-1.3-2.7-1.7-3.6c-0.899-2.3,0.4-4.2,0.4-4.2c1.6-0.2,1-3.7,0.9-5.5c-3.101-2.2-6.101-6-8.301-10.5
			c-4.399-9-4.6-20.4-4.6-26.7c0-11.2,9.1-20.2,20.2-20.2C270.9,27.9,279.9,37,279.9,48.2z"/>
		<path id="XMLID_525_" fill="#E0BA98" d="M266,85.1c-1.2,0.4-6.1,2.3-7,4.4c-1.1,2.4-1.7,6.2-2.7,7.2c-0.8,0.9-2.899,1.7-3.5,2
			c-0.8-1.4-1.3-2.7-1.7-3.6c-0.899-2.3,0.4-4.2,0.4-4.2c1.6-0.2,1-3.7,0.9-5.5c0,0,3.399,1.4,6.399,1.2
			C261.5,86.3,264.8,85.5,266,85.1z"/>
		<path id="XMLID_464_" fill="#E0BA98" d="M273.4,138.6c0,0,3.199-0.6,4.199-0.6s-1.899,9.2-1.899,9.2s-1.101-1.1-2.3-1.3
			c-1.2-0.2-0.801-7.1-0.801-7.1L273.4,138.6z"/>
		<path id="XMLID_461_" fill="#B2D9E7" d="M289.5,98.1c0,0,9.1,4.7,8.6,11.8s-11.3,45.9-13.1,51s-48.5-10.4-48.5-10.4
			s1.5-6.2,2.7-7.9c0,0,31.899,3.4,36.1,5c0,0,6.5-30.8,8.5-36.3C285.8,105.9,289.5,98.1,289.5,98.1z"/>
		<path id="XMLID_528_" fill="#B2D9E7" d="M274,146.5c-4.8,2.7-41.7,18-45.1,17.1c-3.4-1-7.5-4-8.101-13c-0.5-8,4.2-39.5,5.2-46.8
			c0.1-1,0.7-2.5,1.4-3.1c0.199-0.2,0.5-0.5,0.699-0.7c2.301-1.8,4.7-2.6,4.7-2.6c0.5,1,0.3,5.3,0.9,12.8c0.1,0.9,0,1.7-0.2,2.5
			c-0.9,4.4-2,10-2,13.1c0,0.2,0,0.3,0,0.5c0.3,3.2,2.7,9.2,2.7,11.7c0.1,6,0.1,6.8,0,6.9c1.3-0.2,5.899-1,11.5-2
			c11.6-2.1,27.5-4.9,27.5-4.9C274.8,140.9,274,146.5,274,146.5z"/>
		<path id="XMLID_456_" fill="#0F103A" d="M235.4,56.1c0,0,6.399-1.1,10.1-5.9c2.8-3.7,4.5-8.9,4.5-8.9s2.2,4.8,9.8,8.2
			c7.5,3.4,15.7,5.7,23.3,6.6c0,0,0.5-17.5-5.199-24.6c-5.7-7.1-20.601-11.2-30.7-5.1C236.9,32.6,235.4,56.1,235.4,56.1z"/>
		<path id="XMLID_468_" fill="#DBDADA" d="M264.1,338.5"/>
		<path id="XMLID_470_" fill="#FCB240" d="M264.1,338.5c0,0-4.6,9.1-17.6,7.9c0,0-6.8,4.1-9.2,6c-2.399,1.899-0.8,2.699-0.3,2.699
			h10.2c0.8,0,1.6-0.3,2.2-0.8c0.899-0.7,2.6-1.899,5.1-3.2c2.2-1.199,3.6-1.699,5.1-2.1c0.5-0.1,0.9,0.2,1,0.6l0.601,5.5h2.8
			c0,0,0.7-4,0.9-8.699C265.7,343.3,266.2,341.3,264.1,338.5z"/>
		<polygon id="XMLID_480_" fill="#8B8B8B" points="272.7,351.6 274.2,355.1 281.9,355.1 282.5,351.6 		"/>
		<path id="XMLID_500_" fill="#C98935" d="M286.2,350.2c-0.601,2.1-2.2,4.2-3.9,4.899h-8.1c-1.5-0.699-3.3-2.699-3.7-4.8
			c-0.3-1.3-0.2-2.7,0.1-3.899c0.4-1.801,1-3.101,1-3.101c9.101,6.9,13.801-1.6,13.801-1.6s0.399,0.899,0.699,2.5
			C286.3,345.6,286.5,347.7,286.2,350.2z"/>
		<path id="XMLID_498_" fill="#FCB240" d="M286.2,350.2c-0.601,2.1-2.2,4.2-3.9,4.899h-8.1c-1.5-0.699-3.3-2.699-3.7-4.8
			c-0.3-1.3-0.2-2.7,0.1-3.899l0,0c0,0,0.301,1.699,1.101,3c0.5,0.899,1.6,1.199,2.6,1c2-0.4,4.7-0.4,7,0.3c0.7,0.2,1.5,0.1,2-0.3
			c0.4-0.4,0.7-0.9,1.2-1.4c0.5-0.8,1.6-2.2,1.6-4.4v-0.5C286.3,345.6,286.5,347.7,286.2,350.2z"/>
		<path id="XMLID_465_" fill="#B2D9E7" d="M251.6,90.8c0,0,1.101,9.4,5.7,14.5c0,0-1.5-0.5-4.399,2.9c-0.4,0.5-1.2,0.3-1.301-0.3
			c-0.899-3.8-3.8-13.2-2.199-16.5C249.4,91.4,250.2,90.5,251.6,90.8z"/>
		<path id="XMLID_452_" fill="#B2D9E7" d="M267.5,90.1c0,0-1.3,4.8-2.8,8.1c-1.9,4.2-5.2,7.4-5.2,7.4s3.6,0.7,5.2,3
			c0.3,0.4,0.8,0.3,1-0.1c1.1-2.1,1.7-4,2.899-8.2c1.4-4.9,1.4-7.5,1.301-9.6C269.9,90.6,268.9,89.4,267.5,90.1z"/>
		<path id="XMLID_523_" fill="#B2D9E7" d="M231.9,147.4c-3.7-3.2,0.699-9.3,0.399-11.4s-0.3-2.5-0.6-4.6c-0.101-1-0.3-3.7,0-5.2
			c0.3,3.2,2.7,9.2,2.7,11.7c0.1,6,0.1,6.8,0,6.9c1.3-0.2,13.699-2.4,19.3-3.4C255.1,142.2,234.4,149.6,231.9,147.4z"/>
		<path id="XMLID_462_" fill="#E0BA98" d="M238.5,144.2l-3.9,0.7c0,0-4.5-0.4-7.399-0.2c-2.101,0.1-4.4,0.8-5.7,1.2
			c-0.5,0.2-0.8-0.2-0.9-0.6c-0.199-0.7-0.6-2.5-0.5-4c0.2-1.5,0.7-3,1-3.9c0.2-0.4,0.5-0.7,0.9-0.9c1.5-0.5,3.2-0.5,5.8-0.2
			c3.101,0.3,4.4,1.3,5.8,3l1.601,1.9c0.5,0.6,1.2,1,2,1.2l2,0.4c0,0-0.2,0.3-0.4,0.7S238.5,144.2,238.5,144.2z"/>
		<ellipse id="XMLID_483_" fill="#333333" cx="249.1" cy="60" rx="0.801" ry="1.3"/>
		<ellipse id="XMLID_485_" fill="#333333" cx="265.4" cy="60" rx="0.8" ry="1.3"/>
		<path id="XMLID_486_" fill="none" stroke="#221F1F" stroke-linecap="round" stroke-miterlimit="10" d="M247.7,56.5
			c0,0,2.6-2.1,6.2,0.2"/>
		<path id="XMLID_487_" fill="none" stroke="#221F1F" stroke-linecap="round" stroke-miterlimit="10" d="M264,56.5
			c0,0,2.6-2.1,6.2,0.2"/>
		<path id="XMLID_499_" fill="none" stroke="#221F1F" stroke-linecap="round" stroke-miterlimit="10" d="M253.9,76.6
			c0,0,3.1,1.9,9.699,0.4"/>
		<path id="XMLID_501_" fill="none" stroke="#221F1F" stroke-linecap="round" stroke-miterlimit="10" d="M257.9,65.1
			c0,0-3.301,2.7,0,5.2"/>
	</g>
	<g id="XMLID_609_">
		<rect id="XMLID_625_" x="37.5" y="233" fill="none" stroke="#A9BACA" stroke-miterlimit="10" width="3.8" height="121.9"/>
		<path id="XMLID_624_" fill="#A9BACA" d="M41.5,355.1h-4c-0.7,0-1.2-0.5-1.2-1.199v-1c0-0.7,0.5-1.2,1.2-1.2h4
			c0.7,0,1.2,0.5,1.2,1.2v1C42.7,354.6,42.1,355.1,41.5,355.1z"/>
		<rect id="XMLID_623_" x="392.4" y="233" fill="none" stroke="#A9BACA" stroke-miterlimit="10" width="3.8" height="120.7"/>
		<path id="XMLID_622_" fill="#A9BACA" d="M396.3,355.1h-4c-0.7,0-1.2-0.5-1.2-1.199v-1c0-0.7,0.5-1.2,1.2-1.2h4
			c0.7,0,1.2,0.5,1.2,1.2v1C397.6,354.6,397,355.1,396.3,355.1z"/>
		<path id="XMLID_610_" fill="#D09E9B" d="M426.1,234.2H4.1c-2,0-3.6-1.601-3.6-3.601l0,0c0-2,1.6-3.6,3.6-3.6h422
			c2,0,3.601,1.6,3.601,3.6l0,0C429.7,232.6,428.1,234.2,426.1,234.2z"/>
	</g>
	<g>
		<g>
			<path id="XMLID_1_" fill="none" stroke="#B2D9E7" stroke-miterlimit="10" d="M161.7,58.3h12.2c5.1,0,9.3,4.1,9.3,9.3v10.5v0.1
				c0,2.3-0.9,4.5-2.6,6.1l-0.6,0.5c-1.3,1.3-2.9,2.2-4.7,2.4c-0.4,0.1-0.9,0.1-1.4,0.1h-12.2c-5.1,0-9.3-4.1-9.3-9.3V67.6
				C152.5,62.5,156.6,58.3,161.7,58.3z"/>
			<g opacity="0.3">
				<path fill="#62BD75" d="M173.7,68.1c-1.6-2.1-4.1-3.5-6.9-3.5c-4.6,0-8.5,3.8-8.7,8.3c-0.2,5,3.8,9,8.7,9c3,0,5.6-1.5,7.1-3.7
					l-7.1-5L173.7,68.1z"/>
				<path fill="#C98935" d="M175.8,68.1l-6.9,5.2l7.1,5c1-1.4,1.6-3.1,1.6-5C177.5,71.3,176.9,69.5,175.8,68.1z"/>
			</g>
		</g>
		<g id="XMLID_597_">
			<path id="XMLID_602_" fill="none" stroke="#B2D9E7" stroke-miterlimit="10" d="M368.7,3.5h-41.4c-8,0-14.5,6.5-14.5,14.5v16.4
				c0,3,0.9,5.8,2.5,8.1l-6.6,11.2l10.8-7.1c2.3,1.4,4.9,2.3,7.8,2.3h41.4c8,0,14.5-6.5,14.5-14.5V18C383.2,10,376.7,3.5,368.7,3.5z
				"/>
			<path id="XMLID_601_" fill="#62BD75" d="M335.7,37.5h-5.4c-0.5,0-0.899-0.4-0.899-0.9V16.9c0-0.5,0.399-0.9,0.899-0.9h5.4
				c0.5,0,0.899,0.4,0.899,0.9v19.7C336.6,37.1,336.2,37.5,335.7,37.5z"/>
			<path id="XMLID_600_" fill="#62BD75" d="M345.7,37.5h-5.4c-0.5,0-0.899-0.4-0.899-0.9V22.4c0-0.5,0.399-0.9,0.899-0.9h5.4
				c0.5,0,0.899,0.4,0.899,0.9v14.2C346.6,37.1,346.2,37.5,345.7,37.5z"/>
			<path id="XMLID_599_" fill="#FCB240" d="M355.7,37.5h-5.4c-0.5,0-0.899-0.4-0.899-0.9V12.9c0-0.5,0.399-0.9,0.899-0.9h5.4
				c0.5,0,0.899,0.4,0.899,0.9v23.7C356.6,37.1,356.2,37.5,355.7,37.5z"/>
			<path id="XMLID_598_" fill="#62BD75" d="M365.7,37.5h-5.4c-0.5,0-0.899-0.4-0.899-0.9V19.7c0-0.5,0.399-0.9,0.899-0.9h5.4
				c0.5,0,0.899,0.4,0.899,0.9v16.9C366.7,37.1,366.3,37.5,365.7,37.5z"/>
		</g>
		<g id="XMLID_591_">
			<path id="XMLID_596_" fill="none" stroke="#B2D9E7" stroke-miterlimit="10" d="M27.9,6.7h34.3c5.3,0,9.5,4.3,9.5,9.5V27
				c0,2-0.6,3.8-1.6,5.3l4.3,7.3l-7.1-4.7c-1.5,0.9-3.2,1.5-5.1,1.5H27.9c-5.3,0-9.5-4.3-9.5-9.5V16.2C18.3,11,22.6,6.7,27.9,6.7z"
				/>
			<g id="XMLID_595_">
				<path id="XMLID_511_" fill="#62BD75" d="M52.4,30.3H26.8c-0.4,0-0.7-0.3-0.7-0.7s0.3-0.7,0.7-0.7h25.1l10.7-9.6
					c0.3-0.3,0.8-0.2,1,0.1c0.3,0.3,0.2,0.8-0.1,1L52.4,30.3z"/>
			</g>
			<g id="XMLID_594_">
				<path id="XMLID_467_" fill="#62BD75" d="M63.1,25.2L63.1,25.2c-0.4,0-0.7-0.3-0.7-0.7v-4.1h-4.1c-0.4,0-0.7-0.3-0.7-0.7
					c0-0.4,0.3-0.7,0.7-0.7l0,0h5.6v5.6C63.9,24.9,63.5,25.2,63.1,25.2z"/>
			</g>
			<g id="XMLID_593_">
				<path id="XMLID_466_" fill="#FCB240" d="M52.4,18.6c-0.2,0-0.4-0.1-0.5-0.2c-0.3-0.3-0.3-0.7,0-1l2.9-2.9l-2.9-2.9
					c-0.3-0.3-0.3-0.7,0-1c0.3-0.3,0.7-0.3,1,0l3.9,3.9l-3.9,3.9C52.8,18.5,52.6,18.6,52.4,18.6z"/>
			</g>
			<g id="XMLID_592_">
				<path id="XMLID_449_" fill="#FCB240" d="M26.8,30.3c-0.1,0-0.3,0-0.4-0.1c-0.3-0.2-0.4-0.7-0.2-1l6.1-9.3l7.1,3.1l3.7-9.3H55
					c0.4,0,0.7,0.3,0.7,0.7s-0.3,0.7-0.7,0.7H44l-3.9,9.8l-7.3-3.2l-5.4,8.2C27.3,30.2,27.1,30.3,26.8,30.3z"/>
			</g>
		</g>
		<g id="XMLID_584_">
			<path id="XMLID_590_" fill="none" stroke="#B2D9E7" stroke-miterlimit="10" d="M414.6,102.6h-32.1c-8,0-14.5,6.5-14.5,14.5v16.4
				c0,3,0.9,5.8,2.5,8.1l-6.6,11.2l10.8-7.1c2.3,1.4,4.899,2.3,7.8,2.3h32.1c8,0,14.5-6.5,14.5-14.5v-16.4
				C429.1,109.1,422.6,102.6,414.6,102.6z"/>
			<path id="XMLID_589_" fill="#1C88C4" d="M379,128.2l-2.6-1.7c-0.5-0.3-0.7-1.1-0.301-1.6l7.7-11.7c0.3-0.5,1.101-0.7,1.601-0.3
				l2.6,1.7c0.5,0.3,0.7,1.1,0.3,1.6l-7.7,11.7C380.2,128.4,379.5,128.5,379,128.2z"/>
			<path id="XMLID_588_" fill="#57BB75" d="M422.3,128l2.601-1.7c0.5-0.3,0.699-1.1,0.3-1.6l-7.7-11.7c-0.3-0.5-1.1-0.7-1.6-0.3
				l-2.601,1.7c-0.5,0.3-0.7,1.1-0.3,1.6l7.7,11.7C421.1,128.2,421.8,128.4,422.3,128z"/>
			<path id="XMLID_587_" fill="#1C88C4" d="M388.7,116.9l-6.9,10.6c-0.2,0.2-0.1,0.6,0.101,0.8c2.1,2,12.6,12.1,17.399,12.7
				c0,0,5.7-0.8,11.3-8.4c0.2-0.3,0.4-0.8,0.301-1.2c0-0.2-0.101-0.4-0.101-0.6c-0.3-0.8-12.1-11.9-12.1-11.9s-4.2,0.5-5.8,0.3
				c-1.301-0.1-2.9-1.7-3.5-2.4C389,116.7,388.8,116.7,388.7,116.9z"/>
			<path id="XMLID_586_" fill="#57BB75" d="M412.9,116.9l6.8,10.6c0.1,0.2,0,0.5-0.2,0.6c-1.5,0.5-6.1,2.1-8.9,2.8l-10.399-7.1
				c0,0-3.5,4.4-7.601,1.8c-0.3-0.2-0.399-0.6-0.1-0.9c1.4-1.4,5.6-5.6,6.8-6.5c1.3-1,5.7,0.7,7.601,1c0.3,0.1,0.6,0,0.899-0.1
				c1.5-0.6,3.5-1.9,4.3-2.4C412.5,116.6,412.8,116.6,412.9,116.9z"/>
			<path id="XMLID_585_" fill="#57BB75" d="M387.5,135.1c-0.4-0.3-0.5-0.8-0.3-1.3c0.5-0.9,1.3-2.3,2.5-3.6c1.8-2,11.899,6,11.7,7.2
				c-0.2,1.2-2.2,4-3.2,4.4C397.3,142.3,390.9,137.9,387.5,135.1z"/>
		</g>
		<path fill="none" stroke="#B2D9E7" stroke-miterlimit="10" d="M210.2,29.1c1.1-1.7,1.8-3.7,1.8-5.8V11.4C212,5.6,207.3,1,201.6,1
			h-37.5c-5.8,0-10.4,4.7-10.4,10.4v11.8c0,5.8,4.7,10.4,10.4,10.4h37.5c2.1,0,4-0.6,5.6-1.6l7.8,5.1L210.2,29.1z M200.7,27.9h-36.1
			c-0.5,0-0.9-0.4-0.9-0.9s0.4-0.9,0.9-0.9h36.1c0.5,0,0.9,0.4,0.9,0.9S201.2,27.9,200.7,27.9z M163.7,22.1c0-0.5,0.4-0.9,0.9-0.9
			h19.1c0.5,0,0.9,0.4,0.9,0.9s-0.4,0.9-0.9,0.9h-19.1C164.1,23,163.7,22.6,163.7,22.1z M200.7,18.1h-36.1c-0.5,0-0.9-0.4-0.9-0.9
			s0.4-0.9,0.9-0.9h36.1c0.5,0,0.9,0.4,0.9,0.9S201.2,18.1,200.7,18.1z M163.7,12.3c0-0.5,0.4-0.9,0.9-0.9h26.6
			c0.5,0,0.9,0.4,0.9,0.9s-0.4,0.9-0.9,0.9h-26.6C164.1,13.3,163.7,12.8,163.7,12.3z M200.7,8.4h-36.1c-0.5,0-0.9-0.4-0.9-0.9
			s0.4-0.9,0.9-0.9h36.1c0.5,0,0.9,0.4,0.9,0.9S201.2,8.4,200.7,8.4z"/>
		<g>
			<g>
				<path fill="#B2D9E7" d="M352.2,82v-2.6H351.1c-0.199-1.4-0.8-2.8-1.6-3.9l0.8-0.8l-1.8-1.8l-0.8,0.8c-1.101-0.8-2.4-1.4-3.9-1.6
					V71h-2.6v1.1c-1.4,0.2-2.8,0.8-3.9,1.6l-0.8-0.8l-1.8,1.8l0.8,0.8c-0.8,1.1-1.4,2.4-1.6,3.9H332.8V82h1.101
					c0.199,1.4,0.8,2.7,1.6,3.9l-0.8,0.8l1.8,1.8l0.8-0.8c1.101,0.8,2.4,1.4,3.9,1.6v1.1h2.6v-1.1c1.4-0.2,2.8-0.8,3.9-1.6l0.8,0.8
					l1.8-1.8l-0.8-0.8c0.8-1.1,1.4-2.4,1.6-3.9H352.2z M349,80c0.4,4.1-3,7.5-7.1,7.1c-3-0.3-5.4-2.7-5.801-5.6
					c-0.5-4.3,3-7.9,7.301-7.3C346.3,74.6,348.7,77,349,80z"/>
				<circle fill="#57BB75" cx="342.5" cy="80.7" r="4.5"/>
			</g>
			<g>
				<path fill="#B2D9E7" d="M359.5,94.2v-1.7h-0.7c-0.1-0.9-0.5-1.8-1-2.5l0.5-0.5l-1.2-1.2l-0.5,0.5c-0.699-0.5-1.6-0.9-2.5-1v-0.6
					H352.4v0.7c-0.9,0.1-1.801,0.5-2.5,1l-0.5-0.5l-1.2,1.2l0.5,0.5c-0.5,0.7-0.9,1.6-1,2.5H347v1.7h0.7c0.1,0.9,0.5,1.8,1,2.5
					l-0.5,0.5l1.2,1.2l0.5-0.5c0.699,0.5,1.6,0.9,2.5,1v0.7h1.699V99c0.9-0.1,1.801-0.5,2.5-1l0.5,0.5l1.2-1.2l-0.5-0.5
					c0.5-0.7,0.9-1.6,1-2.5h0.7V94.2L359.5,94.2z M357.4,93c0.3,2.6-1.9,4.8-4.601,4.6c-1.899-0.2-3.5-1.7-3.7-3.6
					c-0.399-2.7,2-5.1,4.7-4.7C355.7,89.5,357.2,91.1,357.4,93z"/>
				<circle fill="#57BB75" cx="353.2" cy="93.4" r="2.9"/>
			</g>
			<g>
				<path fill="#B2D9E7" d="M380.1,78.7V75h-1.6c-0.3-2.1-1.1-4-2.3-5.6l1.1-1.1l-2.6-2.6l-1.101,1.1c-1.6-1.2-3.5-2-5.6-2.3v-1.6
					h-3.7v1.6c-2.1,0.3-4,1.1-5.6,2.3l-1.101-1.1l-2.6,2.5l1.1,1.1c-1.199,1.6-2,3.5-2.3,5.6h-1.6v3.7h1.6c0.3,2.1,1.101,4,2.3,5.6
					l-1.1,1.1l2.6,2.6l1.101-1.1c1.6,1.2,3.5,2,5.6,2.3v1.6h3.7v-1.5c2.1-0.3,4-1.1,5.6-2.3L374.7,88l2.6-2.6l-1.1-1.1
					c1.2-1.6,2-3.5,2.3-5.6H380.1z M375.5,75.9c0.6,5.9-4.4,10.9-10.3,10.3c-4.3-0.4-7.9-3.8-8.4-8.1c-0.8-6.2,4.4-11.3,10.5-10.6
					C371.7,68,375.1,71.6,375.5,75.9z"/>
				<circle fill="#57BB75" cx="366.1" cy="76.8" r="6.5"/>
			</g>
		</g>
		<g>
			<path id="XMLID_555_" fill="#C98935" d="M183.9,203.3l-1.7,19.9c-0.1,0.8-0.8,1.5-1.6,1.5h-16.3c-0.8,0-1.5-0.601-1.6-1.5
				l-1.7-19.9c-0.2-2.1,1.5-4,3.7-4h15.6c1.3,0,2.4,0.601,3.1,1.601C183.8,201.6,184,202.4,183.9,203.3z"/>
			<path id="XMLID_552_" fill="#FCB240" d="M183.9,203.3l-1.7,19.9c-0.1,0.8-0.8,1.5-1.6,1.5h-13.5l-1.7-19.7c-0.2-2.1,1.5-4,3.7-4
				h14.2C183.8,201.6,184,202.4,183.9,203.3z"/>
			<g id="XMLID_399_">
				<path id="XMLID_518_" fill="#C98935" d="M182.9,221h-2.3c-0.5,0-0.8-0.4-0.8-0.8c0-0.4,0.4-0.8,0.8-0.8h2.3
					c1.2,0,2.3-0.7,2.4-1.7l1.8-10.4c0.1-0.6-0.2-1-0.4-1.3c-0.5-0.5-1.2-0.9-2.1-0.9h-4.1c-0.5,0-0.8-0.399-0.8-0.8
					c0-0.399,0.4-0.8,0.8-0.8h4.1c1.3,0,2.5,0.5,3.3,1.5c0.6,0.8,0.9,1.7,0.7,2.6l-1.8,10.4C186.7,219.8,185,221,182.9,221z"/>
			</g>
			<path id="XMLID_400_" fill="#373A6B" d="M184.6,227.1h-24.3c-0.9,0-1.7-0.699-1.7-1.699l0,0c0-0.9,0.7-1.7,1.7-1.7h24.3
				c0.9,0,1.7,0.7,1.7,1.7l0,0C186.3,226.4,185.5,227.1,184.6,227.1z"/>
		</g>
		<g>
			<g>
				<g opacity="0.4">
					<path fill="#B2D9E7" d="M34.7,121c-11.9,0-21.6-9.7-21.6-21.6s9.7-21.6,21.6-21.6c11.9,0,21.6,9.7,21.6,21.6
						C56.3,111.2,46.6,121,34.7,121z M34.7,81c-10.1,0-18.3,8.2-18.3,18.3c0,10.1,8.2,18.3,18.3,18.3c10.1,0,18.3-8.2,18.3-18.3
						C53,89.2,44.8,81,34.7,81z"/>
				</g>
				<g>
					<path fill="#B2D9E7" d="M47.9,99.3L47.9,99.3c0-0.6,0.5-1.1,1.1-1.1h1.9c0.6,0,1.1,0.5,1.1,1.1l0,0c0,0.6-0.5,1.1-1.1,1.1H49
						C48.4,100.4,47.9,99.9,47.9,99.3z"/>
					<path fill="#B2D9E7" d="M17.4,99.3L17.4,99.3c0-0.6,0.5-1.1,1.1-1.1h1.9c0.6,0,1.1,0.5,1.1,1.1l0,0c0,0.6-0.5,1.1-1.1,1.1h-1.9
						C17.9,100.4,17.4,99.9,17.4,99.3z"/>
				</g>
				<g>
					<path fill="#B2D9E7" d="M34.7,112.5L34.7,112.5c0.6,0,1.1,0.5,1.1,1.1v1.9c0,0.6-0.5,1.1-1.1,1.1l0,0c-0.6,0-1.1-0.5-1.1-1.1
						v-1.9C33.6,113,34.1,112.5,34.7,112.5z"/>
					<path fill="#B2D9E7" d="M34.7,82L34.7,82c0.6,0,1.1,0.5,1.1,1.1V85c0,0.6-0.5,1.1-1.1,1.1l0,0c-0.6,0-1.1-0.5-1.1-1.1v-1.9
						C33.6,82.5,34.1,82,34.7,82z"/>
				</g>
				<g>
					<path fill="#B2D9E7" d="M25.3,108.7L25.3,108.7c0.4,0.4,0.4,1.1,0,1.5l-1.3,1.3c-0.4,0.4-1.1,0.4-1.5,0l0,0
						c-0.4-0.4-0.4-1.1,0-1.5l1.3-1.3C24.2,108.2,24.9,108.2,25.3,108.7z"/>
					<path fill="#B2D9E7" d="M46.9,87.1L46.9,87.1c0.4,0.4,0.4,1.1,0,1.6L45.6,90c-0.4,0.4-1.1,0.4-1.5,0l0,0
						c-0.4-0.4-0.4-1.1,0-1.5l1.3-1.3C45.8,86.7,46.5,86.7,46.9,87.1z"/>
				</g>
				<g>
					<path fill="#B2D9E7" d="M25.3,90L25.3,90c-0.4,0.4-1.1,0.4-1.5,0l-1.3-1.3c-0.4-0.4-0.4-1.1,0-1.6l0,0c0.4-0.4,1.1-0.4,1.5,0
						l1.3,1.3C25.8,88.8,25.8,89.5,25.3,90z"/>
					<path fill="#B2D9E7" d="M46.9,111.5L46.9,111.5c-0.4,0.4-1.1,0.4-1.5,0l-1.3-1.3c-0.4-0.4-0.4-1.1,0-1.5l0,0
						c0.4-0.4,1.1-0.4,1.5,0l1.3,1.3C47.4,110.4,47.4,111.1,46.9,111.5z"/>
				</g>
			</g>
			<g opacity="0.4">
				<circle fill="#3D3D73" cx="34.7" cy="99.3" r="1.8"/>
				<path fill="#C98935" d="M34.7,97.1L34.7,97.1c-0.2,0-0.3-0.2-0.3-0.3v-9.1c0-0.2,0.2-0.3,0.3-0.3l0,0c0.2,0,0.3,0.2,0.3,0.3v9.1
					C35,96.9,34.9,97.1,34.7,97.1z"/>
				<path fill="#C98935" d="M37.2,99.3L37.2,99.3c0-0.2,0.2-0.3,0.3-0.3h6c0.2,0,0.3,0.2,0.3,0.3l0,0c0,0.2-0.2,0.3-0.3,0.3h-6
					C37.3,99.7,37.2,99.5,37.2,99.3z"/>
			</g>
		</g>
	</g>
	<g>
		<path id="XMLID_401_" fill="#FFFFFF" stroke="#49566A" stroke-miterlimit="10" d="M285.2,223.1h-87.1L180.9,168.9
			c-0.9-2.7,1.2-5.5,4-5.5h78.2c1.801,0,3.5,1.199,4,2.899L285.2,223.1z"/>
		<path id="XMLID_402_" fill="none" stroke="#E0EBF7" stroke-miterlimit="10" d="M283.8,223.1h-83.4L183.3,169.9
			c-0.9-2.7,1.2-5.4,4-5.4H262c1.8,0,3.4,1.2,4,2.9L283.8,223.1z"/>
		<path id="XMLID_550_" fill="#C1DFF1" d="M231.5,174.6h-38c-0.6,0-1-0.5-1-1l0,0c0-0.6,0.5-1,1-1h38c0.6,0,1,0.5,1,1l0,0
			C232.5,174.1,232.1,174.6,231.5,174.6z"/>
		<path id="XMLID_549_" fill="#C1DFF1" d="M237.4,179.3H195c-0.6,0-1-0.5-1-1l0,0c0-0.6,0.5-1,1-1h42.4c0.6,0,1,0.5,1,1l0,0
			C238.4,178.9,238,179.3,237.4,179.3z"/>
		<path id="XMLID_547_" fill="#C1DFF1" d="M233.5,184.1h-36.9c-0.6,0-1-0.5-1-1l0,0c0-0.6,0.5-1,1-1h36.9c0.6,0,1,0.5,1,1l0,0
			C234.5,183.6,234,184.1,233.5,184.1z"/>
		<path id="XMLID_546_" fill="#C1DFF1" d="M227.3,188.8h-29.2c-0.6,0-1-0.5-1-1l0,0c0-0.6,0.5-1,1-1h29.2c0.601,0,1,0.5,1,1l0,0
			C228.4,188.3,227.9,188.8,227.3,188.8z"/>
		<path id="XMLID_545_" fill="#C1DFF1" d="M242,193.5h-42.4c-0.6,0-1-0.5-1-1l0,0c0-0.6,0.5-1,1-1H242c0.6,0,1,0.5,1,1l0,0
			C243,193.1,242.6,193.5,242,193.5z"/>
		<path id="XMLID_544_" fill="#C1DFF1" d="M238.1,198.3H201.2c-0.6,0-1-0.5-1-1l0,0c0-0.6,0.5-1,1-1H238.1c0.601,0,1,0.5,1,1l0,0
			C239.1,197.8,238.6,198.3,238.1,198.3z"/>
		<path id="XMLID_542_" fill="#C1DFF1" d="M246.5,207.7h-42.4c-0.6,0-1-0.5-1-1l0,0c0-0.601,0.5-1,1-1h42.4c0.6,0,1,0.5,1,1l0,0
			C247.6,207.3,247.1,207.7,246.5,207.7z"/>
		<path id="XMLID_539_" fill="#C1DFF1" d="M248.1,212.5H205.7c-0.6,0-1-0.5-1-1l0,0c0-0.6,0.5-1,1-1H248.1c0.601,0,1,0.5,1,1l0,0
			C249.1,212,248.6,212.5,248.1,212.5z"/>
		<path id="XMLID_405_" fill="#D0E6F2" d="M270.6,212.5H256.9c-1.301,0-2.4-0.8-2.801-2L242.7,174.4c-0.601-1.9,0.8-3.801,2.8-3.801
			h13.7c1.3,0,2.399,0.801,2.8,2l11.4,36.101C274,210.6,272.6,212.5,270.6,212.5z"/>
		<path id="XMLID_403_" fill="#49566A" d="M292.5,227.1h-94.7c-1.5,0-2.8-1.3-2.8-2.8l0,0c0-1.5,1.3-2.8,2.8-2.8h94.7
			c1.5,0,2.8,1.3,2.8,2.8l0,0C295.3,225.8,294.1,227.1,292.5,227.1z"/>
		<g id="XMLID_404_">
			<path id="XMLID_419_" fill="#191A46" d="M294.6,152.2c-0.8,0-1.6-0.4-2.1-1.2l-3.2-5.5c-0.3-0.6-0.399-1.2-0.2-1.8
				c0.2-0.6,0.601-1.1,1.2-1.4l8.8-4.6c1.101-0.6,2.601-0.2,3.2,1l3,5.5c0.3,0.6,0.4,1.2,0.2,1.8s-0.6,1.1-1.1,1.4l-8.601,4.7
				C295.3,152.1,295,152.2,294.6,152.2z M300.2,138.4c-0.2,0-0.4,0-0.601,0.1l-8.8,4.6c-0.3,0.2-0.5,0.4-0.6,0.8
				c-0.101,0.3-0.101,0.7,0.1,1l0,0l3.2,5.5c0.3,0.6,1.1,0.8,1.7,0.5l8.6-4.7c0.3-0.2,0.5-0.4,0.601-0.8c0.1-0.3,0.1-0.7-0.101-1
				l-3-5.5C301.1,138.6,300.6,138.4,300.2,138.4z"/>
		</g>
		<path id="XMLID_538_" fill="#E0BA98" d="M258.6,209.5c-0.6,0.8-1.1,1.3-1.1,1.3s-4.6-3.5-5.9-3.8c-1.3-0.3-4,0.7-5.6,0.8
			c-1.6,0.101-1.7-0.8-1.7-0.8s-5.899,2.5-6.899,2.7s-1.601-0.101-1-1.601c0.1-0.3,0.5-0.899,1.1-1.5l0,0c2-2.3,6.2-5.899,7.7-6.699
			c1.899-0.9,4.5-2.2,6.6-1.5c2.101,0.8,8.9,5.899,8.9,5.899C261,206,259.7,208.2,258.6,209.5z"/>
		<path id="XMLID_533_" fill="#DCAC84" d="M260,204.6l-1.4,4.9c-0.6,0.8-1.1,1.3-1.1,1.3s-4.6-3.5-5.9-3.8c-1.3-0.3-4,0.7-5.6,0.8
			c-1.6,0.101-1.7-0.8-1.7-0.8s-5.899,2.5-6.899,2.7s-1.601-0.101-1-1.601c0.1-0.3,0.5-0.899,1.1-1.5c-0.5,0.7-1.1,1.4-0.7,2.301
			c0.4,1.1,6.8-2,11.4-4.7c0.1,0,0.399-0.2,0.6,0c0.101,0.1-0.2,0.399-0.3,0.5c-0.8,0.8-4.6,1.1-3.8,2.3c1.1,1.7,5-1.4,7.2-0.7
			c2.199,0.7,4.899,2.7,4.899,2.7S258.1,205.2,260,204.6z"/>
		<path id="XMLID_406_" fill="#4B9A57" d="M256.8,210.8c0,0,22.5,19.7,39.4,21.7c16.899,2,45.3-30,45.3-30s-1.8-17-12.3-15
			S304.6,214.8,298.5,216s-37.8-12.3-37.8-12.3s-0.9,0.6-2,2.399C257.5,208.1,256.8,210.8,256.8,210.8z"/>
		<path id="XMLID_407_" fill="#E0BA98" d="M333.5,113.7c-6.2-7.1-15.3-7.8-22.3-7c-9.2,1-17.3,7.2-19.9,16.1
			c-1.2,3.8-1.399,8.3,0.4,13.3c5.7,15.9,11.8,26,17.399,29c2.101,1.101,6.2,0.4,10.601-1.199c0.6-0.2,1.2,0,1.5,0.6l1.8,3.4
			l16.2-3.5c0,0-2.101-4.5-3.2-9.3C338.3,152.2,344.7,126.6,333.5,113.7z"/>
		<path id="XMLID_408_" fill="#0F103A" d="M300.7,136.3c2-0.2,3.899,0.9,4.7,2.8c1.3,3.2,3.399,7.6,5,9.1c0.3,0.3,1.1,0.4,1.8,0
			c0.7-0.4,0.899-1,0.8-1.4c-0.1-1.4-1.2-4.3-1.9-6.3c-0.899-2.5,0.2-5.2,3.2-5.9c0.5-0.1,1.9-0.1,2.601,0.2
			c4.8,1.5,1.5,9,1.399,12.9c-0.1,2.8,3.2,9.2,4.7,9.8c4.8,1.9,12.1,0.2,16-4.6c3.9-4.8,4.7-20.8,2.6-30.3
			c-2.1-9.6-9.8-15-12.3-15.6c-1.2-0.3-2.3-0.3-3-0.2c-0.8,0.1-1.5-0.2-2.1-0.7c-2.5-2.2-10.2-7.3-22.2-2.1
			c-15,6.5-17.6,20.4-17.3,26.6c0.2,4.1,3.399,3.8,5.6,3.1c1.2-0.4,2.601-0.1,3.5,0.8C295.2,135.4,297.3,136.6,300.7,136.3z"/>
		<path id="XMLID_409_" fill="#4B9A57" d="M322.4,170.5c0,0-1.4-1.6-0.9-2.5c0.7-1.2,7.8-6.8,16.1-6.5c1.301,0,2.9,0,4.4,3.4
			c1.5,3.399,1.9,5.6,1.9,5.6H322.4z"/>
		<path id="XMLID_509_" fill="#62BD75" d="M361,271c-0.5,0.1-1,0.2-1.6,0.4c-7.101,1.3-18.5,1.5-18.5,1.5
			C318.3,272.5,308.3,260.3,304.6,254c-1.3-2.2-1.8-3.7-1.8-3.7c1.3-0.7,5.8-4.8,7.5-10.399c1.7-5.601-0.1-19-3-24.101
			c-1.6-2.8-6.399-8.5-9.3-14.5c-2.4-4.899-3.7-10-1-14c6.6-9.8,17.1-15,17.1-15s19.2-7.7,35.601-6c10.399,1.101,19.7,6,22.1,19.101
			C378.1,219.3,361,271,361,271z"/>
		<path id="XMLID_503_" fill="#4B9A57" d="M316.5,232.5c-1.4,12-7.8,18.5-12,21.5c-1.3-2.2-1.8-3.7-1.8-3.7
			c1.3-0.7,5.8-4.8,7.5-10.399c1.7-5.601-0.101-19-3-24.101c-1.601-2.8-6.4-8.5-9.3-14.5l1.3-0.5l7.7-1.3l3.899,3.2
			C310.8,202.8,318.6,214.5,316.5,232.5z"/>
		<path id="XMLID_484_" fill="#4B9A57" d="M361,271c-0.5,0.1-1,0.2-1.6,0.4c1.399-7.601,3.699-19.601,6.6-36.9
			c5.9-34.2-0.2-51.5-3.7-57.7c-2.8-5-8.1-7.7-12.7-10.3c10.4,1.1,19.7,6,22.101,19.1C378.1,219.3,361,271,361,271z"/>
		<path id="XMLID_411_" fill="#FFFFFF" d="M313.7,337.8c0,0-1.601,1.9-4.101,2.3c-2.699,0.4-4.699-0.899-4.699-0.899L303.6,335.6
			l8.7-1.899L313.7,337.8z"/>
		<path id="XMLID_412_" fill="#FFFFFF" d="M268.2,342.3c0,0-1.9,1.601-4.4,1.601c-2.7,0-4.5-1.601-4.5-1.601l-0.7-3.8h8.9
			L268.2,342.3z"/>
		<path id="XMLID_514_" fill="#191A46" d="M312.5,334.2c-0.6,0.3-1.2,0.5-1.8,0.7c-3.3,1.1-6.9,1.5-6.9,1.5
			c-7.1-11.7-20.6-56.2-20.6-56.2c-1.7-7.2,3.399-10.101,7.899-10.3c1.601-0.101,3,0.1,4.101,0.6c4.3,1.8,10.6,13.9,10.6,13.9
			s1.9,4.199,3.9,12.8C311.7,305.9,312.5,334.2,312.5,334.2z"/>
		<path id="XMLID_504_" fill="#3D3D73" d="M312.5,334.2c-0.6,0.3-1.2,0.5-1.8,0.7c-0.4-3.5-1.101-9-2.101-17.7
			C306.4,297.5,293.9,275,291,270c1.6-0.1,3,0.1,4.1,0.6c4.301,1.801,10.601,13.9,10.601,13.9s1.899,4.2,3.899,12.8
			C311.7,305.9,312.5,334.2,312.5,334.2z"/>
		<path id="XMLID_513_" fill="#3D3D73" d="M330.5,271.7c-0.1,4.1-1.1,10.6-7.2,12.399c-9.1,2.7-15.899,1.2-26.399-0.6
			c-8.9-1.5-22.801-6.7-27.101-8.3c-0.6-0.2-1.1,0.3-1,0.8c2,9.9,0.601,29.1-0.399,34.7c-1.101,5.899-0.2,28.399-0.2,28.399
			s-1.5,0.4-3,0.7c-0.601,0.101-1.2,0.2-1.7,0.2c-2.3,0-5.1-0.4-5.1-0.4S248.8,302,247.6,280.9c-1.3-21,0.7-22.801,10.301-27.2
			c9.6-4.5,45-3.3,45-3.3l0,0c0.1,0.399,2.5,6.899,9.6,12.899C316.6,266.7,322.5,270.1,330.5,271.7z"/>
		<path id="XMLID_505_" fill="#33305B" d="M330.5,271.7c-0.1,4.1-1.1,10.6-7.2,12.399c-9.1,2.7-15.899,1.2-26.399-0.6
			c-8.9-1.5-22.801-6.7-27.101-8.3c-0.6-0.2-1.1,0.3-1,0.8c2,9.9,0.601,29.1-0.399,34.7c-1.101,5.899-0.2,28.399-0.2,28.399
			s-1.5,0.4-3,0.7c-0.3-1.5-0.601-3.6-1-6.1c-0.8-5.2-0.2-19.4,0-29.4s-3.2-18.6-3.3-28.399C260.8,266.1,262,261.1,286.1,265.8
			c15.5,3,23-0.1,26.4-2.6C316.6,266.7,322.5,270.1,330.5,271.7z"/>
		<g id="XMLID_415_">
			<path id="XMLID_515_" opacity="0.58" fill="#CADCF1" enable-background="new    " d="M340.9,293.1v54c0,1.9-1.601,3.5-3.5,3.5
				c-0.801,0-1.5-0.3-2.101-0.699c-0.899-0.601-1.399-1.7-1.399-2.801v-54H340.9z"/>
			<path id="XMLID_506_" fill="#A9BACA" d="M340.9,295.5V347c0,1.7-1.301,3.4-3,3.6c-0.801,0.101-1.601-0.1-2.2-0.399
				c-0.101-0.2-0.2-0.5-0.4-0.7v-52.6c0-0.801,0.601-1.4,1.4-1.4H340.9z"/>
			<path id="XMLID_512_" fill="#A9BACA" d="M345.3,291.3c0,0.3,0,0.5-0.1,0.7c-0.101,0.5-0.4,1-0.8,1.4
				c-0.5,0.5-1.301,0.899-2.101,0.899H331.9c-1.7,0-3-1.3-3-3c0-0.8,0.3-1.6,0.899-2.1c0.5-0.5,1.3-0.9,2.101-0.9H342.3
				C343.9,288.3,345.3,289.6,345.3,291.3z"/>
			<path id="XMLID_508_" fill="#FFFFFF" d="M345.2,292.1c-0.101,0.5-0.4,1-0.8,1.4c-0.5,0.5-1.301,0.9-2.101,0.9H332.4
				c0.1-0.5,0.399-1,0.8-1.4c0.5-0.5,1.3-0.9,2.1-0.9H345.2z"/>
			<path id="XMLID_510_" fill="#FFFFFF" stroke="#A9BACA" stroke-miterlimit="10" d="M382.3,197C382.3,197.1,382.3,197.1,382.3,197
				c0,0.4-0.1,0.7-0.2,1.1c-0.8,3.5-3.8,10.4-4.3,20.801c-0.3,7.3,0.101,28.5-0.5,37.5c-0.5,9-3.6,22.399-13.1,29.199
				c-9.601,7.2-28.8,5.9-40.5,5.7c-11.7-0.3-40.7-5.5-43-9.8c-0.5-1-0.7-1.8-0.5-2.5c0.1-0.7,0.5-1.2,0.899-1.7
				c1.101-1.1,2.801-1.399,4.301-1.1c4.699,1.2,18.8,3.899,25.1-4.101c7.7-9.699,6.7-20.899,10-44.5
				c3.1-22.399,10.1-29.199,21.6-33.699c12.301-4.801,32.2-2.7,37.101-1.2C381.1,193.2,382.5,195,382.3,197z"/>
			<path id="XMLID_516_" fill="#A9BACA" d="M377.8,353.8c0,0.7-0.6,1.3-1.3,1.3h-78.3c-0.7,0-1.3-0.6-1.3-1.3
				c0-0.6,0.399-1.2,1.1-1.3l39.4-6.4l9.899,1.601l29.5,4.8C377.4,352.7,377.8,353.2,377.8,353.8z"/>
			<path id="XMLID_502_" opacity="0.58" fill="#CADCF1" enable-background="new    " d="M320.2,352.2c0,0,0.2,0.3-0.5,1
				c-0.3,0.3-3.9,1.1-7.9,1.899h-13.6c-0.7,0-1.3-0.6-1.3-1.3c0-0.6,0.399-1.2,1.1-1.3l39.4-6.4L320.2,352.2z"/>
		</g>
		<path id="XMLID_420_" fill="#191A46" d="M259.3,342.3c0,0,2.4,0.9,4.5,0.9c2.601,0,4.4-0.9,4.4-0.9s4.6,5.8,2.1,12.3
			c-0.1,0.301-0.5,0.601-0.8,0.601h-30.6c-0.4,0-0.7-0.3-0.7-0.7c0-0.8,0.3-2,2.2-2.5c2.8-0.9,5.699-1.3,7.899-2.1
			c2.2-0.801,5.3-4,7.101-4.601C257.6,344.5,259.3,342.3,259.3,342.3z"/>
		<path id="XMLID_421_" fill="#191A46" d="M304.9,339.2c0,0,2.5,0.5,4.6,0.2c2.5-0.4,4.2-1.601,4.2-1.601s5.399,5,4.1,11.8
			c-0.1,0.4-0.399,0.601-0.7,0.7c0,0-16.1,3.601-21.6,4.4c-3.3,0.5-8.6,0.5-8.6,0.5c-0.4,0-0.7-0.2-0.801-0.601
			c-0.1-0.699,0-2,1.7-2.8c2.7-1.3,5.5-2.2,7.5-3.3s4.601-4.8,6.3-5.6C303.6,341.6,304.9,339.2,304.9,339.2z"/>
		<path id="XMLID_536_" fill="#E0BA98" d="M243.4,224.1c0,0-3.101-1.3-4.801-1.899c-0.699-0.2-1.3-0.4-1.8-0.5
			c-0.7-0.2-1.399-0.2-2.2-0.2h-17.8c-0.5,0-0.899-0.4-0.899-0.9c0-0.699,0.399-1.3,0.899-1.699l1.9-1.2l5.7-3.7
			c2.8-1.8,4.899-1.9,8.3-1.6c0.6,0.1,3,1.1,3.5,1.199c3.3,1.101,4.1,1.601,6.3,2.4c0.9,0.3,1.5,0.5,1.9,0.6
			c0.6,0.101,0.8,0.101,0.8,0.101C245.8,221.1,243.4,224.1,243.4,224.1z"/>
		<path id="XMLID_534_" fill="#DCAC84" d="M243.5,224.1L243.5,224.1c-0.6-0.199-3.3-1.3-4.8-1.899c-0.601-0.2-1.101-0.3-1.5-0.5
			c-0.7-0.2-1.7-0.3-2.4-0.3H217c-0.5,0-1-0.4-1-1c0-0.7,0.4-1.301,0.9-1.7l1.899-1.2c-1.8,1.4-2.1,2.4-1.2,2.5
			c0.7,0.1,2.4-0.1,6.801-1.3c0.1,0,0.1,0.1,0,0.2c-1,0.6-0.601,1.899,0.6,1.8c0.7,0,3.8-0.2,4.6-0.3
			c2.801-0.2,6.801-0.4,7.601-0.301c1.6,0.301,2.8,0.801,3.899,1.301c0.801,0.399,1.5-0.5,1.801-1.301
			c0.399-1.199,1-2.699,1.6-3.899c0.6,0.1,0.8,0.1,0.8,0.1C245.8,220.7,243.8,223.6,243.5,224.1z"/>
		<path id="XMLID_423_" fill="#62BD75" d="M313.3,181.5c-2.3-1.4-9.399-5.4-18.5,8.9c-9.1,14.199-13.2,23-16.399,24.899
			c-3.2,1.9-14.2,2.5-17,2.5c-2.801,0-16.4-1.5-16.4-1.5s-2,4.3-2.3,8c0,0,10.1,8.3,33.6,8.3c23.5,0.101,41.3-35.399,42.2-39.699
			C319.2,188.5,318.8,184.9,313.3,181.5z"/>
		<g id="XMLID_424_">
			<path id="XMLID_417_" fill="#191A46" d="M290.6,148.5c-0.199,0-0.399-0.1-0.5-0.3c-0.1-0.3,0-0.6,0.2-0.7l20.4-10.4
				c2.3-1.2,7-3.6,10.5,1.5c0.2,0.3,0.1,0.6-0.101,0.8c-0.199,0.2-0.6,0.1-0.8-0.1c-2.7-4-6-2.8-9.1-1.2l-20.4,10.5
				C290.8,148.4,290.7,148.5,290.6,148.5z"/>
		</g>
		<path id="XMLID_482_" fill="#E0BA98" d="M311.1,138.3l2.5,7.9c0,0,1.9,1.9,3.801-0.3c1.8-2.1,3.5-9.5,0.1-10.7
			C314,133.9,311.9,135.7,311.1,138.3z"/>
		<path id="XMLID_507_" fill="#A9BACA" d="M382.3,197C382.3,197.1,382.3,197.1,382.3,197c0,0.4-0.1,0.7-0.2,1.1
			c-1.5,0.601-3.199,0.4-5.1,0.101c-11.6-2.2-34.7-5.601-45.7,8.5c-2.6,3.3-5.7,19.3-6,21.8c-1.2,9.9-2.8,27-5.3,35.5
			c-2.9,10.1-8.1,14.5-13.1,15.9c-5.101,1.399-15,2-26.5-0.9c0.1-0.7,0.5-1.2,0.899-1.7c1.101-1.1,2.8-1.399,4.3-1.1
			c4.7,1.2,18.801,3.899,25.101-4.101c7.7-9.699,6.7-20.899,10-44.5c3.1-22.399,10.1-29.199,21.6-33.699
			c12.3-4.801,32.2-2.7,37.101-1.2C381.1,193.2,382.5,195,382.3,197z"/>
	</g>
	<g>
		<g id="XMLID_443_">
			<path id="XMLID_517_" fill="#E0BA98" d="M139.9,81.5c-1.9,0.5-2,6.9-2.6,8.9c-0.6,2-3.1,9.7-7.3,10.3c-4.3,0.7-6.9,0.7-7,1.3
				c-0.1,0.3-0.1,1.8-0.2,3.2c-0.1,1.6-0.1,3.2-0.1,3.2l-4.3,4.1l-4.1-0.2l-9.6-4.2c0,0,0.9-10.4,0.6-12.1c-0.1-1-3-8.5-4.8-15.7
				c-1.1-4.2-1.8-8.3-1.5-11c0.9-7.2,2.1-14.8,7.1-17.9c4.9-3.1,34.9-12.9,32.8,9.3c0,0,1.8,13.1,3,15.5
				C143.1,78.6,141.8,81,139.9,81.5z"/>
			<path id="XMLID_481_" fill="#E0BA98" d="M122.8,105.2c-0.1,1.6-0.1,3.2-0.1,3.2l-2.26,9.141l-6.514,0.418L104.7,108.1
				c0,0,0.9-10.4,0.6-12.1c-0.1-1-3-8.5-4.8-15.7l0.9-4.2c0,0,8.3,0.1,8.6,0.2c0.3,0.1,2.3,5.4,2.2,5.6c0,0.3-2.3,4.9-2.3,4.9
				s-1.1,6.6-1.5,11.8c-0.2,2.7,1.4,5.3,3.9,6.3c1.4,0.6,3,1.1,4.6,1.3C119.6,106.8,121.7,105.9,122.8,105.2z"/>
			<path id="XMLID_447_" fill="#0F103A" d="M110.7,75.2c0,0-5.2,13.8,1.8,22.4s21.3,6.2,23.5,4.7c2.2-1.4,10.2-12.5,4.9-18.7
				c-5.3-6.2-14-1.3-14-1.3s-5.2,3.4-6.8,3c-1.5-0.4-4.3-6-2-14.9c0.1-0.5,0.6-0.8,1.1-0.8c1.9,0,6.4-1,7.2-10
				c0.1-0.8,0.8-1.3,1.5-1.2c2.6,0.4,7.9,1.3,9,1.8c0,0,0.8,0.3,1.6,0.7c0.3,0.1,0.4,0.4,0.5,0.7c0.1,0.9,0.4,3,0.5,3.5
				c0.1,0.6,0.9,5.3,0.9,5.3s1.5-0.7,1.7-2.3c0.2-1.6,0-5.2,0.4-6c0.4-0.8,2.8-1,3.4-2.8c1.4-4.1,5.2-20.2-9.2-14.2
				c-1.9,0.8-3.7,1.9-5.2,2c-1.9,0.1-3.4-1.8-7.2-2.7C119,43.1,95,41.7,94.8,65.9c-0.2,24.1,10.5,31,10.5,31S107.6,77.2,110.7,75.2z
				"/>
			
				<ellipse id="XMLID_446_" transform="matrix(-0.9986 -0.0531 0.0531 -0.9986 259.757 144.9027)" fill="#333333" cx="131.803" cy="69.001" rx="0.8" ry="1.2"/>
			<path id="XMLID_445_" fill="none" stroke="#221F1F" stroke-linecap="round" stroke-miterlimit="10" d="M134.1,63.8
				c0,0-4.3-2-6,2.9"/>
			<path id="XMLID_444_" fill="none" stroke="#FFFFFF" stroke-linecap="round" stroke-miterlimit="10" d="M127,88.7
				c0,0,3.3,1.6,9,0.5"/>
		</g>
		<path id="XMLID_418_" fill="#E0BA98" d="M188.7,92.2c-0.8-0.8-1.7-0.9-2.4-0.6c-0.1-0.4-0.3-0.9-0.7-0.9c-0.8,0-3.3,6.4-3.3,6.4
			l0,0c-0.6,1.5-0.7,2.4-0.9,3.3c-0.8,2.9,0.4,6.6,0.4,8s-2.2,6.3-2.2,6.3l5.2,3.8c0,0,8.1-10.9,8-13.1
			C192.7,103.4,190.6,94,188.7,92.2z"/>
		<path id="XMLID_439_" fill="#161733" d="M179.6,107.1l0.7,0.8c0.1,0.1,0.2,0.2,0.4,0.3l4.6,1.8c0.3,0.1,0.7,0,0.9-0.4l13-29.4
			c0.1-0.2,0.1-0.6-0.1-0.8l-0.9-0.7l-3.7,1.8L179.6,107.1z"/>
		<path id="XMLID_438_" fill="#3D3D73" d="M184.7,109.1l-4.6-1.6c-0.5-0.2-0.8-0.7-0.6-1.2l12.4-28c0.2-0.5,0.8-0.9,1.4-0.8l4.5,1
			c0.5,0.1,0.7,0.5,0.5,0.9l-13,29.2C185.3,109,185,109.1,184.7,109.1z"/>
		<path id="XMLID_398_" fill="#C9D9EE" d="M185,107.4l-3.8-1.3c-0.4-0.2-0.6-0.6-0.4-1.1l11.6-26.1c0.2-0.5,0.7-0.8,1.2-0.8l3.8,0.8
			c0.4,0,0.6,0.5,0.4,0.8L185.7,107C185.5,107.2,185.2,107.4,185,107.4z"/>
		<path id="XMLID_437_" fill="#E0BA98" d="M193.4,92.6c0,0-2.4-2-4.4-0.9c-2,1.1-4.8,7-4.9,9.7c-0.1,2.7,3.9,5.8,3.9,5.8l-4.3,9.6
			l2.4,0.8c0,0,1.6-3.5,3.1-5.1c1.4-1.6,5.2-5.2,7.7-9.8C199.5,98.2,195.1,93.6,193.4,92.6z"/>
		<path id="XMLID_436_" fill="#13739B" d="M186.9,117.2c0,0-6.5,24.1-14.5,35.7c-6.3,9-9.7,12.3-21.1,0.7
			c-11.4-11.6-20.7-23-24.1-28c-2-3-1.7-8.4,0.7-11.8c1.6-2.4,4.3-3.8,7.9-2.7c0,0,7.7,3.4,16.5,14.6c8.6,10.9,9.4,12.1,10.5,11.8
			c1.1-0.3,6.3-9.6,9.6-14.3c3.6-5,6.9-10.1,6.9-10.1s0.9,0,1.9,0.2c0.9,0.1,1.8,0.3,2.5,0.7C185.4,115.2,186.9,117.2,186.9,117.2z"
			/>
		<path id="XMLID_435_" fill="#1C88C4" d="M181.2,113.4c-6.3,7.4-14.8,28.6-18.2,28.8c-3.6,0.2-6.7-6.2-12.2-12.1
			s-15.4-10.5-15.4-10.5l-7.5-5.7c1.6-2.4,4.3-3.8,7.9-2.7c0,0,7.7,3.4,16.5,14.6c8.6,10.9,9.4,12.1,10.5,11.8
			c1.1-0.3,6.3-9.6,9.6-14.3c3.6-5,6.9-10.1,6.9-10.1S180.2,113.3,181.2,113.4z"/>
		<polygon id="XMLID_434_" fill="#FFFFFF" points="158.3,339.4 161.3,344.6 169.9,344.4 168,337.8 		"/>
		<path id="XMLID_433_" fill="#FFFFFF" d="M123.5,328.3c0,0-1.1,3.8-1.5,5.8s-0.3,3.2-0.3,3.2l9.3-0.3c0,0,1.8-4.8,2.1-5.5
			L123.5,328.3z"/>
		<path id="XMLID_432_" fill="#191A46" d="M141.6,197.5c0,0,12.3,28.7,14.2,51.4c1.9,22.699-18,73.5-22.6,83.699
			c0,0-7.2-1.6-10.3-3.3c-0.1-1.7-0.1-2.2-0.1-3.899c-0.2-11.601,6-42.2,12.4-53.801c0,0,0.2-14.399-7.1-25.899
			c-7.3-11.5-15.3-33.3-17.7-40.7L141.6,197.5z"/>
		<path id="XMLID_431_" fill="#3D3D73" d="M168.7,339.2c-3.8,1.399-6.6,1.6-8.4,1.399c-1.6-0.199-2.4-0.6-2.4-0.6
			c-11.8-12.2-24.7-43.2-28.6-55.2c-2.7-8.5,0-21.3-22.1-41.1c-22.1-19.8-21-37.4-21-37.4l15.1-1l25.8-1.7
			c4,8.9,14.8,41.101,18.2,48.4c3.4,7.4,13.1,41.8,15.7,53.4C163.6,317,168.7,339.2,168.7,339.2z"/>
		<path id="XMLID_430_" fill="#33305B" d="M160.3,340.6c-1.6-0.199-2.4-0.6-2.4-0.6c-11.8-12.2-24.7-43.2-28.6-55.2
			c-2.7-8.5,0-21.3-22.1-41.1c-22.1-19.8-21-37.4-21-37.4l15.1-1c0.1,5.8,1.7,25.4,17.3,44.9c0,0,12,11.399,14.5,21.1
			s0.1,13.5,6.7,28C145.9,312.6,154.9,332.7,160.3,340.6z"/>
		<path id="XMLID_548_" fill="#E0BA98" d="M60.1,225.7c0,1.1-1.1,1.399-1.1,1.399H36.6c0,0-2.8-0.1-1.6-1.899
			c0.1-0.101,0.1-0.2,0.2-0.3c1.6-1.301,4.8-1.301,6.9-1.5c0.7-0.101,1.4-0.4,1.8-1c0.6-0.9,1.2-1.801,1.5-2
			c0.2-0.101,0.4-0.2,0.5-0.301c0.8-1.399,1.4-2.5,1.4-2.5l8.5,0.5l-1,1.9l0,0c-0.2,0.3,0,0.7,0.2,1c0.6,0.5,0.8,1.3,0.9,1.9
			c0.1,0.699,0.7,1.199,1.3,1.199H59C59,224.2,60.1,224.6,60.1,225.7z"/>
		<path id="XMLID_463_" fill="#DCAC84" d="M55.7,218.3l-1,1.9c-1.6,0-5.1,0.1-7.5-0.2l-0.5,0.8c0,0-0.5,0.101-1.2,1.101
			c-0.3,0.399-0.9,1.3-1.1,1.6c-0.2,0.3-0.9,0.9-1.8,1c-0.9,0-5.5,0.1-7.7,0.8c0.1-0.1,0.1-0.2,0.2-0.3c1.6-1.3,4.8-1.3,6.9-1.5
			c0.7-0.1,1.4-0.4,1.8-1c0.6-0.9,1.2-1.8,1.5-2c0.2-0.1,0.4-0.2,0.5-0.3c0.8-1.4,1.4-2.5,1.4-2.5L55.7,218.3z"/>
		<path id="XMLID_428_" fill="#191A46" d="M160.9,343.9c0,0-3.9,4.6-1.5,10.8c0.1,0.3,0.4,0.5,0.7,0.5h32.5c0.4,0,0.8-0.3,0.8-0.601
			V354c0-0.6-0.4-1.2-1-1.4l-7.3-2.8c-0.2-0.1-0.3-0.1-0.5-0.2l-4.7-2.1c-0.5-0.2-0.9-0.4-1.4-0.5l-2.8-0.6
			c-0.8-0.2-1.6-0.4-2.3-0.7l-3.6-1.7c0,0-2.7,0.7-4.6,0.6C163.2,344.4,160.9,343.9,160.9,343.9z"/>
		<path id="XMLID_520_" fill="#1C88C4" d="M141.6,197.5c-21.1,10.8-49.4,9.2-54.6,8.8c-0.5,0-0.8-0.1-0.8-0.1
			c-10.4-22.3-17.9-67.3-14.4-79.9c0.3-1.3,0.8-2.5,1.4-3.6c5.1-9.8,18.5-13.4,25.7-14.7c0.7-0.1,1.4-0.2,2.1-0.2c0.5,0,1,0,1.6,0.1
			c3.7,0.4,8.425,9.7,15.525,9.7c3.2,0,4.275-8.6,6.175-9c0.4-0.1,0.7-0.1,1.1-0.1c0.5,0,1,0,1.6,0.1c8.4,1.6,15,4.2,15.8,11.3
			c1.6,14.9-1.7,35.3-3.7,45.1C137,174.9,141.6,197.5,141.6,197.5z"/>
		<path id="XMLID_426_" fill="#13739B" d="M87,206.3c-0.5,0-0.8-0.1-0.8-0.1c-10.4-22.3-17.9-67.3-14.4-79.9
			c0.4-1.3,0.8-2.5,1.4-3.6c6.5,2.4,12.8,7.5,16.2,15.4c0,0,0.8,14.6-3.3,27.9C81.1,182.8,86.2,200.9,87,206.3z"/>
		<path id="XMLID_425_" fill="#191A46" d="M122.1,334.1c0,0-6.1,3-5.8,10.4c0,0.8,0.5,1.6,1.2,2c3.1,1.7,11.7,6.5,15.1,8.2
			c0.5,0.3,1.1,0.399,1.7,0.399c2.5,0,9.8,0,12.5,0c0.7,0,1.3-0.699,1.1-1.399c-0.3-0.9-1.3-2.2-4.5-3.2c-0.6-0.2-1.1-0.5-1.5-0.8
			c-1.4-1.101-4.5-3.601-6-4.601c-1.9-1.3-4.7-8.199-4.7-8.199s-3.2-0.2-4.9-0.801C124.3,335.3,122.1,334.1,122.1,334.1z"/>
		<path id="XMLID_413_" fill="#1C88C4" d="M73.8,121.7c0,0-4.8,5.2-10.1,33c-5.3,27.8-17.3,64.1-17.3,64.1s2.1,0.601,4.5,0.8
			c2.5,0.2,4.5,0,4.5,0s13.7-24,16.6-30.6s6.9-16.4,8.3-19.7c1.4-3.3,8.1-23.3,9.1-28.3C90.3,136.2,87.6,117.3,73.8,121.7z"/>
		<path id="XMLID_457_" fill="#1C88C4" d="M114.9,116.4l-1.3,1.2c-5.2-1.6-10.6-7.4-12.6-9.7c0.5,0,1,0,1.6,0.1
			C106.3,111,114.9,116.4,114.9,116.4z"/>
		<path id="XMLID_455_" fill="#1C88C4" d="M125.4,108.5c-0.1,1.1-0.7,5.1-3.9,7.6l-0.9-1.4c0,0,2.8-3.9,3.6-6
			C124.6,108.6,125,108.6,125.4,108.5z"/>
		<path id="XMLID_394_" fill="#13739B" d="M115,117.2c0,0-3.8-1.4-7.3-3.8c-1.9-1.3-6-5.4-6-5.4s0.3-1.2,0.8-2.2
			c0.2-0.3,0.7-1.1,1.2-1.5c0.3-0.2,0.6-0.4,1-0.3c0,0,5.3,1.3,7.1,2c1.2,0.4,4.9,2,4.9,2c0.3,0.1,0.6,0.4,0.5,0.8l-1.3,8.1
			C115.8,117.1,115.4,117.4,115,117.2z"/>
		<path id="XMLID_393_" fill="#13739B" d="M124,105.6c0,0,0.5,0.9,0.7,1.4c0.2,0.7,0.2,1.7,0.2,1.7s-0.3,2.6-1.7,4.5
			c-0.8,1.1-2.4,3.1-2.4,3.1c-0.2,0.2-0.6,0.2-0.7-0.1l-2.3-7.5c-0.1-0.3,0-0.6,0.3-0.7l5-2.6C123.4,105.2,123.8,105.3,124,105.6z"
			/>
		<path id="XMLID_392_" fill="#E0BA98" d="M110.7,75.2c0,0,0.1-4.1-3-3.9c-4.3,0.2-7.5,10.9,1.3,12.2
			C109,83.4,109.3,78.7,110.7,75.2z"/>
	</g>
</g>
</svg>
