<?xml version="1.0" encoding="utf-8"?>
<!-- Generator: Adobe Illustrator 16.0.0, SVG Export Plug-In . SVG Version: 6.00 Build 0)  -->
<!DOCTYPE svg PUBLIC "-//W3C//DTD SVG 1.1//EN" "http://www.w3.org/Graphics/SVG/1.1/DTD/svg11.dtd">
<svg version="1.1" id="Layer_1" xmlns="http://www.w3.org/2000/svg" xmlns:xlink="http://www.w3.org/1999/xlink" x="0px" y="0px"
	 width="72px" height="72px" viewBox="14 14 72 72" enable-background="new 14 14 72 72" xml:space="preserve">
<g>
	<linearGradient id="SVGID_1_" gradientUnits="userSpaceOnUse" x1="47.3184" y1="59.96" x2="53.6934" y2="27.585">
		<stop  offset="0" style="stop-color:#1988C5"/>
		<stop  offset="1" style="stop-color:#32E37F"/>
	</linearGradient>
	<path fill="url(#SVGID_1_)" d="M74.859,38.499h-2.525v-1.625l1.575-1.736c0.818-0.902,1.27-2.067,1.27-3.285v-4.117
		c0-2.879-2.344-5.221-5.222-5.221h-2.4c-2.879,0-5.221,2.342-5.221,5.221v4.117c0,1.218,0.45,2.384,1.268,3.285l1.577,1.736v1.625
		h-2.526c-2.454,0-4.512,1.73-5.018,4.035c-0.259-0.037-0.521-0.057-0.788-0.057H53.89V40.49l1.806-1.988
		c0.901-0.994,1.397-2.281,1.397-3.623v-4.637c0-3.179-2.586-5.766-5.765-5.766c-0.498,0-0.902,0.403-0.902,0.902
		c0,0.5,0.404,0.903,0.902,0.903c2.185,0,3.962,1.776,3.962,3.961v4.636c0,0.894-0.329,1.75-0.932,2.411l-1.856,2.048
		c-0.251,0.16-0.415,0.44-0.415,0.759v3.283c0,0.498,0.403,0.901,0.901,0.901h3.86c2.136,0,3.871,1.737,3.871,3.871v5.66H39.234
		v-5.66c0-1.664,1.056-3.086,2.532-3.631c0.069-0.014,0.136-0.037,0.198-0.066c0.36-0.112,0.743-0.173,1.139-0.173h3.862
		c0.498,0,0.902-0.403,0.902-0.901v-3.284c0-0.318-0.166-0.598-0.415-0.759l-1.859-2.047c-0.601-0.662-0.931-1.518-0.931-2.411
		v-4.636c0-2.184,1.777-3.961,3.962-3.961c0.499,0,0.903-0.403,0.903-0.903c0-0.5-0.405-0.902-0.903-0.902
		c-3.179,0-5.765,2.587-5.765,5.766v4.637c0,1.342,0.497,2.628,1.398,3.623l1.805,1.987v1.987h-2.959
		c-0.251,0-0.5,0.019-0.743,0.051c-0.509-2.302-2.564-4.028-5.017-4.028h-2.525v-1.625l1.576-1.736
		c0.818-0.902,1.269-2.068,1.269-3.286v-4.116c0-2.879-2.342-5.221-5.22-5.221h-2.401c-2.878,0-5.221,2.343-5.221,5.221v4.116
		c0,1.218,0.451,2.385,1.268,3.286l1.577,1.736V38.5h-2.526C22.305,38.5,20,40.804,20,43.639v5.825c0,0.499,0.403,0.903,0.903,0.903
		h14.034c0.499,0,0.903-0.405,0.903-0.903c0-0.498-0.404-0.902-0.903-0.902H21.803v-4.924c0-1.839,1.496-3.335,3.334-3.335h3.428
		c0.499,0,0.903-0.403,0.903-0.902v-2.916c0-0.313-0.16-0.59-0.404-0.752l-1.641-1.807c-0.517-0.57-0.801-1.306-0.801-2.072v-4.117
		c0-1.884,1.532-3.417,3.416-3.417h2.402c1.885,0,3.416,1.533,3.416,3.417v4.117c0,0.767-0.283,1.504-0.799,2.072l-1.643,1.808
		c-0.242,0.161-0.403,0.438-0.403,0.752v2.916c0,0.498,0.405,0.902,0.903,0.902h3.428c1.637,0,3.003,1.187,3.282,2.746
		c-1.89,0.921-3.195,2.861-3.195,5.103v6.563c0,0.498,0.403,0.901,0.902,0.901h23.289c0.498,0,0.901-0.403,0.901-0.901v-6.563
		c0-2.223-1.285-4.151-3.15-5.081c0.269-1.569,1.639-2.767,3.284-2.767h3.428c0.498,0,0.901-0.404,0.901-0.902v-2.916
		c0-0.314-0.159-0.59-0.403-0.752l-1.641-1.808c-0.516-0.569-0.801-1.304-0.801-2.073v-4.116c0-1.885,1.533-3.416,3.418-3.416h2.4
		c1.885,0,3.418,1.531,3.418,3.416v4.116c0,0.769-0.285,1.504-0.801,2.073l-1.643,1.809c-0.242,0.161-0.401,0.438-0.401,0.752v2.916
		c0,0.498,0.403,0.903,0.901,0.903h3.428c1.839,0,3.335,1.496,3.335,3.334v4.923H65.22c-0.498,0-0.903,0.404-0.903,0.903
		c0,0.498,0.405,0.902,0.903,0.902h13.878c0.498,0,0.902-0.404,0.902-0.902v-5.827C79.998,40.803,77.693,38.499,74.859,38.499z"/>
	<linearGradient id="SVGID_2_" gradientUnits="userSpaceOnUse" x1="51.6201" y1="60.8076" x2="57.9951" y2="28.4326">
		<stop  offset="0" style="stop-color:#1988C5"/>
		<stop  offset="1" style="stop-color:#32E37F"/>
	</linearGradient>
	<path fill="url(#SVGID_2_)" d="M58.359,66.435l-4.927-0.809L51.14,61.19c-0.155-0.3-0.464-0.489-0.802-0.489
		c-0.337,0-0.646,0.189-0.801,0.489l-2.292,4.436l-4.926,0.809c-0.333,0.055-0.607,0.291-0.711,0.612
		c-0.104,0.32-0.021,0.672,0.216,0.913l3.511,3.55l-0.753,4.937c-0.051,0.333,0.088,0.668,0.361,0.865
		c0.157,0.114,0.343,0.173,0.53,0.173c0.139,0,0.277-0.032,0.405-0.096l4.461-2.242l4.461,2.242
		c0.301,0.152,0.662,0.122,0.936-0.077c0.272-0.197,0.412-0.532,0.361-0.865l-0.753-4.937l3.511-3.55
		c0.235-0.241,0.318-0.593,0.216-0.913C58.967,66.725,58.691,66.489,58.359,66.435z M53.742,70.563
		c-0.202,0.203-0.295,0.488-0.253,0.771l0.559,3.658l-3.306-1.66c-0.255-0.128-0.555-0.128-0.81,0l-3.306,1.66l0.558-3.658
		c0.043-0.282-0.05-0.568-0.25-0.771l-2.603-2.632l3.652-0.599c0.281-0.047,0.524-0.223,0.655-0.477l1.699-3.286l1.697,3.286
		c0.132,0.255,0.375,0.431,0.656,0.477l3.65,0.599L53.742,70.563z"/>
	<linearGradient id="SVGID_3_" gradientUnits="userSpaceOnUse" x1="69.3701" y1="64.3027" x2="75.7451" y2="31.9277">
		<stop  offset="0" style="stop-color:#1988C5"/>
		<stop  offset="1" style="stop-color:#32E37F"/>
	</linearGradient>
	<path fill="url(#SVGID_3_)" d="M78.102,59.802l-4.927-0.809l-2.291-4.435c-0.155-0.302-0.466-0.489-0.803-0.489
		s-0.645,0.188-0.801,0.489l-2.291,4.435l-4.929,0.809c-0.332,0.055-0.607,0.293-0.711,0.611c-0.104,0.321-0.021,0.675,0.216,0.913
		l3.511,3.551l-0.753,4.937c-0.051,0.333,0.088,0.668,0.362,0.866c0.272,0.198,0.634,0.228,0.935,0.076l4.461-2.241l4.463,2.241
		c0.127,0.065,0.266,0.096,0.403,0.096c0.189,0,0.373-0.058,0.531-0.172c0.271-0.198,0.411-0.533,0.361-0.866l-0.754-4.937
		l3.511-3.551c0.237-0.238,0.322-0.592,0.218-0.913C78.711,60.094,78.436,59.856,78.102,59.802z M73.486,63.932
		c-0.2,0.202-0.293,0.488-0.251,0.77l0.559,3.659l-3.306-1.662c-0.129-0.063-0.268-0.096-0.405-0.096
		c-0.141,0-0.278,0.032-0.405,0.096L66.37,68.36l0.559-3.659c0.044-0.281-0.049-0.567-0.249-0.77l-2.603-2.631l3.65-0.601
		c0.283-0.046,0.526-0.223,0.656-0.475l1.699-3.288l1.697,3.288c0.132,0.253,0.374,0.43,0.656,0.475l3.65,0.601L73.486,63.932z"/>
	<linearGradient id="SVGID_4_" gradientUnits="userSpaceOnUse" x1="31.3555" y1="56.8174" x2="37.7305" y2="24.4424">
		<stop  offset="0" style="stop-color:#1988C5"/>
		<stop  offset="1" style="stop-color:#32E37F"/>
	</linearGradient>
	<path fill="url(#SVGID_4_)" d="M38.614,59.802l-4.928-0.809l-2.292-4.435c-0.155-0.302-0.464-0.489-0.802-0.489
		c-0.337,0-0.646,0.188-0.801,0.489L27.5,58.994l-4.928,0.808c-0.333,0.055-0.608,0.293-0.712,0.612
		c-0.104,0.32-0.021,0.674,0.217,0.913l3.511,3.55l-0.753,4.937c-0.051,0.333,0.088,0.668,0.361,0.866s0.633,0.228,0.935,0.076
		l4.462-2.241l4.462,2.241c0.127,0.065,0.267,0.096,0.405,0.096c0.186,0,0.373-0.058,0.529-0.172
		c0.273-0.198,0.413-0.533,0.362-0.866L35.6,64.877l3.509-3.55c0.237-0.239,0.321-0.593,0.217-0.913
		C39.221,60.094,38.946,59.856,38.614,59.802z M33.996,63.932c-0.2,0.202-0.293,0.488-0.25,0.77l0.558,3.659l-3.306-1.662
		c-0.128-0.063-0.266-0.096-0.405-0.096s-0.278,0.032-0.405,0.096L26.88,68.36l0.558-3.659c0.044-0.281-0.049-0.567-0.25-0.77
		l-2.602-2.631l3.652-0.601c0.282-0.046,0.524-0.223,0.655-0.475l1.698-3.288l1.699,3.288c0.131,0.253,0.374,0.43,0.655,0.475
		l3.652,0.601L33.996,63.932z"/>
</g>
</svg>
