<svg id="Layer_1" data-name="Layer 1" xmlns="http://www.w3.org/2000/svg" viewBox="0 0 4229.42 534.76"><defs><style>.cls-1{fill:#f05825;}.cls-2{font-size:303.79px;fill:#231f20;font-family:Neuropa-Bold, Neuropa;font-weight:700;}.cls-3{letter-spacing:-0.01em;}</style></defs><title>logo_horizontal_60x10</title><path class="cls-1" d="M490.07,353.46c2.33-17.31,3.17-35,7.32-51.84,7.91-32.19,33.91-53.48,63.9-54.78A67.72,67.72,0,0,1,626.5,288c1.14,2.67,2.21,5.36,3.31,8l2.51-.51c-1.48-8.53-2.21-17.28-4.66-25.53s.44-12.14,8-14.69c28.07-9.48,57-11.15,85.95-7.5,26.52,3.35,52.63,9.77,79.06,14a265.36,265.36,0,0,0,116.94-7.51c2.36-.68,4.73-1.63,7.14-1.79,5.71-.38,8.88,4.29,5.9,9.17-26.08,42.68-50.52,86.58-88.52,120.53-31.21,27.89-67.46,43-109.49,43.79a6,6,0,0,0-4.94,2.23c9.33,2.4,18.54,5.66,28,7,13.76,1.93,27.74,2.26,41.58,3.73,3.37.36,6.55,2.53,9.82,3.87-1.39,3.3-1.92,7.5-4.31,9.76-36.67,34.66-80.63,50.33-130.79,49-11.42-.31-22.81-1.85-35.7-1.54,6.33,6,12.37,12.36,19.09,17.9,4.81,4,10.73,6.57,15.75,10.32,2.58,1.93,6,5.14,5.87,7.59s-3.82,5.78-6.67,6.88c-38.24,14.8-75.43,13.61-110.83-8.52-34.78-21.74-52.8-54.83-60.57-93.73-4.43-22.17-6-44.9-8.91-67.38Q490.06,363.26,490.07,353.46ZM785.19,452c-6.07-.69-9.77-1.18-13.49-1.53a197.84,197.84,0,0,1-82.87-26.58c-2.82-1.66-5.94-3.22-8-5.6-1.5-1.72-2.65-5.21-1.88-7.05s4-3.07,6.37-3.66c1.65-.41,3.68.72,5.54,1.13,52.23,11.47,99.47,1.59,140.27-33.79,32.71-28.36,55.95-64.11,77-101.43.21-.37-.1-1-.25-2.3-3.18.31-6.37.6-9.56.92-19,1.9-38,4.78-57,5.46-28.91,1-57-5.48-85.05-11.74-35.3-7.86-70.87-9.73-106.55-1.47-7,1.63-8.59,4.16-7.76,11.65,1.89,17,3.83,34.36,2.4,51.28-2.62,30.89-40.54,58.58-71.19,53.92-.54-.08-1.3.05-1.59-.26-1.89-2-4.79-4-5.15-6.28-.26-1.73,2.41-4.72,4.48-5.79,2.81-1.46,6.35-1.44,9.49-2.37,26.27-7.84,42.11-33.31,38.11-61.17-3.68-25.68-26.75-45.46-53.25-45.66-27.75-.22-49.69,18.58-56.64,48.79-5.63,24.48-6.1,49.39-4.78,74.28,1.66,31.26,6,62.19,19.33,90.92,15.69,33.75,41.65,55.73,78.18,64.25,18.05,4.21,36,2.88,54.21-3.26-7.41-6.39-14.76-11.4-20.36-17.9a93.08,93.08,0,0,1-14.44-22.54c-3.73-8.38.5-12.56,9.46-11,1.34.24,2.64.7,4,1,50.09,10.91,97.31,5.08,140.48-24.16C777.64,458,780.47,455.6,785.19,452Z" transform="translate(-46.58 -125.78)"/><path class="cls-1" d="M487.32,368.29c-1.08,33.77-4.84,67.15-16.81,99-17.31,46-49.39,75.48-98.58,83.84-22.54,3.83-44.74.34-65.79-8.79-2.58-1.12-5.79-4.27-5.89-6.6s2.92-5.34,5.27-7.15c9.07-7,18.56-13.39,27.59-20.41,2.88-2.24,4.81-5.7,8.48-10.21-7.21,1-12.41,1.8-17.63,2.36-54.64,5.91-103.58-7.23-145.48-43.73-1.65-1.44-3.67-2.74-4.66-4.56-1.57-2.89-4-6.81-3.09-9.11s5.59-4,8.59-3.91a204.74,204.74,0,0,0,62.32-8.52c2.7-.81,5.35-1.81,7.92-2.69-16-2.66-31.72-4.17-46.88-8.06-33.63-8.63-60.57-28.36-83.8-53.6-24-26.12-43.17-55.7-61-86.24-3.16-5.43-6.85-10.58-9.66-16.18-1.28-2.54-2.37-6.9-1.1-8.54,1.41-1.82,5.78-2.42,8.56-1.91,16.63,3.07,33,7.57,49.77,9.8,34.55,4.61,68.66.88,102.47-7.35,39.71-9.67,79.78-13.53,120.19-4.24,23.53,5.41,23.49,5.57,19.18,28.74-1,5.52-2,11.06-1.23,17.31a35.67,35.67,0,0,0,2.9-4.88c11.93-29.71,36.35-46.67,66.1-45.85,28.67.79,54.73,19.87,63.14,50,5.37,19.26,6.21,39.78,9.09,59.74ZM322.79,533.88l-.17,3.16c13.73.92,27.68,3.9,41.14,2.4,48.07-5.34,79.21-33.15,95.3-77.78,14.42-40,17-81.69,13.95-123.79-1.19-16.64-3.12-33.2-11.33-48.31-12.63-23.24-37.41-34.63-62.21-28.33a54.64,54.64,0,0,0-41.32,53.59c.44,26,18.06,47.28,44.16,53,4.43,1,9.46,1.47,8.92,7.35-.58,6.28-6,6.06-10.74,6.14-14.51.25-27-6.12-39.53-12.23-14.57-7.08-23-18.76-26.76-34.3-4.56-18.79-3-37.51.48-56.15,2.21-11.92,4.2-11.27-9.88-15-1.06-.28-2.14-.43-3.22-.64-36.11-7-71.91-4.29-107.32,4.28s-71,13-107.3,8.85c-12.94-1.48-25.78-3.8-38.85-5.76a9.13,9.13,0,0,0,.54,2.53c20,34.67,41.64,68.19,70.86,96,33.91,32.31,74.23,47.36,121.09,43.66,9.75-.77,19.33-3.47,29.06-4.66,2.77-.34,6.2.95,8.52,2.61,1,.7.61,4.79-.49,6.48-1.39,2.15-4,3.63-6.31,5.06-26,16.09-54.42,25.18-84.8,28.3-4.08.42-8.13,1.1-12.69,1.72a18.45,18.45,0,0,0,1.62,2.46,29.67,29.67,0,0,0,2.54,2.07c33.81,24.88,71.83,35.21,113.46,32.07,11.94-.9,23.75-3.53,35.6-5.5,9-1.51,13.26,2.48,9.63,10.85a86.91,86.91,0,0,1-13.82,22C337.09,522.76,329.56,528,322.79,533.88Z" transform="translate(-46.58 -125.78)"/><path class="cls-1" d="M487.32,368.29V356.6l2.75-3.14q0,9.8,0,19.6Z" transform="translate(-46.58 -125.78)"/><text class="cls-2" transform="translate(892.09 429.35)">Jubila<tspan class="cls-3" x="1099.38" y="0">n</tspan><tspan x="1332.99" y="0">t Solutions</tspan></text><circle class="cls-1" cx="440.74" cy="56.96" r="56.96"/></svg>