<?xml version="1.0" encoding="utf-8"?>
<!-- Generator: Adobe Illustrator 23.0.2, SVG Export Plug-In . SVG Version: 6.00 Build 0)  -->
<svg version="1.1" id="Capa_1" xmlns="http://www.w3.org/2000/svg" xmlns:xlink="http://www.w3.org/1999/xlink" x="0px" y="0px"
	 viewBox="0 0 150 150" style="enable-background:new 0 0 150 150;" xml:space="preserve">
<style type="text/css">
	.st0{fill:#4176FA;}
	.st1{fill:#F1F2F2;}
</style>
<g>
	<g>
		<circle class="st0" cx="75" cy="75" r="75"/>
	</g>
	<g>
		<path class="st1" d="M101.9,62c-21.7,0-21.7,21.6-21.7,21.7c0,0-1.5,21.6,21.7,21.6c0,0,19.3,1.1,19.3-15h-9.9
			c0,0,0.3,6.1-9.1,6.1c0,0-9.9,0.7-9.9-9.8h29.3C121.5,86.5,124.8,62,101.9,62z M92.2,78.9c0,0,1.2-8.7,9.9-8.7
			c8.7,0,8.6,8.7,8.6,8.7H92.2z M67.4,73.4c0,0,8.6-0.6,8.6-10.7c0-10.1-7-15-16-15H30.6v56.5H60c0,0,18,0.6,18-16.7
			C78,87.4,78.7,73.4,67.4,73.4z M43.6,57.6H60c0,0,4,0,4,5.9s-2.3,6.7-5,6.7H43.6V57.6z M59.2,94H43.6V78.9H60c0,0,6-0.1,5.9,7.8
			C66,93.3,61.5,94,59.2,94z M89.7,50.9v7H113v-7H89.7z"/>
	</g>
</g>
</svg>
