<?xml version="1.0" encoding="utf-8"?>
<!-- Generator: Adobe Illustrator 23.0.2, SVG Export Plug-In . SVG Version: 6.00 Build 0)  -->
<svg version="1.1" id="Capa_1" xmlns="http://www.w3.org/2000/svg" xmlns:xlink="http://www.w3.org/1999/xlink" x="0px" y="0px"
	 viewBox="0 0 100 100" style="enable-background:new 0 0 100 100;" xml:space="preserve">
<style type="text/css">
	.st0{fill:#EC407A;}
	.st1{fill:#C2185B;}
</style>
<circle class="st0" cx="50" cy="49.7" r="46.9"/>
<path class="st1" d="M50,0C22.4,0,0,22.4,0,50s22.4,50,50,50s50-22.4,50-50S77.6,0,50,0z M93.7,50.4c-10.6-2.8-21.4-3.1-31.8-1
	c-1.4-3.5-2.9-7-4.6-10.4c9.4-4.4,18-10.3,25.6-17.6C89.7,29,93.8,39,93.8,50C93.8,50.1,93.7,50.2,93.7,50.4z M78.5,16.9
	c-7.1,6.8-15.2,12.4-23.9,16.5C50,24.5,44.5,15.9,38.3,7.9c3.7-1,7.6-1.6,11.7-1.6C60.9,6.3,70.9,10.3,78.5,16.9z M32.2,10.1
	c6.3,8.1,11.9,16.7,16.7,25.7c-13.1,5-27.4,6.9-41.6,5.3C10.1,27.2,19.5,15.8,32.2,10.1z M6.3,50c0-0.9,0.1-1.9,0.1-2.8
	c3.7,0.4,7.4,0.7,11.1,0.7c11.8,0,23.3-2.3,34.2-6.5c1.5,3.1,2.9,6.3,4.2,9.5c-15.4,4.6-29,14.5-38.3,28.3
	C10.6,71.5,6.3,61.3,6.3,50z M22.2,83.7c8.5-13.3,21.4-22.7,35.9-27c3.9,10.9,6.8,22.2,8.4,33.7c-5.1,2.1-10.7,3.3-16.5,3.3
	C39.4,93.8,29.7,90,22.2,83.7z M72.4,87.5c-1.7-11-4.4-21.8-8.2-32.2c9.4-1.8,19.3-1.4,29,1.4C91.2,69.8,83.4,80.9,72.4,87.5z"/>
</svg>
