<?xml version="1.0" encoding="utf-8"?>
<!-- Generator: Adobe Illustrator 23.0.1, SVG Export Plug-In . SVG Version: 6.00 Build 0)  -->
<svg version="1.1" id="Layer_1" xmlns="http://www.w3.org/2000/svg" xmlns:xlink="http://www.w3.org/1999/xlink" x="0px" y="0px"
	 viewBox="0 0 112.2 112.2" style="enable-background:new 0 0 112.2 112.2;" xml:space="preserve">
<style type="text/css">
	.st0{clip-path:url(#SVGID_2_);}
	.st1{fill:#12100E;}
	.st2{fill:#FFFFFF;}
</style>
<g>
	<defs>
		<circle id="SVGID_1_" cx="56.2" cy="56.1" r="56.1"/>
	</defs>
	<clipPath id="SVGID_2_">
		<use xlink:href="#SVGID_1_"  style="overflow:visible;"/>
	</clipPath>
	<g class="st0">
		<rect x="0" class="st1" width="112.2" height="112.2"/>
		<path class="st2" d="M26.7,37.5c0.1-0.9-0.3-1.8-1-2.5l-7-8.5v-1.3h21.9l16.9,37l14.8-37h20.8v1.3l-6,5.8c-0.5,0.4-0.8,1-0.7,1.7
			v42.4c-0.1,0.6,0.1,1.3,0.7,1.7l5.9,5.8v1.3H63.5v-1.3l6.1-5.9c0.6-0.6,0.6-0.8,0.6-1.7V42L53.2,85H51L31.3,42v28.8
			c-0.2,1.2,0.2,2.4,1.1,3.3l7.9,9.6V85H17.8v-1.3l7.9-9.6c0.8-0.9,1.2-2.1,1-3.3V37.5z"/>
	</g>
</g>
</svg>
